<svg width="322" height="281" viewBox="0 0 322 281" fill="none" xmlns="http://www.w3.org/2000/svg">
<g clip-path="url(#clip0_274_3025)">
<path d="M53.408 97.7547C52.6546 97.8306 51.8965 97.8483 51.1404 97.8076C51.0116 97.7935 50.8823 97.8306 50.7805 97.9109C50.6787 97.9912 50.6125 98.1082 50.5961 98.2368L49.1497 109.086C49.0385 109.874 48.716 110.616 48.2166 111.235C47.8049 111.728 47.4988 112.3 47.3174 112.916C47.136 113.532 47.0832 114.178 47.1622 114.816V133.245C47.1622 133.245 47.0688 135.702 48.9569 135.702C51.2166 135.986 53.5029 135.986 55.7626 135.702C55.7626 135.702 57.2743 135.416 57.2743 133.149V115.002C57.3896 114.369 57.3659 113.718 57.2047 113.095C57.0436 112.472 56.7489 111.892 56.3411 111.394C55.8584 110.773 55.5464 110.036 55.436 109.257L53.9336 98.1809C53.9166 98.0563 53.8527 97.943 53.7551 97.8638C53.6575 97.7846 53.5333 97.7456 53.408 97.7547Z" fill="white"/>
<path d="M52.3531 136.226C51.2111 136.226 50.0701 136.155 48.9368 136.013C48.6836 136.019 48.4319 135.973 48.1975 135.877C47.9631 135.781 47.7511 135.637 47.5747 135.455C46.8064 134.658 46.8491 133.291 46.8513 133.233L46.8511 114.834C46.7709 114.158 46.8295 113.472 47.0232 112.819C47.217 112.166 47.5418 111.559 47.9779 111.036C48.4402 110.461 48.7387 109.773 48.8417 109.042L50.2878 98.1954C50.316 97.9868 50.4243 97.7973 50.5897 97.6672C50.7552 97.537 50.9648 97.4764 51.1742 97.4982C51.9087 97.5369 52.6451 97.5191 53.3769 97.445L53.3855 97.4443C53.5897 97.4294 53.7919 97.4929 53.951 97.6219C54.11 97.7508 54.214 97.9355 54.2418 98.1383L55.7442 109.215C55.8475 109.94 56.1379 110.625 56.5867 111.203C57.019 111.731 57.3321 112.347 57.5044 113.007C57.6768 113.668 57.7044 114.357 57.5853 115.03V133.148C57.5853 135.645 55.8381 136.004 55.8204 136.008C54.6703 136.153 53.5123 136.225 52.3531 136.226ZM51.0982 98.1166C51.0519 98.1144 51.0065 98.1294 50.9707 98.1589C50.9349 98.1883 50.9114 98.23 50.9047 98.2758L49.458 109.127C49.3391 109.971 48.9937 110.767 48.4587 111.431C48.0741 111.891 47.788 112.426 47.6181 113.001C47.4482 113.577 47.3981 114.181 47.4708 114.777L47.4732 114.815V133.245C47.4726 133.268 47.4396 134.42 48.0243 135.026C48.1453 135.149 48.2909 135.245 48.4516 135.308C48.6123 135.371 48.7845 135.399 48.9569 135.391L48.9957 135.394C51.2296 135.674 53.4898 135.674 55.7238 135.394C55.7533 135.386 56.9632 135.11 56.9632 133.148L56.9683 114.946C57.0759 114.357 57.0541 113.752 56.9043 113.173C56.7544 112.593 56.4801 112.054 56.1005 111.591C55.5823 110.925 55.2471 110.136 55.1281 109.301L53.6254 98.2223C53.6188 98.1769 53.5955 98.1355 53.5601 98.1064C53.5246 98.0772 53.4796 98.0623 53.4337 98.0645C52.6662 98.1413 51.894 98.1592 51.1238 98.118C51.1153 98.1171 51.1067 98.1166 51.0981 98.1166H51.0982Z" fill="#3F3D56"/>
<path d="M51.1248 115.145H53.4172C54.3288 115.145 55.203 115.507 55.8476 116.152C56.4921 116.796 56.8543 117.671 56.8543 118.582V127.207C56.8543 128.119 56.4921 128.993 55.8476 129.638C55.203 130.282 54.3288 130.644 53.4172 130.644H51.1248C50.2132 130.644 49.339 130.282 48.6944 129.638C48.0499 128.993 47.6877 128.119 47.6877 127.207V118.582C47.6877 118.131 47.7766 117.684 47.9494 117.267C48.1221 116.85 48.3753 116.471 48.6944 116.152C49.0136 115.833 49.3925 115.579 49.8095 115.407C50.2265 115.234 50.6734 115.145 51.1248 115.145Z" fill="#FFC700"/>
<path d="M8.97996 273.564H16.4537L20.0093 244.736L8.97864 244.737L8.97996 273.564Z" fill="#9F616A"/>
<path d="M7.07361 271.124L21.7922 271.123H21.7928C24.2804 271.123 26.6661 272.111 28.4251 273.87C30.1842 275.629 31.1724 278.015 31.1726 280.503V280.808L7.07405 280.808L7.07361 271.124Z" fill="#2F2E41"/>
<path d="M4.28142 170.599C4.28142 170.599 1.04234 174.261 6.40576 188.533L5.46104 266.793L22.8422 266.454L26.6628 228.279L33.6189 172.572L4.28142 170.599Z" fill="#2F2E41"/>
<path d="M39.5802 181.419L39.3899 181.39C17.1545 177.999 0.375332 174.748 0.208439 174.715L0 174.675L5.82882 160.498C5.78278 159.016 4.52104 117.416 6.93641 105.464C9.27464 93.8935 20.2963 91.9973 21.5522 91.8189L22.8134 87.6404L38.7461 95.931L41.5248 105.495L42.0893 131.706L39.5802 181.419Z" fill="#3F3D56"/>
<path d="M49.1762 127.47C48.4587 127.47 47.749 127.618 47.0916 127.905C46.4343 128.193 45.8435 128.613 45.3565 129.14H18.5763L8.76685 131.228L10.3774 143.65L45.2724 136.146C45.8502 136.798 46.5821 137.296 47.4015 137.592C48.2209 137.889 49.1015 137.976 49.9631 137.845C50.8247 137.714 51.6397 137.369 52.3337 136.842C53.0278 136.315 53.5787 135.623 53.9363 134.828C54.2939 134.033 54.4468 133.161 54.3808 132.292C54.3149 131.423 54.0324 130.585 53.559 129.853C53.0857 129.121 52.4366 128.52 51.671 128.104C50.9054 127.687 50.0477 127.469 49.1762 127.47H49.1762Z" fill="#9F616A"/>
<path d="M49.4085 82.9445C52.8275 76.6899 50.5289 68.8478 44.2743 65.4288C38.0197 62.0097 30.1776 64.3084 26.7585 70.563C23.3395 76.8176 25.6381 84.6596 31.8927 88.0787C38.1473 91.4978 45.9894 89.1991 49.4085 82.9445Z" fill="#9F616A"/>
<path d="M25.9446 66.4358L25.3189 65.1764L28.4673 63.6121C28.4673 63.6121 31.9405 57.9609 38.2253 59.549C44.5102 61.1371 47.3378 62.0876 47.3378 62.0876L50.4783 63.6678L48.9021 65.236L51.7297 66.1865L49.8407 67.125L52.0386 68.3884L50.8554 74.8646C50.8554 74.8646 48.8902 69.9526 45.1121 71.8297C41.3341 73.7068 34.4235 70.8594 34.4235 70.8594L28.4197 82.4787C28.4197 82.4787 27.1811 78.4055 24.9727 79.4916C24.9727 79.4916 19.331 70.5068 25.9446 66.4358Z" fill="#2F2E41"/>
<path d="M10.5488 145.979L7.48628 136.869L6.74548 106.502L8.05037 102.194C8.52005 100.643 9.29797 99.2032 10.3375 97.9604C11.377 96.7175 12.6568 95.6973 14.1 94.9609C15.5433 94.2245 17.1204 93.787 18.7368 93.6747C20.3532 93.5624 21.9756 93.7776 23.5068 94.3074C25.0381 94.8371 26.4466 95.6706 27.648 96.7578C28.8494 97.8449 29.819 99.1635 30.4986 100.634C31.1782 102.105 31.5538 103.698 31.603 105.318C31.6522 106.937 31.374 108.55 30.7849 110.059L23.7909 127.982L24.1464 128.672L39.2991 128.549L44.6816 138.238L10.5488 145.979Z" fill="#3F3D56"/>
<path d="M162.155 142.236C162.72 141.855 163.195 141.355 163.546 140.77C163.898 140.186 164.117 139.532 164.188 138.854C164.259 138.176 164.18 137.49 163.958 136.846C163.735 136.201 163.374 135.613 162.9 135.124L170.369 120.329L161.814 121.321L156.033 135.218C155.263 136.07 154.832 137.174 154.821 138.322C154.811 139.47 155.222 140.581 155.977 141.446C156.731 142.311 157.777 142.87 158.916 143.015C160.054 143.161 161.207 142.883 162.155 142.236Z" fill="#FFB7B7"/>
<path d="M222.055 247.035L215.324 247.034L212.122 221.07L222.056 221.071L222.055 247.035Z" fill="#FFB7B7"/>
<path d="M223.772 253.56L202.068 253.559V253.284C202.068 251.044 202.958 248.895 204.542 247.311C206.126 245.727 208.275 244.837 210.515 244.836H210.516L223.772 244.837L223.772 253.56Z" fill="#2F2E41"/>
<path d="M185.269 247.035L178.537 247.034L175.335 221.07L185.27 221.071L185.269 247.035Z" fill="#FFB7B7"/>
<path d="M185.338 253.56L163.634 253.559V253.284C163.634 251.044 164.524 248.895 166.108 247.311C167.693 245.727 169.841 244.837 172.082 244.836H172.082L185.339 244.837L185.338 253.56Z" fill="#2F2E41"/>
<path d="M184.717 137.377L178.129 152.555L172.694 239.8L186.42 239.251L190.169 197.661L201.734 160.619L208.382 201.915L211.128 238.153L222.485 238.644L227.011 137.377H184.717Z" fill="#2F2E41"/>
<path d="M217.652 62.4775L198.556 62.9552L187.344 68.7106L186.729 111.173L179.737 140.49C179.737 140.49 223.425 143.496 229.465 139.104L222.327 105.612L231.9 69.4164L217.652 62.4775Z" fill="#FFC700"/>
<path d="M190.293 69.4144L188.516 68.2139C188.516 68.2139 181.151 70.4212 178.974 80.2415C178.974 80.2415 177.308 85.1685 176.578 88.5558C175.739 92.4411 157.228 128.129 157.228 128.129L168.311 131.309L188.63 98.449L190.293 69.4144Z" fill="#FFC700"/>
<path d="M231.601 147.681C231.163 147.159 230.844 146.547 230.668 145.888C230.491 145.23 230.461 144.541 230.58 143.869C230.699 143.198 230.963 142.561 231.355 142.003C231.746 141.444 232.256 140.979 232.846 140.639L229.747 124.358L237.696 127.671L239.421 142.624C239.927 143.654 240.036 144.835 239.73 145.941C239.423 147.047 238.721 148.002 237.758 148.626C236.794 149.249 235.635 149.497 234.5 149.323C233.365 149.149 232.334 148.565 231.601 147.681Z" fill="#FFB7B7"/>
<path d="M229.027 69.9233L231.067 69.2595C231.067 69.2595 237.538 73.4122 236.922 83.452C236.922 83.452 237.164 88.6472 236.933 92.1048C236.667 96.0706 240.227 135.48 240.227 135.48H228.697L223.756 99.7915L229.027 69.9233Z" fill="#FFC700"/>
<path d="M222.339 44.6627C222.339 47.2809 221.563 49.8402 220.108 52.0171C218.654 54.1941 216.586 55.8908 214.168 56.8927C211.749 57.8946 209.087 58.1568 206.519 57.646C203.951 57.1352 201.593 55.8745 199.741 54.0231C197.89 52.1718 196.629 49.8131 196.119 47.2453C195.608 44.6774 195.87 42.0158 196.872 39.5969C197.874 37.178 199.57 35.1106 201.747 33.656C203.924 32.2015 206.484 31.4251 209.102 31.4251C212.604 31.4163 215.966 32.7992 218.449 35.2693C220.931 37.7395 222.331 41.0947 222.339 44.5968C222.339 44.6187 222.339 44.6407 222.339 44.6627Z" fill="#FFB7B7"/>
<path d="M195.908 26.8823C197.459 23.5477 200.46 24.207 203.084 25.3373C206.408 24.6001 209.569 22.393 213.15 23.6982C216.677 28.8286 228.52 27.3192 226.001 35.6715C225.997 37.6729 229.767 36.508 229.108 39.7858C231.105 46.0939 221.901 58.0406 216.617 55.5248C217.924 53.1299 220.909 47.6901 216.382 47.1505C206.642 56.213 215.377 29.8936 203.139 37.5477C199.087 41.2559 193.54 30.5914 195.908 26.8823Z" fill="#2F2E41"/>
<path d="M233.919 149.001C234.549 149.128 235.2 149.115 235.825 148.963C236.45 148.811 237.034 148.524 237.536 148.122C238.038 147.72 238.445 147.213 238.73 146.636C239.015 146.059 239.17 145.427 239.184 144.784L272.422 113.499L264.944 107.533L234.566 140.241C233.485 140.289 232.458 140.732 231.681 141.486C230.904 142.24 230.431 143.253 230.351 144.333C230.272 145.413 230.591 146.484 231.248 147.345C231.905 148.205 232.856 148.794 233.919 149.001Z" fill="#9F616A"/>
<path d="M267.712 118.556L261.246 110.978C261.062 110.762 260.927 110.51 260.849 110.237C260.772 109.964 260.754 109.678 260.797 109.398C260.84 109.118 260.943 108.85 261.099 108.614C261.254 108.377 261.459 108.176 261.7 108.026L270.118 102.756C271.227 101.821 272.661 101.363 274.106 101.484C275.552 101.604 276.89 102.293 277.828 103.399C278.767 104.505 279.228 105.938 279.111 107.384C278.994 108.829 278.309 110.17 277.205 111.111L270.699 118.573C270.513 118.786 270.283 118.957 270.024 119.074C269.766 119.191 269.486 119.25 269.202 119.249C268.919 119.247 268.639 119.184 268.382 119.065C268.125 118.946 267.896 118.772 267.712 118.556V118.556Z" fill="#CBCBCB"/>
<path d="M250.324 272.931L242.197 272.93L238.33 241.584L250.325 241.585L250.324 272.931Z" fill="#9F616A"/>
<path d="M252.396 280.809L226.192 280.808V280.477C226.192 277.772 227.267 275.177 229.179 273.265C231.092 271.352 233.686 270.277 236.391 270.277H236.392L252.396 270.278L252.396 280.809Z" fill="#2F2E41"/>
<path d="M315.285 272.931L307.159 272.93L303.292 241.584L315.287 241.585L315.285 272.931Z" fill="#9F616A"/>
<path d="M317.358 280.809L291.154 280.808V280.477C291.154 277.772 292.229 275.177 294.141 273.265C296.054 271.352 298.648 270.277 301.353 270.277H301.354L317.359 270.278L317.358 280.809Z" fill="#2F2E41"/>
<path d="M293.426 135.172L301.617 104.907L290.99 98.9333H276.157L270.387 105.106C270.387 105.106 260.748 111.813 263.081 119.243L266.845 136.168L261.088 163.049L232.085 203.27L225.219 242.778L252.245 249.863L281.47 192.319L295.64 256.036L322 254.71L312.917 177.453C312.917 177.453 310.327 153.918 296.754 139.223L293.426 135.172Z" fill="#2F2E41"/>
<path d="M310.343 161.951C310.8 161.498 311.152 160.951 311.375 160.348C311.597 159.744 311.684 159.099 311.631 158.458C311.577 157.818 311.383 157.196 311.063 156.638C310.744 156.08 310.305 155.599 309.78 155.229L303.424 112.349L294.301 115.23L303.433 156.528C302.869 157.452 302.665 158.552 302.858 159.617C303.05 160.682 303.627 161.64 304.479 162.309C305.331 162.977 306.398 163.31 307.479 163.244C308.56 163.178 309.579 162.718 310.343 161.951Z" fill="#9F616A"/>
<path d="M304.994 119.079L295.098 120.22C294.816 120.252 294.531 120.224 294.261 120.136C293.992 120.048 293.744 119.904 293.536 119.712C293.327 119.52 293.163 119.285 293.053 119.024C292.943 118.762 292.891 118.48 292.9 118.197L293.221 108.27C293.063 106.829 293.483 105.383 294.39 104.251C295.296 103.119 296.614 102.392 298.055 102.23C299.496 102.068 300.943 102.484 302.077 103.387C303.212 104.29 303.943 105.606 304.109 107.047L306.674 116.609C306.747 116.883 306.761 117.169 306.713 117.449C306.666 117.728 306.559 117.994 306.4 118.228C306.24 118.463 306.032 118.66 305.79 118.807C305.547 118.954 305.276 119.046 304.994 119.079V119.079Z" fill="#CBCBCB"/>
<path d="M266.985 90.3264V77.5742C266.985 73.0422 268.785 68.6959 271.99 65.4913C275.194 62.2867 279.541 60.4863 284.073 60.4863C288.605 60.4863 292.951 62.2867 296.156 65.4913C299.36 68.6959 301.161 73.0422 301.161 77.5742V90.3264C301.16 90.9349 300.918 91.5184 300.488 91.9487C300.057 92.379 299.474 92.6211 298.865 92.6218H269.28C268.672 92.6211 268.088 92.379 267.658 91.9487C267.228 91.5184 266.986 90.9349 266.985 90.3264Z" fill="#2F2E41"/>
<path d="M286.571 90.7896C292.642 87.4708 294.873 79.8586 291.554 73.7873C288.236 67.7161 280.623 65.4848 274.552 68.8037C268.481 72.1225 266.25 79.7347 269.569 85.806C272.887 91.8772 280.5 94.1084 286.571 90.7896Z" fill="#9F616A"/>
<path d="M262.942 78.5944C262.946 75.0107 264.372 71.5748 266.906 69.0407C269.44 66.5066 272.876 65.0812 276.46 65.0771H279.01C282.594 65.0812 286.03 66.5066 288.564 69.0408C291.098 71.5749 292.523 75.0107 292.527 78.5944V78.8495H287.137L285.299 73.7018L284.932 78.8495H282.146L281.218 76.2522L281.033 78.8495H262.942V78.5944Z" fill="#2F2E41"/>
<path d="M279.328 94.0558C279.075 93.7132 278.924 93.306 278.893 92.8813C278.861 92.4565 278.95 92.0313 279.149 91.6548C281.852 86.5141 285.636 77.0153 280.613 71.1572L280.252 70.7363H294.834V92.6292L281.587 94.9664C281.453 94.9901 281.317 95.0021 281.181 95.0023C280.819 95.0023 280.463 94.9165 280.141 94.7519C279.819 94.5874 279.54 94.3489 279.328 94.0558Z" fill="#2F2E41"/>
<path d="M145.3 105.713C145.115 105.904 144.945 106.108 144.793 106.325L121.033 105.743L118.262 100.678L110.071 103.862L114.107 113.306C114.433 114.069 114.997 114.705 115.716 115.12C116.434 115.535 117.268 115.705 118.092 115.605L144.935 112.363C145.569 113.164 146.431 113.754 147.407 114.054C148.384 114.353 149.429 114.349 150.403 114.04C151.376 113.731 152.233 113.134 152.859 112.326C153.485 111.519 153.85 110.54 153.906 109.52C153.962 108.5 153.706 107.487 153.172 106.616C152.638 105.745 151.852 105.057 150.918 104.644C149.984 104.231 148.946 104.112 147.942 104.303C146.939 104.494 146.017 104.986 145.3 105.713H145.3Z" fill="#FFB7B7"/>
<path d="M67.8481 250.006H75.6603L79.3768 219.873L67.8468 219.873L67.8481 250.006Z" fill="#FFB7B7"/>
<path d="M65.8555 247.456L81.2406 247.455H81.2412C83.8415 247.455 86.3352 248.488 88.1739 250.327C90.0126 252.166 91.0456 254.659 91.0458 257.26V257.578L65.8559 257.579L65.8555 247.456Z" fill="#2F2E41"/>
<path d="M138.786 249.832L145.97 246.763L137.55 217.592L126.948 222.122L138.786 249.832Z" fill="#FFB7B7"/>
<path d="M135.951 248.27L150.099 242.226L150.1 242.226C152.491 241.204 155.19 241.175 157.603 242.143C160.017 243.112 161.946 244.999 162.968 247.39L163.093 247.683L139.928 257.579L135.951 248.27Z" fill="#2F2E41"/>
<path d="M105.821 112.241L106.386 121.395L89.873 123.163L72.5944 125.012L77.6799 111.111L105.821 112.241Z" fill="#FFB7B7"/>
<path d="M106.401 115.526C106.214 115.452 87.5625 108.197 76.1061 114.13L75.8243 114.276L73.5389 103.026L72.2366 78.8404L80.7107 74.8362L83.0439 69.6099L98.9361 68.6694L102.202 73.1481L113.321 76.7922L106.675 115.634L106.401 115.526Z" fill="#E4E4E4"/>
<path d="M106.985 93.6948L108.951 78.2495L113.427 76.8872L113.502 76.9151C113.605 76.953 116.038 77.884 116.704 81.2517C117.343 84.4842 122.157 104.6 122.205 104.802L122.253 105.004L110.944 109.529L106.985 93.6948Z" fill="#E4E4E4"/>
<path d="M132.967 244.537L148.022 241.448L123.96 175.051L115.725 152.404C115.725 152.404 110.501 134.246 108.142 127.219L106.717 117.791L73.0043 121.522C73.0043 121.522 63.5883 135.35 66.4488 157.89L65.155 242.606L80.2101 243.378L92.8204 157.937L114.953 204.776C114.953 204.776 121.929 224.763 126.92 229.095L132.967 244.537Z" fill="#2F2E41"/>
<path d="M86.524 124.667C86.2589 124.66 85.9937 124.675 85.7309 124.71L70.003 106.892L71.8325 101.416L63.9289 97.575L59.7479 106.955C59.4101 107.713 59.3273 108.559 59.5118 109.368C59.6963 110.177 60.1382 110.904 60.7712 111.441L81.4003 128.92C81.243 129.93 81.3967 130.963 81.841 131.883C82.2853 132.803 82.9991 133.565 83.8875 134.07C84.7759 134.574 85.7968 134.796 86.8143 134.706C87.8319 134.616 88.7979 134.218 89.5839 133.565C90.3699 132.913 90.9387 132.037 91.2145 131.053C91.4903 130.069 91.4601 129.025 91.1279 128.059C90.7957 127.093 90.1773 126.251 89.3549 125.645C88.5325 125.039 87.5451 124.698 86.524 124.667Z" fill="#FFB7B7"/>
<path d="M62.505 100.215L68.6537 82.7009C69.3447 80.6363 70.2106 79.3821 71.2274 78.9728C71.4277 78.8827 71.6445 78.8351 71.8641 78.8331C72.0838 78.831 72.3014 78.8746 72.5034 78.9609L75.2605 82.4442L77.8193 93.1938L71.2585 108.626L62.505 100.215Z" fill="#E4E4E4"/>
<path d="M103.203 65.0449H76.2107C75.6555 65.0443 75.1231 64.8234 74.7305 64.4308C74.3379 64.0382 74.1171 63.5059 74.1165 62.9507V51.3159C74.1165 47.181 75.759 43.2155 78.6828 40.2917C81.6066 37.3679 85.5721 35.7253 89.707 35.7253C93.8419 35.7253 97.8074 37.3679 100.731 40.2917C103.655 43.2155 105.298 47.181 105.298 51.3159V62.9507C105.297 63.5059 105.076 64.0382 104.683 64.4308C104.291 64.8234 103.759 65.0443 103.203 65.0449Z" fill="#2F2E41"/>
<path d="M92.9107 64.7742C99.2235 64.7742 104.341 59.6567 104.341 53.3438C104.341 47.0309 99.2235 41.9133 92.9107 41.9133C86.5978 41.9133 81.4802 47.0309 81.4802 53.3438C81.4802 59.6567 86.5978 64.7742 92.9107 64.7742Z" fill="#FFB7B7"/>
<path d="M108.986 52.4796H92.4806L92.3113 50.1099L91.465 52.4796H88.9236L88.5882 47.783L86.9109 52.4796H81.9933V52.2469C81.997 48.9772 83.2975 45.8424 85.6095 43.5304C87.9215 41.2183 91.0563 39.9178 94.326 39.9141H96.6531C99.9228 39.9178 103.058 41.2183 105.37 43.5303C107.682 45.8424 108.982 48.9772 108.986 52.2469L108.986 52.4796Z" fill="#2F2E41"/>
<path d="M92.3455 67.2171C92.2212 67.2169 92.0972 67.206 91.9749 67.1843L79.8889 65.0519V45.0774H93.1932L92.8638 45.4614C88.2811 50.8061 91.7336 59.4727 94.1996 64.1629C94.3813 64.5064 94.4623 64.8943 94.4333 65.2819C94.4043 65.6694 94.2665 66.0409 94.0356 66.3535C93.8423 66.6209 93.5883 66.8385 93.2945 66.9887C93.0006 67.1388 92.6754 67.2171 92.3455 67.2171Z" fill="#2F2E41"/>
<path d="M237.121 115.23C236.368 115.305 235.61 115.323 234.853 115.282C234.725 115.268 234.595 115.305 234.494 115.386C234.392 115.466 234.325 115.583 234.309 115.712L232.863 126.561C232.751 127.349 232.429 128.091 231.93 128.71C231.518 129.203 231.212 129.775 231.03 130.391C230.849 131.007 230.796 131.653 230.875 132.29V150.72C230.875 150.72 230.782 153.177 232.67 153.177C234.93 153.461 237.216 153.461 239.476 153.177C239.476 153.177 240.987 152.891 240.987 150.623V132.477C241.103 131.844 241.079 131.193 240.918 130.57C240.757 129.947 240.462 129.367 240.054 128.869C239.571 128.248 239.259 127.511 239.149 126.732L237.647 115.656C237.63 115.531 237.566 115.418 237.468 115.339C237.37 115.26 237.246 115.22 237.121 115.23Z" fill="white"/>
<path d="M236.066 153.701C234.924 153.701 233.783 153.63 232.65 153.488C232.397 153.494 232.145 153.448 231.911 153.352C231.676 153.256 231.464 153.112 231.288 152.931C230.519 152.133 230.562 150.766 230.564 150.708L230.564 132.309C230.484 131.633 230.543 130.947 230.736 130.294C230.93 129.641 231.255 129.034 231.691 128.511C232.153 127.936 232.452 127.248 232.555 126.518L234.001 115.671C234.029 115.462 234.137 115.272 234.303 115.142C234.468 115.012 234.678 114.952 234.887 114.973C235.622 115.012 236.358 114.994 237.09 114.92L237.099 114.919C237.303 114.905 237.505 114.968 237.664 115.097C237.823 115.226 237.927 115.411 237.955 115.613L239.457 126.69C239.561 127.415 239.851 128.1 240.3 128.678C240.732 129.206 241.045 129.822 241.217 130.482C241.39 131.143 241.417 131.833 241.298 132.505V150.623C241.298 153.12 239.551 153.479 239.533 153.483C238.383 153.628 237.225 153.701 236.066 153.701ZM234.811 115.592C234.765 115.589 234.719 115.605 234.684 115.634C234.648 115.663 234.624 115.705 234.618 115.751L233.171 126.602C233.052 127.446 232.707 128.242 232.172 128.906C231.787 129.366 231.501 129.901 231.331 130.477C231.161 131.052 231.111 131.656 231.184 132.252L231.186 132.29V150.72C231.186 150.743 231.153 151.895 231.737 152.501C231.858 152.624 232.004 152.72 232.165 152.783C232.325 152.846 232.498 152.874 232.67 152.866L232.709 152.869C234.943 153.149 237.203 153.149 239.437 152.869C239.466 152.861 240.676 152.585 240.676 150.623L240.681 132.421C240.789 131.833 240.767 131.227 240.617 130.648C240.467 130.069 240.193 129.529 239.813 129.066C239.295 128.4 238.96 127.611 238.841 126.776L237.338 115.697C237.332 115.652 237.309 115.611 237.273 115.581C237.238 115.552 237.193 115.537 237.147 115.54C236.379 115.616 235.607 115.634 234.837 115.593C234.828 115.592 234.82 115.592 234.811 115.592Z" fill="#3F3D56"/>
<path d="M234.838 132.62H237.13C238.042 132.62 238.916 132.982 239.561 133.627C240.205 134.271 240.567 135.146 240.567 136.057V144.682C240.567 145.594 240.205 146.468 239.561 147.113C238.916 147.757 238.042 148.12 237.13 148.12H234.838C233.926 148.12 233.052 147.757 232.407 147.113C231.763 146.468 231.401 145.594 231.401 144.682V136.057C231.401 135.146 231.763 134.271 232.407 133.627C233.052 132.982 233.926 132.62 234.838 132.62Z" fill="#FFC700"/>
<path d="M159.328 100.286C158.575 100.362 157.817 100.38 157.061 100.339C156.932 100.325 156.803 100.362 156.701 100.442C156.599 100.523 156.533 100.64 156.517 100.768L155.07 111.618C154.959 112.405 154.637 113.148 154.137 113.767C153.725 114.26 153.419 114.832 153.238 115.447C153.057 116.063 153.004 116.71 153.083 117.347V135.777C153.083 135.777 152.989 138.234 154.877 138.234C157.137 138.518 159.423 138.518 161.683 138.234C161.683 138.234 163.195 137.948 163.195 135.68V117.534C163.31 116.901 163.286 116.25 163.125 115.627C162.964 115.004 162.669 114.423 162.262 113.926C161.779 113.304 161.467 112.568 161.357 111.789L159.854 100.712C159.837 100.588 159.773 100.474 159.676 100.395C159.578 100.316 159.454 100.277 159.328 100.286Z" fill="white"/>
<path d="M158.274 138.758C157.132 138.758 155.991 138.687 154.858 138.545C154.604 138.551 154.353 138.505 154.118 138.409C153.884 138.313 153.672 138.169 153.495 137.987C152.727 137.19 152.77 135.823 152.772 135.765L152.772 117.366C152.692 116.69 152.75 116.004 152.944 115.351C153.138 114.698 153.462 114.091 153.899 113.568C154.361 112.993 154.659 112.305 154.762 111.574L156.208 100.727C156.237 100.519 156.345 100.329 156.51 100.199C156.676 100.069 156.886 100.008 157.095 100.03C157.829 100.069 158.566 100.051 159.298 99.977L159.306 99.9762C159.51 99.9614 159.713 100.025 159.872 100.154C160.031 100.283 160.135 100.467 160.162 100.67L161.665 111.747C161.768 112.472 162.059 113.157 162.507 113.735C162.94 114.263 163.253 114.879 163.425 115.539C163.597 116.2 163.625 116.889 163.506 117.562V135.68C163.506 138.177 161.759 138.536 161.741 138.54C160.591 138.685 159.433 138.757 158.274 138.758ZM157.019 100.649C156.973 100.646 156.927 100.661 156.891 100.691C156.856 100.72 156.832 100.762 156.825 100.808L155.379 111.659C155.26 112.503 154.914 113.299 154.379 113.963C153.995 114.423 153.709 114.958 153.539 115.533C153.369 116.109 153.319 116.713 153.392 117.309L153.394 117.347V135.777C153.393 135.8 153.36 136.952 153.945 137.558C154.066 137.681 154.212 137.777 154.372 137.84C154.533 137.903 154.705 137.931 154.878 137.923L154.916 137.926C157.15 138.206 159.41 138.206 161.644 137.926C161.674 137.918 162.884 137.642 162.884 135.68L162.889 117.478C162.997 116.889 162.975 116.284 162.825 115.705C162.675 115.125 162.401 114.586 162.021 114.123C161.503 113.457 161.168 112.668 161.049 111.833L159.546 100.754C159.539 100.709 159.516 100.668 159.481 100.638C159.445 100.609 159.4 100.594 159.354 100.597C158.587 100.673 157.815 100.691 157.044 100.65C157.036 100.649 157.027 100.649 157.019 100.649Z" fill="#3F3D56"/>
<path d="M157.045 117.677H159.338C160.249 117.677 161.124 118.039 161.768 118.684C162.413 119.328 162.775 120.202 162.775 121.114V129.739C162.775 130.651 162.413 131.525 161.768 132.17C161.124 132.814 160.249 133.176 159.338 133.176H157.045C156.134 133.176 155.26 132.814 154.615 132.17C153.971 131.525 153.608 130.651 153.608 129.739V121.114C153.608 120.203 153.971 119.328 154.615 118.684C155.26 118.039 156.134 117.677 157.045 117.677Z" fill="#FFC700"/>
<path d="M146.143 84.4642C145.39 84.5401 144.632 84.5578 143.876 84.5171C143.747 84.503 143.618 84.5401 143.516 84.6203C143.414 84.7006 143.348 84.8177 143.332 84.9463L141.885 95.7956C141.774 96.5831 141.451 97.3259 140.952 97.9449C140.54 98.4376 140.234 99.0096 140.053 99.6254C139.872 100.241 139.819 100.888 139.898 101.525V119.955C139.898 119.955 139.804 122.412 141.692 122.412C143.952 122.696 146.238 122.696 148.498 122.412C148.498 122.412 150.01 122.126 150.01 119.858V101.712C150.125 101.079 150.101 100.428 149.94 99.8049C149.779 99.1819 149.484 98.6014 149.077 98.1036C148.594 97.4823 148.282 96.7457 148.171 95.9667L146.669 84.8903C146.652 84.7658 146.588 84.6524 146.491 84.5733C146.393 84.4941 146.269 84.4551 146.143 84.4642Z" fill="white"/>
<path d="M145.089 122.935C143.947 122.935 142.806 122.864 141.672 122.723C141.419 122.729 141.167 122.682 140.933 122.586C140.699 122.49 140.487 122.347 140.31 122.165C139.542 121.367 139.585 120.001 139.587 119.943L139.587 101.544C139.506 100.868 139.565 100.182 139.759 99.5287C139.952 98.8756 140.277 98.2689 140.713 97.7455C141.176 97.1711 141.474 96.4823 141.577 95.7521L143.023 84.9052C143.051 84.6965 143.16 84.5071 143.325 84.3769C143.491 84.2467 143.7 84.1861 143.91 84.2079C144.644 84.2466 145.381 84.2288 146.112 84.1547L146.121 84.154C146.325 84.1392 146.527 84.2027 146.686 84.3316C146.846 84.4605 146.95 84.6452 146.977 84.848L148.48 95.925C148.583 96.6495 148.873 97.3345 149.322 97.9126C149.754 98.4409 150.068 99.0563 150.24 99.7168C150.412 100.377 150.44 101.067 150.321 101.739V119.858C150.321 122.354 148.574 122.714 148.556 122.717C147.406 122.862 146.248 122.935 145.089 122.935ZM143.834 84.8263C143.787 84.8241 143.742 84.8392 143.706 84.8686C143.67 84.898 143.647 84.9397 143.64 84.9855L142.194 95.8367C142.075 96.6807 141.729 97.4768 141.194 98.1402C140.81 98.6009 140.524 99.1356 140.354 99.7112C140.184 100.287 140.134 100.891 140.206 101.487L140.209 101.525V119.954C140.208 119.977 140.175 121.13 140.76 121.735C140.881 121.858 141.026 121.955 141.187 122.018C141.348 122.081 141.52 122.109 141.692 122.101L141.731 122.103C143.965 122.384 146.225 122.384 148.459 122.103C148.489 122.096 149.699 121.82 149.699 119.858L149.704 101.656C149.811 101.067 149.79 100.462 149.64 99.8826C149.49 99.3032 149.216 98.7633 148.836 98.3006C148.318 97.635 147.983 96.8454 147.864 96.0103L146.361 84.932C146.354 84.8866 146.331 84.8452 146.296 84.8161C146.26 84.7869 146.215 84.772 146.169 84.7742C145.402 84.851 144.629 84.8689 143.859 84.8277C143.851 84.8268 143.842 84.8263 143.834 84.8263Z" fill="#3F3D56"/>
<path d="M143.86 101.855H146.153C147.064 101.855 147.938 102.217 148.583 102.861C149.228 103.506 149.59 104.38 149.59 105.292V113.917C149.59 114.829 149.228 115.703 148.583 116.347C147.938 116.992 147.064 117.354 146.153 117.354H143.86C142.949 117.354 142.074 116.992 141.43 116.347C140.785 115.703 140.423 114.829 140.423 113.917V105.292C140.423 104.38 140.785 103.506 141.43 102.861C142.074 102.217 142.949 101.855 143.86 101.855Z" fill="#FFC700"/>
<path d="M24.6947 31.2047C30.7629 31.2047 35.6823 26.2854 35.6823 20.2171C35.6823 14.1488 30.7629 9.22949 24.6947 9.22949C18.6264 9.22949 13.707 14.1488 13.707 20.2171C13.707 26.2854 18.6264 31.2047 24.6947 31.2047Z" fill="#F0F0F0"/>
<path d="M277.849 21.9752C283.918 21.9752 288.837 17.0559 288.837 10.9876C288.837 4.91932 283.918 0 277.849 0C271.781 0 266.862 4.91932 266.862 10.9876C266.862 17.0559 271.781 21.9752 277.849 21.9752Z" fill="#F0F0F0"/>
<path d="M152.151 49.664C156.52 49.664 160.062 46.1221 160.062 41.7529C160.062 37.3837 156.52 33.8418 152.151 33.8418C147.782 33.8418 144.24 37.3837 144.24 41.7529C144.24 46.1221 147.782 49.664 152.151 49.664Z" fill="#F0F0F0"/>
</g>
<defs>
<clipPath id="clip0_274_3025">
<rect width="322" height="280.809" fill="white"/>
</clipPath>
</defs>
</svg>
