<svg width="322" height="260" viewBox="0 0 322 260" fill="none" xmlns="http://www.w3.org/2000/svg">
<g clip-path="url(#clip0_274_2902)">
<path d="M317.723 230.381C316.544 220.903 310.671 211.565 301.632 208.481C305.196 218.236 305.196 228.937 301.63 238.692C300.241 242.449 298.305 246.483 299.611 250.269C300.424 252.625 302.413 254.428 304.635 255.555C306.858 256.682 309.325 257.219 311.761 257.745L312.241 258.142C316.108 249.409 318.901 239.858 317.723 230.381Z" fill="#F0F0F0"/>
<path d="M301.542 208.66C306.806 214.558 310.077 221.964 310.892 229.827C311.097 231.517 311.035 233.228 310.708 234.898C310.336 236.515 309.538 238.003 308.397 239.207C307.356 240.351 306.158 241.401 305.413 242.778C305.042 243.489 304.826 244.27 304.778 245.07C304.73 245.87 304.852 246.672 305.135 247.422C305.793 249.308 307.09 250.846 308.41 252.306C309.876 253.927 311.424 255.587 312.047 257.736C312.123 257.997 312.522 257.864 312.447 257.604C311.363 253.866 307.733 251.742 306.003 248.375C305.195 246.803 304.856 244.979 305.613 243.32C306.275 241.87 307.509 240.786 308.574 239.637C309.704 238.479 310.534 237.061 310.99 235.508C311.401 233.86 311.529 232.154 311.368 230.463C311.067 226.65 310.167 222.908 308.703 219.374C307.055 215.332 304.727 211.602 301.821 208.344C301.641 208.143 301.363 208.46 301.542 208.66Z" fill="white"/>
<path d="M310.779 227.28C312.08 226.964 313.226 226.196 314.013 225.113C314.799 224.031 315.176 222.703 315.074 221.369C315.053 221.099 314.632 221.119 314.654 221.39C314.751 222.632 314.4 223.869 313.665 224.875C312.93 225.882 311.86 226.593 310.647 226.88C310.384 226.943 310.517 227.342 310.779 227.28Z" fill="white"/>
<path d="M309.002 238.696C306.653 237.294 304.919 235.057 304.145 232.433C304.069 232.172 303.669 232.305 303.745 232.565C304.555 235.294 306.365 237.618 308.813 239.072C309.046 239.211 309.234 238.834 309.002 238.696Z" fill="white"/>
<path d="M306.664 215.731C306.187 215.958 305.66 216.063 305.132 216.036C304.603 216.009 304.09 215.851 303.638 215.577C303.406 215.436 303.218 215.813 303.448 215.953C303.949 216.254 304.517 216.427 305.1 216.458C305.684 216.489 306.266 216.376 306.796 216.13C306.848 216.111 306.891 216.073 306.916 216.024C306.941 215.975 306.946 215.918 306.93 215.865C306.913 215.812 306.875 215.768 306.825 215.743C306.775 215.718 306.717 215.714 306.664 215.731Z" fill="white"/>
<path d="M274.081 225.409C274.223 225.501 274.365 225.593 274.507 225.689C276.411 226.941 278.209 228.345 279.886 229.888C280.017 230.006 280.149 230.126 280.276 230.247C284.275 234.008 287.541 238.478 289.907 243.431C290.847 245.402 291.636 247.443 292.266 249.534C293.137 252.422 293.851 255.623 295.574 257.985C295.751 258.234 295.943 258.471 296.149 258.696H311.72C311.755 258.678 311.791 258.664 311.826 258.646L312.448 258.674C312.423 258.564 312.395 258.451 312.37 258.341C312.356 258.277 312.338 258.213 312.324 258.149C312.313 258.106 312.302 258.063 312.295 258.024C312.292 258.01 312.288 257.996 312.285 257.985C312.278 257.946 312.267 257.911 312.26 257.875C312.103 257.239 311.942 256.603 311.777 255.967C311.777 255.964 311.777 255.964 311.773 255.96C310.498 251.118 308.807 246.34 306.444 241.97C306.373 241.839 306.302 241.704 306.224 241.573C305.148 239.609 303.914 237.736 302.533 235.974C301.774 235.011 300.966 234.087 300.114 233.206C297.906 230.934 295.355 229.023 292.554 227.544C286.969 224.595 280.504 223.465 274.535 225.266C274.383 225.313 274.233 225.359 274.081 225.409Z" fill="#F0F0F0"/>
<path d="M274.116 225.606C281.87 227.146 288.941 231.09 294.326 236.877C295.507 238.103 296.488 239.507 297.232 241.038C297.908 242.552 298.167 244.22 297.981 245.869C297.838 247.409 297.514 248.968 297.748 250.517C297.88 251.307 298.178 252.061 298.621 252.729C299.065 253.397 299.644 253.963 300.322 254.391C301.983 255.502 303.945 255.949 305.878 256.32C308.024 256.732 310.26 257.125 312.051 258.466C312.268 258.628 312.507 258.282 312.291 258.12C309.174 255.787 304.998 256.277 301.588 254.63C299.998 253.862 298.629 252.609 298.235 250.829C297.89 249.273 298.223 247.664 298.381 246.106C298.586 244.501 298.395 242.869 297.824 241.355C297.16 239.791 296.235 238.352 295.089 237.098C292.552 234.235 289.581 231.789 286.285 229.849C282.535 227.614 278.43 226.037 274.148 225.186C273.883 225.134 273.853 225.554 274.116 225.606Z" fill="white"/>
<path d="M292.701 234.912C293.549 233.877 294.002 232.574 293.978 231.236C293.955 229.897 293.456 228.611 292.572 227.607C292.392 227.404 292.069 227.674 292.249 227.876C293.074 228.81 293.538 230.009 293.558 231.255C293.577 232.501 293.151 233.713 292.355 234.672C292.182 234.881 292.529 235.12 292.701 234.912H292.701Z" fill="white"/>
<path d="M298.156 245.098C295.436 245.392 292.705 244.65 290.507 243.02C290.289 242.859 290.05 243.205 290.267 243.367C292.557 245.058 295.401 245.824 298.231 245.512C298.501 245.482 298.424 245.068 298.156 245.098V245.098Z" fill="white"/>
<path d="M282.463 228.168C282.218 228.637 281.86 229.038 281.422 229.334C280.984 229.631 280.48 229.814 279.953 229.868C279.683 229.894 279.76 230.308 280.029 230.282C280.61 230.22 281.167 230.017 281.652 229.69C282.136 229.364 282.534 228.923 282.809 228.408C282.839 228.361 282.85 228.305 282.84 228.251C282.83 228.196 282.8 228.148 282.756 228.115C282.71 228.083 282.653 228.071 282.598 228.081C282.543 228.091 282.495 228.122 282.463 228.168Z" fill="white"/>
<path d="M163.345 61.44H161.924V22.5237C161.924 19.5659 161.342 16.637 160.21 13.9043C159.078 11.1716 157.419 8.68857 155.327 6.59705C153.236 4.50553 150.753 2.84644 148.02 1.71452C145.287 0.582595 142.359 2.33269e-06 139.401 0H56.9512C50.9776 -1.5075e-05 45.2486 2.37299 41.0246 6.59699C36.8005 10.821 34.4275 16.55 34.4275 22.5236V236.021C34.4275 241.995 36.8005 247.724 41.0245 251.948C45.2485 256.172 50.9775 258.545 56.9511 258.545H139.401C145.374 258.545 151.103 256.172 155.327 251.948C159.551 247.724 161.924 241.995 161.924 236.022V89.1413H163.345L163.345 61.44Z" fill="#3F3D56"/>
<path d="M140.309 5.85988H129.547C130.042 7.0733 130.23 8.38981 130.097 9.69344C129.963 10.9971 129.511 12.2478 128.78 13.3355C128.049 14.4232 127.062 15.3144 125.905 15.9306C124.749 16.5469 123.458 16.8692 122.148 16.8694H74.9135C73.603 16.8692 72.3127 16.5469 71.1562 15.9306C69.9996 15.3144 69.0124 14.4231 68.2814 13.3355C67.5505 12.2478 67.0982 10.9971 66.9645 9.69343C66.8308 8.3898 67.0197 7.07328 67.5146 5.85986H57.4625C55.2537 5.85986 53.0664 6.29493 51.0256 7.14024C48.9849 7.98554 47.1306 9.22452 45.5687 10.7864C44.0068 12.3484 42.7678 14.2026 41.9225 16.2434C41.0772 18.2841 40.6421 20.4714 40.6421 22.6803V235.865C40.6421 238.074 41.0772 240.261 41.9225 242.302C42.7678 244.342 44.0067 246.197 45.5687 247.759C47.1306 249.321 48.9849 250.56 51.0256 251.405C53.0664 252.25 55.2536 252.685 57.4625 252.685H140.309C142.518 252.685 144.705 252.25 146.746 251.405C148.787 250.56 150.641 249.321 152.203 247.759C153.765 246.197 155.004 244.342 155.849 242.302C156.694 240.261 157.129 238.074 157.129 235.865V22.6803C157.129 20.4714 156.694 18.2841 155.849 16.2434C155.004 14.2026 153.765 12.3484 152.203 10.7865C150.641 9.22453 148.787 7.98555 146.746 7.14025C144.705 6.29495 142.518 5.85988 140.309 5.85988Z" fill="white"/>
<path d="M110.404 63.1299H81.0386V65.8569H110.404V63.1299Z" fill="#FFC700"/>
<path d="M132.22 72.5635H81.0386V75.2905H132.22V72.5635Z" fill="#E6E6E6"/>
<path d="M132.169 81.9971H81.0386V84.724H132.169V81.9971Z" fill="#E6E6E6"/>
<path d="M74.9533 63.1704H53.1375V84.9862H74.9533V63.1704Z" fill="#FFC700"/>
<path d="M110.404 120.396H81.0386V123.123H110.404V120.396Z" fill="#FFC700"/>
<path d="M132.22 129.83H81.0386V132.557H132.22V129.83Z" fill="#E6E6E6"/>
<path d="M132.169 139.264H81.0386V141.991H132.169V139.264Z" fill="#E6E6E6"/>
<path d="M74.9533 120.437H53.1375V142.253H74.9533V120.437Z" fill="#FFC700"/>
<path d="M110.404 177.663H81.0386V180.39H110.404V177.663Z" fill="#FFC700"/>
<path d="M132.22 187.097H81.0386V189.824H132.22V187.097Z" fill="#E6E6E6"/>
<path d="M132.169 196.53H81.0386V199.257H132.169V196.53Z" fill="#E6E6E6"/>
<path d="M74.9533 177.704H53.1375V199.519H74.9533V177.704Z" fill="#FFC700"/>
<path d="M257.747 254.327L253.398 254.567L250.405 237.907L256.823 237.554L257.747 254.327Z" fill="#9F616A"/>
<path d="M259.088 258.481L245.066 259.254L245.056 259.076C244.976 257.629 245.475 256.209 246.442 255.129C247.409 254.049 248.766 253.398 250.213 253.318L250.214 253.318L258.778 252.846L259.088 258.481Z" fill="#2F2E41"/>
<path d="M166.573 187.323L166.01 183.004L182.401 178.778L183.231 185.152L166.573 187.323Z" fill="#9F616A"/>
<path d="M162.53 188.97L160.715 175.044L160.891 175.021C162.329 174.834 163.782 175.226 164.931 176.109C166.08 176.993 166.83 178.298 167.018 179.735L167.018 179.735L168.126 188.241L162.53 188.97Z" fill="#2F2E41"/>
<path d="M221.549 160.028C221.739 160.079 221.925 160.144 222.104 160.224L237.009 150.83L236.849 146.552L243.273 145.468L244.291 153.013C244.373 153.622 244.255 154.242 243.955 154.779C243.655 155.316 243.189 155.741 242.627 155.99L224.307 164.122C224.208 164.873 223.883 165.576 223.376 166.138C222.868 166.699 222.201 167.093 221.464 167.267C220.726 167.44 219.954 167.385 219.249 167.109C218.544 166.832 217.94 166.348 217.517 165.72C217.093 165.092 216.872 164.35 216.881 163.592C216.89 162.835 217.129 162.099 217.567 161.481C218.004 160.863 218.62 160.393 219.331 160.133C220.043 159.874 220.816 159.837 221.549 160.028Z" fill="#9F616A"/>
<path d="M236.328 150.234C236.15 150.088 236.006 149.906 235.905 149.699C235.804 149.493 235.749 149.267 235.744 149.038L235.545 141.016C235.344 139.859 235.61 138.668 236.285 137.706C236.96 136.744 237.989 136.089 239.146 135.885C240.304 135.68 241.495 135.943 242.459 136.615C243.423 137.287 244.081 138.314 244.289 139.471L246.814 147.114C246.886 147.332 246.911 147.563 246.885 147.791C246.86 148.02 246.786 148.24 246.668 148.437C246.55 148.634 246.391 148.803 246.201 148.933C246.012 149.063 245.796 149.151 245.57 149.19L237.615 150.573C237.389 150.612 237.157 150.602 236.935 150.544C236.712 150.485 236.505 150.379 236.328 150.234Z" fill="#E4E4E4"/>
<path d="M248.72 128.066C254.694 128.066 259.537 123.223 259.537 117.248C259.537 111.274 254.694 106.431 248.72 106.431C242.746 106.431 237.903 111.274 237.903 117.248C237.903 123.223 242.746 128.066 248.72 128.066Z" fill="#2F2E41"/>
<path d="M252.504 110.339C254.976 110.339 256.98 108.335 256.98 105.863C256.98 103.391 254.976 101.387 252.504 101.387C250.032 101.387 248.028 103.391 248.028 105.863C248.028 108.335 250.032 110.339 252.504 110.339Z" fill="#2F2E41"/>
<path d="M258.472 103.439C258.472 102.333 258.062 101.265 257.322 100.443C256.581 99.6212 255.563 99.1024 254.462 98.9871C254.617 98.971 254.773 98.9629 254.928 98.9629C256.116 98.9629 257.254 99.4345 258.094 100.274C258.933 101.113 259.405 102.252 259.405 103.439C259.405 104.626 258.933 105.765 258.094 106.604C257.254 107.444 256.116 107.915 254.928 107.915C254.773 107.915 254.617 107.907 254.462 107.891C255.563 107.776 256.581 107.257 257.322 106.435C258.062 105.613 258.472 104.545 258.472 103.439Z" fill="#2F2E41"/>
<path d="M248.715 129.01C252.492 129.01 255.555 125.948 255.555 122.17C255.555 118.392 252.492 115.33 248.715 115.33C244.937 115.33 241.875 118.392 241.875 122.17C241.875 125.948 244.937 129.01 248.715 129.01Z" fill="#9F616A"/>
<path d="M260.101 169.369C260.101 169.369 259.775 177.512 258.472 181.747C257.169 185.981 259.449 245.913 258.309 247.378C257.169 248.844 251.795 248.355 251.795 248.355L246.809 217.131C246.809 217.131 245.932 184.027 233.88 183.212C221.829 182.398 174.763 186.958 174.763 186.958L173.786 180.281L199.029 174.744C199.029 174.744 222.155 166.764 234.858 168.881C247.561 170.998 260.101 169.369 260.101 169.369Z" fill="#2F2E41"/>
<path d="M258.635 129.958C259.938 128.98 263.195 130.283 263.195 130.283L266.778 140.869C266.778 140.869 264.986 149.989 263.358 155.038C261.729 160.086 258.592 182.405 259.243 183.382C259.895 184.359 248.7 176.372 242.023 173.929C235.346 171.486 233.88 168.718 233.88 168.718C233.88 168.718 241.209 158.295 238.766 153.409C236.323 148.523 238.278 142.986 238.278 142.986L237.3 137.449L242.838 134.355C242.838 134.355 257.332 130.935 258.635 129.958Z" fill="#E4E4E4"/>
<path d="M247.461 119.431C251.581 119.431 254.921 117.427 254.921 114.955C254.921 112.483 251.581 110.479 247.461 110.479C243.341 110.479 240.001 112.483 240.001 114.955C240.001 117.427 243.341 119.431 247.461 119.431Z" fill="#2F2E41"/>
<path d="M290.331 132.806C290.25 132.985 290.183 133.171 290.131 133.36L273.419 138.936L270.211 136.103L265.302 140.385L270.493 145.953C270.912 146.403 271.466 146.705 272.072 146.813C272.677 146.921 273.301 146.83 273.85 146.553L291.751 137.534C292.394 137.934 293.144 138.128 293.9 138.091C294.656 138.054 295.384 137.788 295.985 137.327C296.586 136.867 297.033 136.235 297.266 135.514C297.499 134.794 297.507 134.019 297.29 133.294C297.072 132.569 296.638 131.927 296.047 131.454C295.456 130.981 294.734 130.699 293.979 130.646C293.223 130.593 292.47 130.772 291.818 131.158C291.166 131.543 290.648 132.118 290.331 132.806V132.806Z" fill="#9F616A"/>
<path d="M272.836 139.243L266.725 144.521C266.551 144.671 266.347 144.782 266.127 144.846C265.906 144.91 265.674 144.926 265.447 144.892C265.22 144.859 265.002 144.777 264.81 144.651C264.617 144.526 264.454 144.361 264.33 144.167L260.018 137.37C259.255 136.476 258.877 135.316 258.968 134.144C259.059 132.972 259.61 131.884 260.502 131.118C261.394 130.352 262.553 129.972 263.725 130.059C264.898 130.147 265.987 130.696 266.755 131.586L272.834 136.822C273.008 136.972 273.148 137.158 273.244 137.367C273.34 137.576 273.389 137.803 273.389 138.032C273.389 138.262 273.34 138.489 273.244 138.698C273.149 138.907 273.009 139.093 272.836 139.243L272.836 139.243Z" fill="#E4E4E4"/>
<path fill-rule="evenodd" clip-rule="evenodd" d="M53 32.2164C53.2951 30.7946 54.3371 29.6464 55.6973 29.2004V30.3201C54.9145 30.6832 54.3146 31.374 54.0739 32.2164H53ZM53.0886 34.2158C53.4701 35.4754 54.4499 36.475 55.6973 36.884V35.7643C55.0252 35.4526 54.4879 34.8992 54.197 34.2158L53.0886 34.2158ZM56.4797 30.0811L56.4797 30.0811V29.028C56.6365 29.0095 56.796 29 56.9578 29C59.1902 29 61 30.8098 61 33.0422C61 35.0536 59.531 36.7218 57.6073 37.0325V35.9708C58.9514 35.674 59.9569 34.4755 59.9569 33.0422C59.9569 31.579 58.909 30.3606 57.5229 30.0963V35.9543H56.4797V30.0811ZM57.5229 37.0844H56.4797V39.1272L57.5229 40.04V37.0844Z" fill="#222734"/>
</g>
<defs>
<clipPath id="clip0_274_2902">
<rect width="321.744" height="259.519" fill="white"/>
</clipPath>
</defs>
</svg>
