<svg width="352" height="313" viewBox="0 0 352 313" fill="none" xmlns="http://www.w3.org/2000/svg">
<g clip-path="url(#clip0_274_2713)">
<path d="M302.508 258.621C296.568 276.029 288.93 293.399 279.145 309.932C278.928 310.304 278.708 310.669 278.487 311.04L254.262 303.371C254.401 303.02 254.554 302.628 254.718 302.199C264.489 276.913 323.439 122.852 320.793 92.4768C321.078 94.9632 330.3 177.247 302.508 258.621Z" fill="#E6E6E6"/>
<path d="M283.819 311.412C283.489 311.749 283.152 312.083 282.811 312.409L264.638 306.656C264.884 306.359 265.17 306.008 265.499 305.612C270.881 299.035 286.883 279.342 302.508 258.622C319.299 236.355 335.659 212.905 337.952 203.269C337.491 205.46 323.152 272.161 283.819 311.412Z" fill="#E6E6E6"/>
<path d="M292.903 54.8934C292.896 54.8934 292.889 54.8954 292.882 54.8956V15.9132C292.882 11.6928 291.207 7.64518 288.225 4.66087C285.242 1.67657 281.198 0 276.98 0H155.019C150.801 0 146.756 1.67657 143.774 4.66087C140.792 7.64518 139.116 11.6928 139.116 15.9132V35.8976C138.78 35.9048 138.459 36.0436 138.224 36.2844C137.988 36.5251 137.856 36.8486 137.855 37.1856V47.0841C137.856 47.4211 137.988 47.7446 138.223 47.9853C138.459 48.226 138.78 48.3648 139.116 48.3719V58.7415H139.052C138.882 58.7415 138.715 58.7749 138.558 58.8397C138.402 58.9046 138.259 58.9997 138.14 59.1195C138.02 59.2394 137.925 59.3817 137.86 59.5383C137.795 59.6949 137.762 59.8628 137.762 60.0323V79.1735C137.762 79.343 137.795 79.5109 137.86 79.6675C137.925 79.8241 138.02 79.9664 138.14 80.0863C138.259 80.2061 138.402 80.3012 138.558 80.3661C138.715 80.431 138.882 80.4643 139.052 80.4643H139.116V88.0666H139.096C138.927 88.0666 138.759 88.1 138.603 88.1649C138.446 88.2297 138.304 88.3248 138.184 88.4447C138.064 88.5645 137.969 88.7068 137.905 88.8634C137.84 89.02 137.806 89.1879 137.806 89.3574V108.686C137.806 108.855 137.84 109.023 137.905 109.18C137.969 109.336 138.064 109.479 138.184 109.599C138.304 109.718 138.446 109.814 138.603 109.878C138.759 109.943 138.927 109.977 139.096 109.977H139.116V296.809C139.116 301.03 140.792 305.077 143.774 308.062C146.756 311.046 150.801 312.723 155.019 312.723H276.98C281.198 312.723 285.242 311.046 288.225 308.062C291.207 305.077 292.882 301.03 292.882 296.809V92.7997C292.889 92.7997 292.896 92.8016 292.903 92.8016C293.204 92.8017 293.503 92.7422 293.782 92.6267C294.06 92.5112 294.313 92.3419 294.527 92.1285C294.74 91.9151 294.909 91.6617 295.025 91.3828C295.14 91.104 295.199 90.8051 295.199 90.5033V57.192C295.199 56.5824 294.957 55.9978 294.527 55.5667C294.096 55.1356 293.512 54.8935 292.903 54.8934Z" fill="#3F3D56"/>
<path d="M283.387 20.3674V292.35C283.386 295.591 282.099 298.698 279.809 300.989C277.518 303.28 274.413 304.567 271.174 304.567H160.825C157.586 304.567 154.481 303.28 152.19 300.989C149.9 298.698 148.613 295.591 148.612 292.35V20.3674C148.612 17.1261 149.898 14.0175 152.189 11.7256C154.479 9.4336 157.586 8.146 160.825 8.146H177.337V10.2906C177.339 12.9593 178.399 15.5182 180.284 17.4052C182.17 19.2922 184.727 20.3528 187.394 20.354H243.536C246.199 20.3481 248.751 19.2853 250.632 17.3987C252.513 15.512 253.57 12.9558 253.57 10.2906V8.16829H271.174C274.41 8.16828 277.513 9.45283 279.802 11.74C282.092 14.0271 283.382 17.1299 283.387 20.3674Z" fill="white"/>
<path d="M104.446 152.614C103.794 152.362 103.094 152.255 102.396 152.302C101.698 152.349 101.018 152.549 100.405 152.887C99.7928 153.226 99.2617 153.694 98.8496 154.26C98.4375 154.826 98.1544 155.476 98.0202 156.163L58.6968 177.559L65.6107 185.346L102.13 161.894C103.298 162.043 104.481 161.758 105.454 161.092C106.426 160.427 107.121 159.428 107.407 158.284C107.692 157.14 107.549 155.931 107.003 154.886C106.458 153.841 105.548 153.033 104.446 152.614H104.446Z" fill="#FFB7B7"/>
<path d="M94.4175 306.561L99.3174 303.39L89.4244 282.967L82.1924 287.648L94.4175 306.561Z" fill="#FFB7B7"/>
<path d="M111.711 301.826L96.3105 311.794L92.4618 305.84L102.134 299.579C103.653 298.596 105.501 298.257 107.269 298.637C109.038 299.016 110.584 300.083 111.567 301.604L111.711 301.826L111.711 301.826Z" fill="#2F2E41"/>
<path d="M39.4377 307.299H45.2734L48.0506 284.774H39.4377V307.299Z" fill="#FFB7B7"/>
<path d="M56.5283 312.721H38.1874V305.63H49.707C50.6028 305.63 51.4898 305.807 52.3174 306.15C53.145 306.493 53.897 306.996 54.5304 307.629C55.1638 308.263 55.6663 309.016 56.0091 309.844C56.3519 310.672 56.5283 311.56 56.5283 312.456V312.721Z" fill="#2F2E41"/>
<path d="M173.327 44.1381H161.296C161.001 44.1381 160.717 44.0206 160.509 43.8116C160.3 43.6025 160.182 43.319 160.182 43.0234C160.182 42.7277 160.3 42.4442 160.509 42.2352C160.717 42.0261 161.001 41.9087 161.296 41.9087H173.327C173.622 41.9087 173.905 42.0261 174.114 42.2352C174.323 42.4442 174.44 42.7277 174.44 43.0234C174.44 43.319 174.323 43.6025 174.114 43.8116C173.905 44.0206 173.622 44.1381 173.327 44.1381Z" fill="#3F3D56"/>
<path d="M173.327 47.2592H161.296C161.001 47.2592 160.717 47.1417 160.509 46.9327C160.3 46.7236 160.182 46.4401 160.182 46.1445C160.182 45.8488 160.3 45.5653 160.509 45.3563C160.717 45.1472 161.001 45.0298 161.296 45.0298H173.327C173.622 45.0298 173.905 45.1472 174.114 45.3563C174.323 45.5653 174.44 45.8488 174.44 46.1445C174.44 46.4401 174.323 46.7236 174.114 46.9327C173.905 47.1417 173.622 47.2592 173.327 47.2592Z" fill="#3F3D56"/>
<path d="M173.327 50.3802H161.296C161.001 50.3802 160.717 50.2628 160.509 50.0538C160.3 49.8447 160.182 49.5612 160.182 49.2656C160.182 48.9699 160.3 48.6864 160.509 48.4774C160.717 48.2683 161.001 48.1509 161.296 48.1509H173.327C173.622 48.1509 173.905 48.2683 174.114 48.4774C174.323 48.6864 174.44 48.9699 174.44 49.2656C174.44 49.5612 174.323 49.8447 174.114 50.0538C173.905 50.2628 173.622 50.3802 173.327 50.3802Z" fill="#3F3D56"/>
<path d="M266.58 47.2814H266.175L266.019 47.1521C266.531 46.5412 266.812 45.7692 266.812 44.9718C266.809 44.3157 266.611 43.6754 266.244 43.1318C265.876 42.5883 265.356 42.1659 264.749 41.9181C264.142 41.6703 263.475 41.6082 262.833 41.7396C262.191 41.8711 261.602 42.1902 261.141 42.6566C260.679 43.123 260.367 43.7158 260.242 44.36C260.118 45.0042 260.187 45.6708 260.441 46.2756C260.695 46.8804 261.123 47.3962 261.67 47.7578C262.217 48.1193 262.859 48.3104 263.515 48.3069C264.31 48.3013 265.078 48.0209 265.689 47.5133L265.841 47.6426V48.0528L268.398 50.6165L269.165 49.8496L266.58 47.2814ZM263.515 47.2814C263.058 47.2832 262.612 47.1494 262.231 46.8971C261.851 46.6448 261.553 46.2853 261.377 45.8639C261.201 45.4426 261.153 44.9783 261.241 44.53C261.328 44.0816 261.546 43.6692 261.868 43.345C262.189 43.0207 262.6 42.7992 263.047 42.7083C263.494 42.6175 263.959 42.6614 264.381 42.8346C264.803 43.0078 265.165 43.3024 265.42 43.6812C265.675 44.06 265.812 44.5061 265.814 44.9629L265.814 44.9718C265.816 45.2733 265.758 45.5723 265.645 45.8515C265.531 46.1308 265.363 46.3849 265.151 46.5994C264.94 46.8138 264.688 46.9845 264.41 47.1015C264.132 47.2185 263.834 47.2796 263.533 47.2814C263.527 47.2814 263.521 47.2814 263.515 47.2814H263.515Z" fill="#3F3D56"/>
<path d="M197.835 85.1586H176.223C174.923 85.1586 173.676 84.6419 172.757 83.7221C171.838 82.8023 171.321 81.5548 171.321 80.254C171.321 78.9532 171.838 77.7057 172.757 76.7859C173.676 75.8661 174.923 75.3494 176.223 75.3494H197.835C199.135 75.3494 200.382 75.8661 201.301 76.7859C202.22 77.7057 202.736 78.9532 202.736 80.254C202.736 81.5548 202.22 82.8023 201.301 83.7221C200.382 84.6419 199.135 85.1586 197.835 85.1586Z" fill="#FFC700"/>
<path d="M264 95.8595H173.995C173.286 95.8595 172.606 95.5777 172.104 95.076C171.603 94.5743 171.321 93.8938 171.321 93.1843C171.321 92.4748 171.603 91.7943 172.104 91.2926C172.606 90.7909 173.286 90.509 173.995 90.509H264C264.709 90.509 265.389 90.7909 265.89 91.2926C266.392 91.7943 266.673 92.4748 266.673 93.1843C266.673 93.8938 266.392 94.5743 265.89 95.076C265.389 95.5777 264.709 95.8595 264 95.8595Z" fill="#E6E6E6"/>
<path d="M207.056 106.56H173.995C173.286 106.56 172.606 106.279 172.104 105.777C171.603 105.275 171.321 104.595 171.321 103.885C171.321 103.176 171.603 102.495 172.104 101.994C172.606 101.492 173.286 101.21 173.995 101.21H207.056C207.765 101.21 208.445 101.492 208.947 101.994C209.448 102.495 209.73 103.176 209.73 103.885C209.73 104.595 209.448 105.275 208.947 105.777C208.445 106.279 207.765 106.56 207.056 106.56Z" fill="#E6E6E6"/>
<path d="M197.835 203.761H176.223C174.923 203.761 173.676 203.244 172.757 202.324C171.838 201.405 171.321 200.157 171.321 198.856C171.321 197.555 171.838 196.308 172.757 195.388C173.676 194.468 174.923 193.952 176.223 193.952H197.835C199.135 193.952 200.382 194.468 201.301 195.388C202.22 196.308 202.736 197.555 202.736 198.856C202.736 200.157 202.22 201.405 201.301 202.324C200.382 203.244 199.135 203.761 197.835 203.761Z" fill="#FFC700"/>
<path d="M264 214.462H173.995C173.286 214.462 172.606 214.18 172.104 213.678C171.603 213.177 171.321 212.496 171.321 211.787C171.321 211.077 171.603 210.397 172.104 209.895C172.606 209.393 173.286 209.111 173.995 209.111H264C264.709 209.111 265.389 209.393 265.89 209.895C266.392 210.397 266.673 211.077 266.673 211.787C266.673 212.496 266.392 213.177 265.89 213.678C265.389 214.18 264.709 214.462 264 214.462Z" fill="#E6E6E6"/>
<path d="M207.056 225.163H173.995C173.286 225.163 172.606 224.881 172.104 224.379C171.603 223.878 171.321 223.197 171.321 222.488C171.321 221.778 171.603 221.098 172.104 220.596C172.606 220.094 173.286 219.812 173.995 219.812H207.056C207.765 219.812 208.445 220.094 208.947 220.596C209.448 221.098 209.73 221.778 209.73 222.488C209.73 223.197 209.448 223.878 208.947 224.379C208.445 224.881 207.765 225.163 207.056 225.163Z" fill="#E6E6E6"/>
<path d="M197.835 258.603H176.223C174.923 258.603 173.676 258.086 172.757 257.167C171.838 256.247 171.321 254.999 171.321 253.699C171.321 252.398 171.838 251.15 172.757 250.23C173.676 249.311 174.923 248.794 176.223 248.794H197.835C199.135 248.794 200.382 249.311 201.301 250.23C202.22 251.15 202.736 252.398 202.736 253.699C202.736 254.999 202.22 256.247 201.301 257.167C200.382 258.086 199.135 258.603 197.835 258.603Z" fill="#FFC700"/>
<path d="M264 269.305H173.995C173.286 269.305 172.606 269.023 172.104 268.521C171.603 268.019 171.321 267.339 171.321 266.629C171.321 265.92 171.603 265.239 172.104 264.738C172.606 264.236 173.286 263.954 173.995 263.954H264C264.709 263.954 265.389 264.236 265.89 264.738C266.392 265.239 266.673 265.92 266.673 266.629C266.673 267.339 266.392 268.019 265.89 268.521C265.389 269.023 264.709 269.305 264 269.305Z" fill="#E6E6E6"/>
<path d="M207.056 280.005H173.995C173.286 280.005 172.606 279.723 172.104 279.222C171.603 278.72 171.321 278.04 171.321 277.33C171.321 276.621 171.603 275.94 172.104 275.438C172.606 274.937 173.286 274.655 173.995 274.655H207.056C207.765 274.655 208.445 274.937 208.947 275.438C209.448 275.94 209.73 276.621 209.73 277.33C209.73 278.04 209.448 278.72 208.947 279.222C208.445 279.723 207.765 280.005 207.056 280.005Z" fill="#E6E6E6"/>
<path d="M276.699 175.894H104.709C103.705 175.893 102.742 175.493 102.032 174.782C101.322 174.072 100.923 173.109 100.922 172.104V125.287C100.923 124.282 101.322 123.319 102.032 122.608C102.742 121.898 103.705 121.498 104.709 121.497H276.699C277.703 121.498 278.665 121.898 279.375 122.608C280.085 123.319 280.485 124.282 280.486 125.287V172.104C280.485 173.109 280.085 174.072 279.375 174.782C278.665 175.493 277.703 175.892 276.699 175.894Z" fill="#FFC700"/>
<path d="M42.8779 231.592C44.522 243.136 35.8156 294.278 36.7825 294.273L49.2852 294.206C49.7307 293.35 55.4697 265.755 57.2698 261.328C59.7828 255.183 62.3181 248.964 63.3072 242.4C64.2385 236.238 63.7795 229.96 63.1736 223.758C63.2017 223.574 63.1856 223.385 63.1266 223.208C63.0676 223.031 62.9674 222.871 62.8342 222.74C62.7011 222.609 62.5387 222.512 62.3607 222.457C62.1826 222.401 61.9939 222.389 61.8101 222.421L45.0344 221.556C41.5768 221.377 40.7569 220.619 41.2827 224.017C41.6481 226.554 42.5125 229.024 42.8779 231.592Z" fill="#2F2E41"/>
<path d="M46.175 203.524C42.7663 208.429 39.1929 214.074 40.3246 219.946C41.1846 224.405 44.5798 227.86 47.7835 231.093C60.5891 243.961 85.8396 300.738 85.8396 300.738C98.0252 292.936 85.5492 300.961 97.9145 292.713C96.8184 292.628 71.9155 203.047 69.8525 202.927C61.507 202.374 54.3066 201.558 46.175 203.524Z" fill="#2F2E41"/>
<path d="M59.6571 156.842C57.9258 155.297 45.7588 150.532 45.7588 150.532C45.5351 150.502 45.3081 150.509 45.0865 150.552C44.3941 150.727 44.0782 151.588 44.2261 152.284C44.374 152.981 43.1606 164.423 42.848 169.626C42.3001 178.708 47.6444 199.278 47.5973 199.907C47.4142 202.151 46.4326 204.254 44.8311 205.834C45.2473 206.351 71.6834 207.388 73.4816 208C73.8446 207.539 71.4346 174.91 71.3237 173.067C71.1388 170.269 61.9427 158.961 59.6571 156.842Z" fill="#E6E6E6"/>
<path d="M40.8019 227.641C41.4283 227.329 41.9788 226.884 42.4146 226.336C42.8504 225.788 43.1608 225.151 43.324 224.47C43.4872 223.789 43.4992 223.081 43.3591 222.394C43.2191 221.708 42.9305 221.061 42.5135 220.499L53.6675 158.728L43.2589 158.59L35.5132 219.674C34.6155 220.438 34.0289 221.504 33.8645 222.672C33.7001 223.839 33.9694 225.026 34.6213 226.008C35.2732 226.99 36.2624 227.699 37.4015 228C38.5406 228.301 39.7505 228.173 40.8019 227.641H40.8019Z" fill="#FFB7B7"/>
<path d="M40.7124 163.311C40.2783 163.343 39.8459 163.23 39.4826 162.99C38.8633 162.46 43.916 154.34 44.9141 154.22C48.1623 153.845 51.5041 153.72 54.6542 154.599C57.8044 155.477 60.7675 157.475 62.1755 160.431C62.7636 161.661 58.4995 167.855 56.5613 166.945C54.2399 165.857 43.769 163.387 40.7124 163.311Z" fill="#E6E6E6"/>
<path d="M52.1771 149.867C58.6339 149.867 63.8683 144.629 63.8683 138.167C63.8683 131.706 58.6339 126.468 52.1771 126.468C45.7202 126.468 40.4858 131.706 40.4858 138.167C40.4858 144.629 45.7202 149.867 52.1771 149.867Z" fill="#FFB7B7"/>
<path d="M40.6937 157.511C42.3183 157.681 43.9597 157.441 45.4675 156.812C46.9754 156.184 48.3016 155.187 49.3249 153.912C50.3482 152.638 51.0359 151.128 51.325 149.519C51.6141 147.91 51.4955 146.254 50.9799 144.703C50.5146 143.303 49.7369 142.02 49.3109 140.608C48.8848 139.196 48.8732 137.526 49.8182 136.394C51.6672 134.179 55.2309 135.572 58.0814 135.132C61.1187 134.663 63.4488 131.747 63.6919 128.681C63.935 125.615 62.3381 122.581 59.961 120.632C57.5838 118.683 54.518 117.723 51.4595 117.423C47.5315 117.036 43.5703 117.669 39.9574 119.258C36.3444 120.848 33.2014 123.342 30.8309 126.5C28.4604 129.658 26.9422 133.373 26.4227 137.289C25.9032 141.204 26.3997 145.187 27.8645 148.854C29.1423 152.054 31.2295 155.034 34.1942 156.786C37.1588 158.538 41.0744 158.875 44.0291 157.106" fill="#2F2E41"/>
<path d="M165.875 142.899H135.998C134.101 142.899 132.557 140.699 132.557 137.994C132.557 135.29 134.101 133.09 135.998 133.09H165.875C167.773 133.09 169.316 135.29 169.316 137.994C169.316 140.699 167.773 142.899 165.875 142.899Z" fill="white"/>
<path d="M246.177 153.6H135.23C134.521 153.6 133.841 153.318 133.34 152.816C132.839 152.315 132.557 151.634 132.557 150.925C132.557 150.215 132.839 149.535 133.34 149.033C133.841 148.531 134.521 148.25 135.23 148.25H246.177C246.886 148.25 247.566 148.531 248.068 149.033C248.569 149.535 248.851 150.215 248.851 150.925C248.851 151.634 248.569 152.315 248.068 152.816C247.566 153.318 246.886 153.6 246.177 153.6Z" fill="#E6E6E6"/>
<path d="M189.233 164.301H135.23C134.521 164.301 133.841 164.019 133.34 163.518C132.839 163.016 132.557 162.335 132.557 161.626C132.557 160.916 132.839 160.236 133.34 159.734C133.841 159.233 134.521 158.951 135.23 158.951H189.233C189.942 158.951 190.622 159.233 191.124 159.734C191.625 160.236 191.907 160.916 191.907 161.626C191.907 162.335 191.625 163.016 191.124 163.518C190.622 164.019 189.942 164.301 189.233 164.301Z" fill="#E6E6E6"/>
</g>
<defs>
<clipPath id="clip0_274_2713">
<rect width="352" height="313" fill="white"/>
</clipPath>
</defs>
</svg>
