<svg width="313" height="274" viewBox="0 0 313 274" fill="none" xmlns="http://www.w3.org/2000/svg">
<g clip-path="url(#clip0_34_372)">
<path d="M52.7854 243.118C42.5026 248.669 38.0884 260.45 38.0884 260.45C38.0884 260.45 50.3459 263.231 60.6288 257.68C70.9116 252.129 75.3258 240.349 75.3258 240.349C75.3258 240.349 63.0683 237.567 52.7854 243.118Z" fill="#1A5D57"/>
<path d="M56.1683 246.934C50.1458 256.955 38.1832 260.815 38.1832 260.815C38.1832 260.815 35.9852 248.426 42.0078 238.405C48.0304 228.383 59.9929 224.523 59.9929 224.523C59.9929 224.523 62.1909 236.912 56.1683 246.934Z" fill="#1A5D57"/>
<path d="M246.485 19.2839H210V40.9108H246.485V19.2839Z" fill="#2F2E41"/>
<path d="M173.855 22.7713H155.044V16.2045C155.044 13.7072 156.035 11.3122 157.799 9.54642C159.563 7.7806 161.955 6.78857 164.45 6.78857C166.944 6.78857 169.336 7.7806 171.1 9.54642C172.864 11.3122 173.855 13.7072 173.855 16.2045V22.7713ZM155.461 22.3543H173.439V16.2045C173.439 13.8178 172.492 11.5289 170.806 9.84124C169.12 8.1536 166.834 7.20551 164.45 7.20551C162.066 7.20551 159.779 8.1536 158.094 9.84124C156.408 11.5289 155.461 13.8178 155.461 16.2045V22.3543Z" fill="#3F3D56"/>
<path d="M183.156 21.8681V19.3018L135.318 20.585L133.804 85.5904L140.884 94.3459L183.156 21.8681Z" fill="#3F3D56"/>
<path d="M191.625 20.9646L139.774 22.1459L140.884 94.3459L190.923 88.9464L191.625 20.9646Z" fill="#1A5D57"/>
<path d="M235.709 254.887H229.823L227.023 232.16H235.71L235.709 254.887Z" fill="#B46F6F"/>
<path d="M237.209 260.598L218.232 260.597V260.357C218.232 258.396 219.011 256.515 220.396 255.128C221.781 253.742 223.66 252.963 225.619 252.962H225.619L237.21 252.963L237.209 260.598Z" fill="#2F2E41"/>
<path d="M214.106 254.887H208.22L205.421 232.16H214.107L214.106 254.887Z" fill="#B46F6F"/>
<path d="M215.607 260.598L196.63 260.597V260.357C196.63 258.396 197.408 256.515 198.793 255.128C200.178 253.742 202.057 252.963 204.016 252.962H204.016L215.607 252.963L215.607 260.598Z" fill="#2F2E41"/>
<path d="M196.822 112.584C196.822 112.584 188.222 131.123 195.991 168.439C203.76 205.755 203.824 246.723 203.824 246.723L215.702 246.916L222.375 158.717L225.869 245.671H237.572L247.886 160.092C247.886 160.092 254.673 121.878 239.537 115.036L196.822 112.584Z" fill="#2F2E41"/>
<path d="M237.982 47.1587L211.974 44.7585C203.817 50.71 199.24 61.3992 200.179 72.4282C201.454 87.3817 201.022 107.961 190.798 116.901C190.798 116.901 218.665 138.92 243.42 118.03C243.42 118.03 234.955 95.3279 240.767 86.2619C246.579 77.1959 248.675 51.7244 237.982 47.1587Z" fill="#E4E4E4"/>
<path d="M160.594 10.2086C160.514 10.9592 160.599 11.7181 160.844 12.4319C161.089 13.1458 161.487 13.7972 162.011 14.3403C162.535 14.8833 163.171 15.3049 163.875 15.5752C164.579 15.8455 165.333 15.958 166.085 15.9048L200.426 47.9883L206.58 38.6024L170.89 10.0167C170.717 8.75781 170.088 7.60619 169.124 6.78006C168.159 5.95393 166.926 5.51069 165.656 5.53435C164.387 5.558 163.171 6.0469 162.238 6.9084C161.305 7.7699 160.72 8.94414 160.594 10.2086Z" fill="#B46F6F"/>
<path d="M194.013 43.0321L202.16 34.6545C202.391 34.4161 202.672 34.2306 202.982 34.1105C203.292 33.9904 203.624 33.9385 203.955 33.9585C204.287 33.9785 204.611 34.0698 204.904 34.2262C205.197 34.3826 205.453 34.6005 205.655 34.865L212.717 44.1321C213.929 45.3263 214.618 46.9526 214.633 48.6545C214.648 50.3564 213.989 51.995 212.8 53.211C211.61 54.427 209.988 55.1213 208.288 55.1416C206.588 55.1618 204.949 54.5065 203.731 53.3192L194.317 46.5243C194.048 46.3297 193.823 46.0792 193.659 45.7899C193.495 45.5006 193.395 45.1793 193.366 44.8479C193.337 44.5165 193.38 44.1828 193.492 43.8694C193.603 43.5561 193.781 43.2705 194.013 43.0321V43.0321Z" fill="#E4E4E4"/>
<path d="M288.173 88.3394C288.211 87.5856 288.084 86.8326 287.8 86.1335C287.515 85.4344 287.082 84.8061 286.529 84.293C285.976 83.7799 285.317 83.3944 284.599 83.1636C283.881 82.9329 283.122 82.8625 282.374 82.9575L246.306 52.8335L240.682 62.5473L277.904 89.1037C278.146 90.351 278.838 91.4659 279.846 92.2371C280.855 93.0083 282.112 93.3823 283.378 93.2881C284.643 93.1939 285.831 92.6381 286.715 91.726C287.599 90.8139 288.118 89.609 288.173 88.3394Z" fill="#B46F6F"/>
<path d="M252.984 57.4254L245.315 66.2432C245.097 66.4941 244.827 66.695 244.524 66.8321C244.221 66.9693 243.893 67.0395 243.56 67.038C243.228 67.0365 242.9 66.9633 242.599 66.8234C242.297 66.6836 242.029 66.4803 241.813 66.2275L234.247 57.3674C232.971 56.2425 232.193 54.657 232.083 52.9585C231.973 51.26 232.541 49.5871 233.661 48.3067C234.781 47.0263 236.363 46.2429 238.059 46.1282C239.755 46.0134 241.428 46.5768 242.71 47.6948L252.487 53.9555C252.766 54.1349 253.004 54.3725 253.184 54.6522C253.364 54.9319 253.482 55.2471 253.529 55.5764C253.576 55.9057 253.552 56.2413 253.458 56.5604C253.364 56.8795 253.202 57.1745 252.984 57.4254Z" fill="#E4E4E4"/>
<path d="M291.838 101.077H277.589V96.1028C277.589 94.2112 278.34 92.397 279.676 91.0595C281.012 89.7219 282.824 88.9705 284.714 88.9705C286.603 88.9705 288.415 89.7219 289.751 91.0595C291.087 92.397 291.838 94.2112 291.838 96.1028L291.838 101.077ZM277.905 100.761H291.522V96.1028C291.522 94.2949 290.805 92.5611 289.528 91.2828C288.251 90.0045 286.519 89.2863 284.714 89.2863C282.908 89.2863 281.176 90.0045 279.899 91.2828C278.622 92.5611 277.905 94.2949 277.905 96.1028V100.761Z" fill="#3F3D56"/>
<path d="M298.883 100.393V98.4487L262.647 99.421L261.5 148.66L266.863 155.293L298.883 100.393Z" fill="#3F3D56"/>
<path d="M305.298 99.7083L266.022 100.603L266.863 155.293L304.767 151.203L305.298 99.7083Z" fill="#1A5D57"/>
<path d="M226.803 40.4303C235.287 40.4303 242.164 33.5448 242.164 25.0512C242.164 16.5576 235.287 9.67212 226.803 9.67212C218.318 9.67212 211.441 16.5576 211.441 25.0512C211.441 33.5448 218.318 40.4303 226.803 40.4303Z" fill="#B46F6F"/>
<path d="M219.73 18.197C225.044 23.4107 234.292 23.9104 240.136 19.2996C241.758 24.9001 241.936 30.8208 240.652 36.5087C239.369 42.1965 236.666 47.4658 232.797 51.8244C236.048 53.0003 239.79 52.2267 242.695 50.3525C245.601 48.4783 247.753 45.6166 249.377 42.5618C253.397 34.9999 254.403 25.7663 251.559 17.6872C248.715 9.60797 241.902 2.90866 233.624 0.73937C225.347 -1.42992 215.856 1.24969 210.325 7.78617C204.542 14.6213 203.605 24.6365 206.139 33.2272C208.674 41.8179 214.232 49.1954 220.339 55.7419C217.406 48.1906 215.461 40.291 214.552 32.24C214.241 29.4826 214.06 26.6404 214.838 23.9772C215.616 21.314 217.531 18.8333 220.2 18.085" fill="#2F2E41"/>
<path d="M312.52 261.504H129.617C129.489 261.504 129.367 261.454 129.277 261.364C129.187 261.274 129.136 261.151 129.136 261.024C129.136 260.896 129.187 260.774 129.277 260.684C129.367 260.594 129.489 260.543 129.617 260.543H312.52C312.647 260.543 312.769 260.594 312.859 260.684C312.949 260.774 313 260.896 313 261.024C313 261.151 312.949 261.274 312.859 261.364C312.769 261.454 312.647 261.504 312.52 261.504Z" fill="#1A5D57"/>
<path d="M78.25 261.504H0.480061C0.352741 261.504 0.230643 261.454 0.140614 261.364C0.0505847 261.274 0 261.151 0 261.024C0 260.896 0.0505847 260.774 0.140614 260.684C0.230643 260.594 0.352741 260.543 0.480061 260.543H78.25C78.3773 260.543 78.4994 260.594 78.5895 260.684C78.6795 260.774 78.7301 260.896 78.7301 261.024C78.7301 261.151 78.6795 261.274 78.5895 261.364C78.4994 261.454 78.3773 261.504 78.25 261.504Z" fill="#1A5D57"/>
<path d="M284.157 219.784H269.908V214.81C269.908 212.918 270.659 211.104 271.995 209.767C273.331 208.429 275.143 207.678 277.033 207.678C278.922 207.678 280.734 208.429 282.07 209.767C283.406 211.104 284.157 212.918 284.157 214.81L284.157 219.784ZM270.224 219.468H283.841V214.81C283.841 213.002 283.124 211.268 281.847 209.99C280.57 208.712 278.838 207.994 277.033 207.994C275.227 207.994 273.495 208.712 272.218 209.99C270.941 211.268 270.224 213.002 270.224 214.81V219.468Z" fill="#1A5D57"/>
<path d="M291.202 219.1V217.156L254.966 218.128L253.819 267.368L259.182 274L291.202 219.1Z" fill="#3F3D56"/>
<path d="M297.617 218.416L258.341 219.31L259.182 274L297.085 269.91L297.617 218.416Z" fill="#1A5D57"/>
<circle cx="165.687" cy="61.6873" r="7.55944" transform="rotate(-2.4413 165.687 61.6873)" stroke="#28534F" stroke-width="15"/>
<circle cx="165.867" cy="65.9038" r="7.5" transform="rotate(-2.4413 165.867 65.9038)" stroke="#28534F" stroke-width="6.67792"/>
<circle cx="165.507" cy="57.4707" r="7.5" transform="rotate(-2.4413 165.507 57.4707)" stroke="#28534F" stroke-width="6.67792"/>
<path fill-rule="evenodd" clip-rule="evenodd" d="M161.646 55.9173C161.431 56.4502 161.324 57.0364 161.35 57.6477C161.448 59.9437 163.389 61.7257 165.685 61.6278C167.981 61.5299 169.763 59.5893 169.665 57.2933C169.639 56.6819 169.482 56.1069 169.223 55.5943C172.056 56.5169 174.393 58.5798 175.665 61.2617C174.626 64.0423 172.473 66.2965 169.728 67.457C169.943 66.9241 170.05 66.3379 170.024 65.7266C169.926 63.4306 167.986 61.6487 165.69 61.7465C163.394 61.8444 161.612 63.7851 161.71 66.081C161.736 66.6924 161.893 67.2674 162.152 67.7801C159.318 66.8574 156.982 64.7946 155.71 62.1126C156.749 59.332 158.901 57.0778 161.646 55.9173Z" fill="#FAF9F9"/>
<circle cx="285.687" cy="126.687" r="7.55944" transform="rotate(-2.4413 285.687 126.687)" stroke="#28534F" stroke-width="15"/>
<circle cx="285.867" cy="130.904" r="7.5" transform="rotate(-2.4413 285.867 130.904)" stroke="#28534F" stroke-width="6.67792"/>
<circle cx="285.508" cy="122.471" r="7.5" transform="rotate(-2.4413 285.508 122.471)" stroke="#28534F" stroke-width="6.67792"/>
<path fill-rule="evenodd" clip-rule="evenodd" d="M281.646 120.917C281.431 121.45 281.324 122.036 281.35 122.648C281.448 124.944 283.389 126.726 285.685 126.628C287.981 126.53 289.763 124.589 289.665 122.293C289.639 121.682 289.482 121.107 289.223 120.594C292.056 121.517 294.393 123.58 295.665 126.262C294.626 129.042 292.473 131.296 289.728 132.457C289.943 131.924 290.05 131.338 290.024 130.727C289.926 128.431 287.986 126.649 285.69 126.747C283.394 126.844 281.612 128.785 281.71 131.081C281.736 131.692 281.893 132.267 282.152 132.78C279.318 131.857 276.982 129.795 275.71 127.113C276.749 124.332 278.901 122.078 281.646 120.917Z" fill="#FAF9F9"/>
</g>
<defs>
<clipPath id="clip0_34_372">
<rect width="313" height="274" fill="white"/>
</clipPath>
</defs>
</svg>

