<svg width="86" height="86" viewBox="0 0 86 86" fill="none" xmlns="http://www.w3.org/2000/svg">
<path d="M18.8125 31.7112C18.8125 31.7112 23.6756 37.0425 43.128 37.0425C62.5804 37.0425 67.4435 31.7112 67.4435 31.7112L60.2296 69.4957C60.1759 69.7768 60.0897 70.0508 59.9231 70.2834C59.062 71.4858 55.3871 75.2501 43.128 75.2501C30.8688 75.2501 27.194 71.4858 26.3329 70.2834C26.1663 70.0508 26.08 69.7768 26.0264 69.4958L18.8125 31.7112Z" fill="#F47A53"/>
<path fill-rule="evenodd" clip-rule="evenodd" d="M18.0105 30.1091C18.7178 29.7551 19.572 29.9071 20.1138 30.4798C20.1148 30.4807 20.116 30.4819 20.1175 30.4834C20.1309 30.4964 20.1649 30.5284 20.2219 30.577C20.3357 30.6741 20.5422 30.8378 20.8609 31.0474C21.4976 31.4663 22.5881 32.072 24.2905 32.6941C27.6982 33.9394 33.5608 35.2509 43.128 35.2509C52.6952 35.2509 58.5577 33.9394 61.9654 32.6941C63.6678 32.072 64.7583 31.4663 65.395 31.0474C65.7137 30.8378 65.9202 30.6741 66.034 30.577C66.091 30.5284 66.125 30.4964 66.1384 30.4834C66.1399 30.4819 66.1411 30.4807 66.1421 30.4798C66.6839 29.9071 67.5381 29.7551 68.2454 30.1091C68.9624 30.468 69.3537 31.2597 69.2033 32.0473L61.9894 69.8319C61.9131 70.2319 61.7613 70.7938 61.3797 71.3267C60.0782 73.144 55.7597 77.0419 43.128 77.0419C30.4962 77.0419 26.1777 73.144 24.8762 71.3267C24.4946 70.7938 24.3428 70.2319 24.2665 69.8319L17.0526 32.0473C16.9022 31.2597 17.2935 30.468 18.0105 30.1091ZM65.3432 33.158C66.8734 32.3362 67.4434 31.7113 67.4434 31.7113L60.2296 69.4959C60.1759 69.7769 60.0897 70.0509 59.9231 70.2835C59.0619 71.4859 55.3871 75.2502 43.128 75.2502C30.8688 75.2502 27.194 71.4859 26.3328 70.2835C26.1662 70.0509 26.08 69.7769 26.0264 69.4959L18.8125 31.7113C18.8125 31.7113 19.3825 32.3362 20.9127 33.158C23.8523 34.7368 30.3352 37.0426 43.128 37.0426C55.9207 37.0426 62.4037 34.7368 65.3432 33.158Z" fill="#C1461E"/>
<path d="M39.4455 75.1261C40.5775 75.2061 41.8026 75.2501 43.128 75.2501C44.4534 75.2501 45.6784 75.2061 46.8104 75.1261L48.9685 36.8671C47.1858 36.9794 45.2431 37.0425 43.128 37.0425C41.0128 37.0425 39.0701 36.9794 37.2874 36.8671L39.4455 75.1261Z" fill="#FFE4C4"/>
<path d="M60.2296 69.4958L67.4435 31.7112C67.4435 31.7112 64.7726 34.6392 55.472 36.1554L53.0156 74.1585C57.5946 72.9502 59.3599 71.0697 59.923 70.2836C60.0896 70.051 60.1759 69.7768 60.2296 69.4958Z" fill="#E25F35"/>
<path d="M26.0211 69.5027L18.8073 31.7181C18.8073 31.7181 20.2689 33.3205 24.7947 34.7683L30.0494 73.0469C27.7728 72.0016 26.7358 70.86 26.3281 70.291C26.1614 70.0584 26.0748 69.7838 26.0211 69.5027Z" fill="#FFAA8F"/>
<path d="M60.2296 69.4957L67.4435 31.7112C67.4435 31.7112 65.9818 33.3135 61.456 34.7613L56.2014 73.04C58.4779 71.9947 59.515 70.853 59.9227 70.284C60.0893 70.0514 60.1759 69.7768 60.2296 69.4957Z" fill="#EE8E59"/>
<path fill-rule="evenodd" clip-rule="evenodd" d="M28.6904 40.9121C29.1868 40.889 29.6412 41.2661 29.7054 41.7544L31.4131 54.7441C31.4773 55.2324 31.1269 55.6471 30.6305 55.6702C30.1341 55.6934 29.6796 55.3163 29.6154 54.8279L27.9078 41.8383C27.8436 41.3499 28.194 40.9352 28.6904 40.9121Z" fill="#FFE6DF"/>
<path d="M54.5278 71.092C54.5278 71.9917 53.7328 72.721 52.7521 72.721C51.7714 72.721 50.9764 71.9917 50.9764 71.092C50.9764 70.1923 51.7714 69.463 52.7521 69.463C53.7328 69.463 54.5278 70.1923 54.5278 71.092Z" fill="#C04923"/>
<path d="M58.901 68.9877C58.901 69.6625 58.3047 70.2095 57.5692 70.2095C56.8337 70.2095 56.2375 69.6625 56.2375 68.9877C56.2375 68.313 56.8337 67.766 57.5692 67.766C58.3047 67.766 58.901 68.313 58.901 68.9877Z" fill="#C04923"/>
<path d="M55.2917 66.6124C55.2917 67.2871 54.6955 67.8341 53.96 67.8341C53.2245 67.8341 52.6282 67.2871 52.6282 66.6124C52.6282 65.9376 53.2245 65.3906 53.96 65.3906C54.6955 65.3906 55.2917 65.9376 55.2917 66.6124Z" fill="#C04923"/>
<path d="M60.6186 60.9106C60.6186 61.5854 60.0224 62.1324 59.2869 62.1324C58.5514 62.1324 57.9551 61.5854 57.9551 60.9106C57.9551 60.2358 58.5514 59.6888 59.2869 59.6888C60.0224 59.6888 60.6186 60.2358 60.6186 60.9106Z" fill="#C04923"/>
<path d="M57.0674 62.1325C57.0674 62.5823 56.6699 62.947 56.1796 62.947C55.6892 62.947 55.2917 62.5823 55.2917 62.1325C55.2917 61.6827 55.6892 61.318 56.1796 61.318C56.6699 61.318 57.0674 61.6827 57.0674 62.1325Z" fill="#C04923"/>
<path d="M60.6186 57.2454C60.6186 57.6953 60.2211 58.0599 59.7308 58.0599C59.2405 58.0599 58.843 57.6953 58.843 57.2454C58.843 56.7956 59.2405 56.4309 59.7308 56.4309C60.2211 56.4309 60.6186 56.7956 60.6186 57.2454Z" fill="#C04923"/>
<path d="M59.6568 64.9154C59.6568 65.5901 59.0606 66.1371 58.3251 66.1371C57.5896 66.1371 56.9933 65.5901 56.9933 64.9154C56.9933 64.2406 57.5896 63.6936 58.3251 63.6936C59.0606 63.6936 59.6568 64.2406 59.6568 64.9154Z" fill="#C04923"/>
<path d="M57.9552 57.6527C57.9552 58.3274 57.359 58.8744 56.6235 58.8744C55.888 58.8744 55.2917 58.3274 55.2917 57.6527C55.2917 56.9779 55.888 56.4309 56.6235 56.4309C57.359 56.4309 57.9552 56.9779 57.9552 57.6527Z" fill="#C04923"/>
<path d="M59.7308 53.9874C59.7308 54.4372 59.3333 54.8019 58.843 54.8019C58.3526 54.8019 57.9551 54.4372 57.9551 53.9874C57.9551 53.5375 58.3526 53.1729 58.843 53.1729C59.3333 53.1729 59.7308 53.5375 59.7308 53.9874Z" fill="#C04923"/>
<path d="M49.1269 71.8387C49.1269 72.2885 48.7294 72.6532 48.239 72.6532C47.7487 72.6532 47.3512 72.2885 47.3512 71.8387C47.3512 71.3888 47.7487 71.0242 48.239 71.0242C48.7294 71.0242 49.1269 71.3888 49.1269 71.8387Z" fill="#C04923"/>
<path d="M67.4435 31.7111C67.4435 35.6369 56.5571 38.8195 43.128 38.8195C29.6989 38.8195 18.8125 35.6369 18.8125 31.7111C18.8125 27.7852 29.6989 24.6027 43.128 24.6027C56.5571 24.6027 67.4435 27.7852 67.4435 31.7111Z" fill="#952C0A"/>
<path fill-rule="evenodd" clip-rule="evenodd" d="M60.8243 38.4572C56.2193 39.8034 49.9632 40.6112 43.128 40.6112C36.2927 40.6112 30.0366 39.8034 25.4316 38.4572C23.1409 37.7875 21.1567 36.9556 19.7046 35.9519C18.3072 34.986 17.0208 33.5826 17.0208 31.7111C17.0208 29.8396 18.3072 28.4362 19.7046 27.4703C21.1567 26.4666 23.1409 25.6347 25.4316 24.965C30.0366 23.6188 36.2927 22.811 43.128 22.811C49.9632 22.811 56.2193 23.6188 60.8243 24.965C63.115 25.6347 65.0992 26.4666 66.5513 27.4703C67.9487 28.4362 69.2351 29.8396 69.2351 31.7111C69.2351 33.5826 67.9487 34.986 66.5513 35.9519C65.0992 36.9556 63.115 37.7875 60.8243 38.4572ZM43.128 38.8195C56.557 38.8195 67.4434 35.637 67.4434 31.7111C67.4434 27.7852 56.557 24.6027 43.128 24.6027C29.6989 24.6027 18.8125 27.7852 18.8125 31.7111C18.8125 35.637 29.6989 38.8195 43.128 38.8195Z" fill="#C1461E"/>
<path d="M67.4434 30.8152C67.4434 34.741 56.557 37.9236 43.1279 37.9236C29.6989 37.9236 18.8124 34.741 18.8124 30.8152C18.8124 26.8893 29.6989 23.7068 43.1279 23.7068C56.557 23.7068 67.4434 26.8893 67.4434 30.8152Z" fill="#E09C35"/>
<path d="M39.1367 23.0678C39.1367 26.0982 36.6801 28.5548 33.6497 28.5548C30.6193 28.5548 28.1627 26.0982 28.1627 23.0678C28.1627 20.0374 30.6193 17.5808 33.6497 17.5808C36.6801 17.5808 39.1367 20.0374 39.1367 23.0678Z" fill="#FFF8BB"/>
<path d="M25.8751 31.8766C25.8751 32.8705 25.0694 33.6762 24.0755 33.6762C23.0815 33.6762 22.2758 32.8705 22.2758 31.8766C22.2758 30.8826 23.0815 30.0769 24.0755 30.0769C25.0694 30.0769 25.8751 30.8826 25.8751 31.8766Z" fill="#FFF8BB"/>
<path d="M41.3763 35.264C41.3763 36.2579 40.5705 37.0637 39.5766 37.0637C38.5827 37.0637 37.777 36.2579 37.777 35.264C37.777 34.2701 38.5827 33.4644 39.5766 33.4644C40.5705 33.4644 41.3763 34.2701 41.3763 35.264Z" fill="#FFF8BB"/>
<path d="M61.8945 32.9708C61.8945 33.9647 61.0888 34.7704 60.0949 34.7704C59.101 34.7704 58.2952 33.9647 58.2952 32.9708C58.2952 31.9769 59.101 31.1711 60.0949 31.1711C61.0888 31.1711 61.8945 31.9769 61.8945 32.9708Z" fill="#FFF8BB"/>
<path d="M47.7239 35.264C47.7239 36.2579 46.9181 37.0637 45.9242 37.0637C44.9303 37.0637 44.1246 36.2579 44.1246 35.264C44.1246 34.2701 44.9303 33.4644 45.9242 33.4644C46.9181 33.4644 47.7239 34.2701 47.7239 35.264Z" fill="#FFF8BB"/>
<path d="M29.3745 26.2242C29.3745 29.2545 26.9179 31.7111 23.8875 31.7111C20.8571 31.7111 18.4005 29.2545 18.4005 26.2242C18.4005 23.1938 20.8571 20.7372 23.8875 20.7372C26.9179 20.7372 29.3745 23.1938 29.3745 26.2242Z" fill="#FFF8BB"/>
<path d="M54.6138 21.4091C54.6138 24.4395 52.1572 26.8961 49.1268 26.8961C46.0964 26.8961 43.6398 24.4395 43.6398 21.4091C43.6398 18.3787 46.0964 15.9221 49.1268 15.9221C52.1572 15.9221 54.6138 18.3787 54.6138 21.4091Z" fill="#FFF8BB"/>
<path d="M66.2656 27.6798C66.2656 30.7102 63.809 33.1668 60.7787 33.1668C57.7483 33.1668 55.2917 30.7102 55.2917 27.6798C55.2917 24.6495 57.7483 22.1929 60.7787 22.1929C63.809 22.1929 66.2656 24.6495 66.2656 27.6798Z" fill="#FFF8BB"/>
<path d="M47.3512 23.7068C47.3512 26.7372 44.8945 29.1938 41.8642 29.1938C38.8338 29.1938 36.3772 26.7372 36.3772 23.7068C36.3772 20.6765 38.8338 18.2198 41.8642 18.2198C44.8945 18.2198 47.3512 20.6765 47.3512 23.7068Z" fill="#FFF8BB"/>
<path d="M41.8642 18.1057C41.8642 20.363 40.0343 22.1929 37.7769 22.1929C35.5196 22.1929 33.6897 20.363 33.6897 18.1057C33.6897 15.8484 35.5196 14.0184 37.7769 14.0184C40.0343 14.0184 41.8642 15.8484 41.8642 18.1057Z" fill="#FFF8BB"/>
<path d="M32.7539 30.5633C32.7539 32.9598 30.8112 34.9025 28.4147 34.9025C26.0182 34.9025 24.0755 32.9598 24.0755 30.5633C24.0755 28.1668 26.0182 26.2241 28.4147 26.2241C30.8112 26.2241 32.7539 28.1668 32.7539 30.5633Z" fill="#FFF8BB"/>
<path d="M40.2939 31.1037C40.2939 33.9143 38.0154 36.1927 35.2048 36.1927C32.3942 36.1927 30.1158 33.9143 30.1158 31.1037C30.1158 28.2931 32.3942 26.0146 35.2048 26.0146C38.0154 26.0146 40.2939 28.2931 40.2939 31.1037Z" fill="#FFF8BB"/>
<path d="M60.0949 30.5854C60.0949 33.396 57.8164 35.6744 55.0058 35.6744C52.1952 35.6744 49.9168 33.396 49.9168 30.5854C49.9168 27.7748 52.1952 25.4963 55.0058 25.4963C57.8164 25.4963 60.0949 27.7748 60.0949 30.5854Z" fill="#FFF8BB"/>
<path d="M48.217 31.4405C48.217 34.2511 45.9385 36.5295 43.1279 36.5295C40.3173 36.5295 38.0389 34.2511 38.0389 31.4405C38.0389 28.6299 40.3173 26.3514 43.1279 26.3514C45.9385 26.3514 48.217 28.6299 48.217 31.4405Z" fill="#FFF8BB"/>
<path d="M55.7628 30.3964C55.7628 33.9491 52.8828 36.8292 49.3301 36.8292C45.7773 36.8292 42.8973 33.9491 42.8973 30.3964C42.8973 26.8437 45.7773 23.9636 49.3301 23.9636C52.8828 23.9636 55.7628 26.8437 55.7628 30.3964Z" fill="#FFF8BB"/>
<path d="M31.3941 21.409C31.3941 23.6663 29.5642 25.4963 27.3069 25.4963C25.0496 25.4963 23.2197 23.6663 23.2197 21.409C23.2197 19.1517 25.0496 17.3218 27.3069 17.3218C29.5642 17.3218 31.3941 19.1517 31.3941 21.409Z" fill="#FFF8BB"/>
<path d="M47.4302 18.9806C47.4302 21.2379 45.6002 23.0678 43.3429 23.0678C41.0856 23.0678 39.2557 21.2379 39.2557 18.9806C39.2557 16.7232 41.0856 14.8933 43.3429 14.8933C45.6002 14.8933 47.4302 16.7232 47.4302 18.9806Z" fill="#FFF8BB"/>
<path d="M59.08 21.6681C59.08 23.9254 57.2501 25.7553 54.9928 25.7553C52.7354 25.7553 50.9055 23.9254 50.9055 21.6681C50.9055 19.4107 52.7354 17.5808 54.9928 17.5808C57.2501 17.5808 59.08 19.4107 59.08 21.6681Z" fill="#FFF8BB"/>
<path d="M63.4665 24.6026C63.4665 26.8599 61.6366 28.6899 59.3792 28.6899C57.1219 28.6899 55.292 26.8599 55.292 24.6026C55.292 22.3453 57.1219 20.5154 59.3792 20.5154C61.6366 20.5154 63.4665 22.3453 63.4665 24.6026Z" fill="#FFF8BB"/>
<path d="M66.5897 24.5323C66.5897 26.2571 65.1914 27.6555 63.4665 27.6555C61.7416 27.6555 60.3433 26.2571 60.3433 24.5323C60.3433 22.8074 61.7416 21.4091 63.4665 21.4091C65.1914 21.4091 66.5897 22.8074 66.5897 24.5323Z" fill="#FFF8BB"/>
<path d="M50.7821 17.1416C50.7821 18.8665 49.3838 20.2648 47.6589 20.2648C45.934 20.2648 44.5357 18.8665 44.5357 17.1416C44.5357 15.4167 45.934 14.0184 47.6589 14.0184C49.3838 14.0184 50.7821 15.4167 50.7821 17.1416Z" fill="#FFF8BB"/>
<path d="M34.2865 29.181C34.2865 30.0835 33.5549 30.8152 32.6523 30.8152C31.7498 30.8152 31.0182 30.0835 31.0182 29.181C31.0182 28.2785 31.7498 27.5469 32.6523 27.5469C33.5549 27.5469 34.2865 28.2785 34.2865 29.181Z" fill="#FDD27F"/>
<path d="M47.8039 21.8989C47.8039 22.8014 47.0723 23.5331 46.1698 23.5331C45.2673 23.5331 44.5356 22.8014 44.5356 21.8989C44.5356 20.9964 45.2673 20.2648 46.1698 20.2648C47.0723 20.2648 47.8039 20.9964 47.8039 21.8989Z" fill="#FDD27F"/>
<path d="M57.9551 30.324C57.9551 31.2265 57.2235 31.9581 56.321 31.9581C55.4185 31.9581 54.6868 31.2265 54.6868 30.324C54.6868 29.4215 55.4185 28.6898 56.321 28.6898C57.2235 28.6898 57.9551 29.4215 57.9551 30.324Z" fill="#EEAC2B"/>
<path d="M61.7746 23.5329C61.7746 23.9282 61.4542 24.2486 61.0589 24.2486C60.6637 24.2486 60.3433 23.9282 60.3433 23.5329C60.3433 23.1377 60.6637 22.8173 61.0589 22.8173C61.4542 22.8173 61.7746 23.1377 61.7746 23.5329Z" fill="#EEAC2B"/>
<path d="M63.9582 26.4709C63.9582 26.8662 63.6378 27.1866 63.2425 27.1866C62.8473 27.1866 62.5269 26.8662 62.5269 26.4709C62.5269 26.0757 62.8473 25.7552 63.2425 25.7552C63.6378 25.7552 63.9582 26.0757 63.9582 26.4709Z" fill="#FDD27F"/>
<path d="M64.8978 31.7109C64.8978 32.1062 64.5774 32.4266 64.1821 32.4266C63.7869 32.4266 63.4664 32.1062 63.4664 31.7109C63.4664 31.3157 63.7869 30.9952 64.1821 30.9952C64.5774 30.9952 64.8978 31.3157 64.8978 31.7109Z" fill="#EEAC2B"/>
<path d="M60.8106 32.9707C60.8106 33.3659 60.4902 33.6864 60.0949 33.6864C59.6996 33.6864 59.3792 33.3659 59.3792 32.9707C59.3792 32.5754 59.6996 32.255 60.0949 32.255C60.4902 32.255 60.8106 32.5754 60.8106 32.9707Z" fill="#FDD27F"/>
<path d="M61.3425 28.6899C61.3425 29.0852 61.0221 29.4056 60.6268 29.4056C60.2316 29.4056 59.9111 29.0852 59.9111 28.6899C59.9111 28.2947 60.2316 27.9742 60.6268 27.9742C61.0221 27.9742 61.3425 28.2947 61.3425 28.6899Z" fill="#EEAC2B"/>
<path d="M57.7523 25.0394C57.7523 25.4347 57.4319 25.7551 57.0367 25.7551C56.6414 25.7551 56.321 25.4347 56.321 25.0394C56.321 24.6442 56.6414 24.3237 57.0367 24.3237C57.4319 24.3237 57.7523 24.6442 57.7523 25.0394Z" fill="#FDD27F"/>
<path d="M49.33 34.7246C49.33 35.1199 49.0096 35.4403 48.6144 35.4403C48.2191 35.4403 47.8987 35.1199 47.8987 34.7246C47.8987 34.3293 48.2191 34.0089 48.6144 34.0089C49.0096 34.0089 49.33 34.3293 49.33 34.7246Z" fill="#EEAC2B"/>
<path d="M41.9203 17.8839C41.9203 18.1943 41.6686 18.446 41.3582 18.446C41.0477 18.446 40.7961 18.1943 40.7961 17.8839C40.7961 17.5734 41.0477 17.3218 41.3582 17.3218C41.6686 17.3218 41.9203 17.5734 41.9203 17.8839Z" fill="#FDD27F"/>
<path d="M54.6138 20.2648C54.6138 20.66 54.2934 20.9804 53.8981 20.9804C53.5029 20.9804 53.1824 20.66 53.1824 20.2648C53.1824 19.8695 53.5029 19.5491 53.8981 19.5491C54.2934 19.5491 54.6138 19.8695 54.6138 20.2648Z" fill="#FDD27F"/>
<path d="M48.7825 17.5808C48.7825 17.9761 48.4621 18.2965 48.0668 18.2965C47.6716 18.2965 47.3511 17.9761 47.3511 17.5808C47.3511 17.1855 47.6716 16.8651 48.0668 16.8651C48.4621 16.8651 48.7825 17.1855 48.7825 17.5808Z" fill="#FDD27F"/>
<path d="M51.4978 24.6026C51.4978 24.9979 51.1773 25.3183 50.7821 25.3183C50.3868 25.3183 50.0664 24.9979 50.0664 24.6026C50.0664 24.2074 50.3868 23.887 50.7821 23.887C51.1773 23.887 51.4978 24.2074 51.4978 24.6026Z" fill="#EEAC2B"/>
<path d="M54.6869 26.7303C54.6869 27.1256 54.3664 27.446 53.9712 27.446C53.5759 27.446 53.2555 27.1256 53.2555 26.7303C53.2555 26.3351 53.5759 26.0146 53.9712 26.0146C54.3664 26.0146 54.6869 26.3351 54.6869 26.7303Z" fill="#EEAC2B"/>
<path d="M48.5196 26.4709C48.5196 26.8662 48.1992 27.1866 47.8039 27.1866C47.4087 27.1866 47.0883 26.8662 47.0883 26.4709C47.0883 26.0757 47.4087 25.7552 47.8039 25.7552C48.1992 25.7552 48.5196 26.0757 48.5196 26.4709Z" fill="#FDD27F"/>
<path d="M50.9055 30.2319C50.9055 30.8053 50.4407 31.2702 49.8673 31.2702C49.2939 31.2702 48.8291 30.8053 48.8291 30.2319C48.8291 29.6585 49.2939 29.1937 49.8673 29.1937C50.4407 29.1937 50.9055 29.6585 50.9055 30.2319Z" fill="#FDD27F"/>
<path d="M54.6868 34.0089C54.6868 34.5823 54.222 35.0471 53.6486 35.0471C53.0752 35.0471 52.6104 34.5823 52.6104 34.0089C52.6104 33.4355 53.0752 32.9707 53.6486 32.9707C54.222 32.9707 54.6868 33.4355 54.6868 34.0089Z" fill="#FDD27F"/>
<path d="M41.332 33.197C41.332 33.7704 40.8672 34.2352 40.2938 34.2352C39.7204 34.2352 39.2556 33.7704 39.2556 33.197C39.2556 32.6236 39.7204 32.1588 40.2938 32.1588C40.8672 32.1588 41.332 32.6236 41.332 33.197Z" fill="#FDD27F"/>
<path d="M42.9999 27.4461C42.9999 28.0194 42.5351 28.4843 41.9617 28.4843C41.3883 28.4843 40.9235 28.0194 40.9235 27.4461C40.9235 26.8727 41.3883 26.4078 41.9617 26.4078C42.5351 26.4078 42.9999 26.8727 42.9999 27.4461Z" fill="#FDD27F"/>
<path d="M28.1015 30.8153C28.1015 31.3887 27.6367 31.8535 27.0633 31.8535C26.4899 31.8535 26.0251 31.3887 26.0251 30.8153C26.0251 30.2419 26.4899 29.7771 27.0633 29.7771C27.6367 29.7771 28.1015 30.2419 28.1015 30.8153Z" fill="#FDD27F"/>
<path d="M26.0251 23.887C26.0251 24.4604 25.5603 24.9252 24.9869 24.9252C24.4135 24.9252 23.9487 24.4604 23.9487 23.887C23.9487 23.3136 24.4135 22.8488 24.9869 22.8488C25.5603 22.8488 26.0251 23.3136 26.0251 23.887Z" fill="#FDD27F"/>
<path d="M35.7261 22.4473C35.7261 23.0207 35.2613 23.4855 34.6879 23.4855C34.1145 23.4855 33.6497 23.0207 33.6497 22.4473C33.6497 21.8739 34.1145 21.4091 34.6879 21.4091C35.2613 21.4091 35.7261 21.8739 35.7261 22.4473Z" fill="#FDD27F"/>
<path d="M38.1196 17.3217C38.1196 17.9827 37.5838 18.5185 36.9229 18.5185C36.2619 18.5185 35.7261 17.9827 35.7261 17.3217C35.7261 16.6608 36.2619 16.125 36.9229 16.125C37.5838 16.125 38.1196 16.6608 38.1196 17.3217Z" fill="#FFFFFE"/>
<path d="M46.2272 31.3754C46.2272 31.956 45.7565 32.4267 45.1759 32.4267C44.5953 32.4267 44.1246 31.956 44.1246 31.3754C44.1246 30.7948 44.5953 30.3241 45.1759 30.3241C45.7565 30.3241 46.2272 30.7948 46.2272 31.3754Z" fill="#FFFFFE"/>
<path d="M34.2865 33.1668C34.2865 33.7474 33.8158 34.2181 33.2352 34.2181C32.6546 34.2181 32.1839 33.7474 32.1839 33.1668C32.1839 32.5862 32.6546 32.1155 33.2352 32.1155C33.8158 32.1155 34.2865 32.5862 34.2865 33.1668Z" fill="#FFFFFE"/>
<path d="M38.8283 29.0255C38.8283 29.6061 38.3576 30.0768 37.777 30.0768C37.1964 30.0768 36.7257 29.6061 36.7257 29.0255C36.7257 28.4449 37.1964 27.9742 37.777 27.9742C38.3576 27.9742 38.8283 28.4449 38.8283 29.0255Z" fill="#FFFFFE"/>
<path d="M41.3583 22.1929C41.3583 22.7735 40.8876 23.2442 40.307 23.2442C39.7264 23.2442 39.2557 22.7735 39.2557 22.1929C39.2557 21.6123 39.7264 21.1416 40.307 21.1416C40.8876 21.1416 41.3583 21.6123 41.3583 22.1929Z" fill="#FFFFFE"/>
<path d="M30.2041 25.3001C30.2041 25.8807 29.7335 26.3514 29.1529 26.3514C28.5722 26.3514 28.1016 25.8807 28.1016 25.3001C28.1016 24.7195 28.5722 24.2488 29.1529 24.2488C29.7335 24.2488 30.2041 24.7195 30.2041 25.3001Z" fill="#FFFFFE"/>
<path d="M28.1277 20.0902C28.1277 20.6708 27.657 21.1415 27.0764 21.1415C26.4958 21.1415 26.0251 20.6708 26.0251 20.0902C26.0251 19.5096 26.4958 19.0389 27.0764 19.0389C27.657 19.0389 28.1277 19.5096 28.1277 20.0902Z" fill="#FFFFFE"/>
<path d="M23.6761 28.0098C23.6761 28.7165 23.1032 29.2893 22.3966 29.2893C21.69 29.2893 21.1171 28.7165 21.1171 28.0098C21.1171 27.3032 21.69 26.7303 22.3966 26.7303C23.1032 26.7303 23.6761 27.3032 23.6761 28.0098Z" fill="#FFFFFE"/>
</svg>
