<svg width="86" height="86" viewBox="0 0 86 86" fill="none" xmlns="http://www.w3.org/2000/svg">
<g clip-path="url(#clip0_6_565)">
<path d="M32.9907 16.4255C41.8267 16.2578 49.2708 30.9306 49.5224 44.1801C49.7739 57.4295 42.7762 66.2723 33.9402 66.44C25.1043 66.6078 17.776 58.037 17.5244 44.7876C17.2729 31.5381 24.7122 16.5827 32.9907 16.4255Z" fill="#EDE6CF"/>
<path fill-rule="evenodd" clip-rule="evenodd" d="M46.0355 24.3898C49.1832 29.96 51.1825 37.2331 51.3137 44.146C51.5746 57.8862 44.2335 68.0365 33.9743 68.2313C23.7151 68.4261 15.994 58.5618 15.7331 44.8215C15.6014 37.8839 17.4744 30.5338 20.4749 24.8594C21.9768 22.019 23.7987 19.5274 25.864 17.7138C27.9274 15.902 30.335 14.6839 32.9567 14.6341C38.4104 14.5306 42.9571 18.9423 46.0355 24.3898ZM49.5224 44.18C49.2708 30.9306 41.8267 16.2577 32.9907 16.4255C24.7122 16.5826 17.2729 31.5381 17.5244 44.7875C17.776 58.037 25.1043 66.6077 33.9403 66.44C42.7762 66.2722 49.7739 57.4295 49.5224 44.18Z" fill="#968960"/>
<path fill-rule="evenodd" clip-rule="evenodd" d="M38.41 18.1938C41.7938 23.4242 44.0118 30.807 44.1442 37.7803C44.3862 50.5261 37.6056 59.0337 29.0451 59.1962C25.4789 59.264 22.1663 57.8727 19.4975 55.3047C22.2908 62.3794 27.7449 66.5577 33.9402 66.4401C42.7762 66.2723 49.7739 57.4295 49.5223 44.1801C49.3245 33.7631 44.6807 22.4663 38.41 18.1938Z" fill="#DBD2B2"/>
<path d="M29.5642 24.6244C33.1996 25.3681 28.9057 30.3382 30.5703 35.6094C33.2578 44.1198 28.5583 48.0567 24.9229 47.313C21.2875 46.5693 19.3795 40.8874 20.6611 34.6221C21.9428 28.3569 25.9289 23.8807 29.5642 24.6244Z" fill="#FEF8E3"/>
<path fill-rule="evenodd" clip-rule="evenodd" d="M25.0925 35.4688C24.9716 36.8546 24.9713 38.1077 24.9713 38.5208C24.9713 39.263 24.3697 39.8646 23.6276 39.8646C22.8855 39.8646 22.2838 39.263 22.2838 38.5208L22.2838 38.5182C22.2838 38.0886 22.2838 36.7406 22.4151 35.2353C22.5413 33.7884 22.8047 31.961 23.4374 30.7059C23.7715 30.0432 24.5795 29.7768 25.2422 30.1109C25.9049 30.445 26.1713 31.253 25.8372 31.9157C25.4602 32.6636 25.2187 34.0213 25.0925 35.4688Z" fill="white"/>
<path d="M45.3444 36.1177C46.0549 36.6846 46.2331 37.6425 45.7425 38.2573C45.2519 38.8721 44.2784 38.9109 43.5679 38.3441C42.8575 37.7772 42.6793 36.8192 43.1699 36.2045C43.6604 35.5897 44.634 35.5508 45.3444 36.1177Z" fill="#CFC59E"/>
<path d="M44.5594 32.4369C44.9636 32.7595 45.0651 33.3046 44.7859 33.6545C44.5067 34.0044 43.9527 34.0265 43.5484 33.7039C43.1441 33.3813 43.0427 32.8361 43.3219 32.4863C43.6011 32.1364 44.1551 32.1143 44.5594 32.4369Z" fill="#CFC59E"/>
<path d="M41.7382 34.1922C42.1425 34.5148 42.2439 35.0599 41.9647 35.4097C41.6856 35.7596 41.1315 35.7817 40.7272 35.4591C40.323 35.1365 40.2215 34.5914 40.5007 34.2415C40.7799 33.8917 41.3339 33.8696 41.7382 34.1922Z" fill="#CFC59E"/>
<path d="M40.2776 27.5445C40.4778 27.7043 40.528 27.9743 40.3897 28.1475C40.2515 28.3208 39.9771 28.3317 39.7769 28.1719C39.5767 28.0122 39.5265 27.7422 39.6647 27.569C39.803 27.3957 40.0774 27.3848 40.2776 27.5445Z" fill="#CFC59E"/>
<path d="M40.9001 23.2156C41.1003 23.3753 41.1505 23.6453 41.0123 23.8185C40.8741 23.9918 40.5997 24.0027 40.3995 23.843C40.1993 23.6832 40.1491 23.4133 40.2873 23.24C40.4256 23.0668 40.6999 23.0558 40.9001 23.2156Z" fill="#CFC59E"/>
<path d="M46.3918 34.6101C46.592 34.7699 46.6422 35.0398 46.504 35.2131C46.3658 35.3863 46.0914 35.3972 45.8912 35.2375C45.691 35.0777 45.6408 34.8078 45.779 34.6345C45.9172 34.4613 46.1916 34.4503 46.3918 34.6101Z" fill="#CFC59E"/>
<path d="M46.9803 38.2294C47.1805 38.3891 47.2307 38.6591 47.0925 38.8323C46.9543 39.0056 46.6799 39.0165 46.4797 38.8568C46.2795 38.697 46.2293 38.4271 46.3675 38.2538C46.5058 38.0806 46.7801 38.0696 46.9803 38.2294Z" fill="#CFC59E"/>
<path d="M41.4611 38.1488C41.7636 38.3902 41.8394 38.798 41.6306 39.0597C41.4217 39.3215 41.0072 39.338 40.7048 39.0967C40.4023 38.8553 40.3264 38.4475 40.5353 38.1857C40.7441 37.924 41.1586 37.9075 41.4611 38.1488Z" fill="#CFC59E"/>
<path d="M47.805 43.7711C48.1074 44.0125 48.1833 44.4203 47.9745 44.6821C47.7656 44.9438 47.3511 44.9603 47.0486 44.719C46.7462 44.4776 46.6703 44.0698 46.8791 43.8081C47.088 43.5463 47.5025 43.5298 47.805 43.7711Z" fill="#CFC59E"/>
<path d="M44.7757 42.9496C45.0781 43.1909 45.154 43.5988 44.9452 43.8605C44.7363 44.1223 44.3218 44.1388 44.0193 43.8974C43.7169 43.6561 43.641 43.2483 43.8499 42.9865C44.0587 42.7248 44.4732 42.7082 44.7757 42.9496Z" fill="#CFC59E"/>
<path d="M44.2212 40.3305C44.6255 40.6531 44.7269 41.1982 44.4478 41.5481C44.1686 41.8979 43.6146 41.92 43.2103 41.5974C42.806 41.2748 42.7046 40.7297 42.9837 40.3798C43.2629 40.03 43.817 40.0079 44.2212 40.3305Z" fill="#CFC59E"/>
<path d="M43.9875 29.1305C44.3918 29.4531 44.4932 29.9982 44.214 30.3481C43.9348 30.698 43.3808 30.7201 42.9765 30.3975C42.5722 30.0749 42.4708 29.5297 42.75 29.1799C43.0292 28.83 43.5832 28.8079 43.9875 29.1305Z" fill="#CFC59E"/>
<path d="M41.4415 30.0737C41.9671 30.4931 42.0989 31.2018 41.736 31.6567C41.373 32.1115 40.6527 32.1402 40.1271 31.7208C39.6015 31.3014 39.4696 30.5927 39.8326 30.1378C40.1955 29.683 40.9159 29.6543 41.4415 30.0737Z" fill="#CFC59E"/>
<path d="M42.3405 25.5416C42.8661 25.961 42.998 26.6697 42.635 27.1245C42.2721 27.5794 41.5518 27.6081 41.0262 27.1887C40.5005 26.7693 40.3687 26.0606 40.7316 25.6057C41.0946 25.1509 41.8149 25.1222 42.3405 25.5416Z" fill="#CFC59E"/>
<path d="M47.0904 40.3846C47.616 40.804 47.7478 41.5127 47.3849 41.9676C47.0219 42.4224 46.3016 42.4511 45.776 42.0317C45.2504 41.6123 45.1186 40.9036 45.4815 40.4488C45.8445 39.9939 46.5648 39.9652 47.0904 40.3846Z" fill="#CFC59E"/>
<path d="M47.4285 46.7258C47.9541 47.1452 48.086 47.8539 47.723 48.3088C47.3601 48.7636 46.6398 48.7923 46.1142 48.3729C45.5886 47.9535 45.4567 47.2448 45.8197 46.7899C46.1826 46.3351 46.9029 46.3064 47.4285 46.7258Z" fill="#CFC59E"/>
<path d="M58.5651 75.3619C71.8906 70.9948 78.2174 56.4375 76.7028 46.7812L31.3542 62.8203C30.9062 64.4776 31.4484 68.5115 32.7539 70.3789C37.1771 76.7057 47.6737 78.9314 58.5651 75.3619Z" fill="white"/>
<path fill-rule="evenodd" clip-rule="evenodd" d="M77.6203 45.2423C78.0778 45.5151 78.3903 45.9774 78.4728 46.5036C79.3032 51.798 77.9794 58.2576 74.7575 63.9389C71.5203 69.6469 66.2823 74.7182 59.123 77.0645C47.8665 80.7537 36.3572 78.6601 31.2855 71.4055C30.4078 70.1502 29.889 68.3666 29.6294 66.8168C29.3726 65.2838 29.2995 63.5556 29.6245 62.3529C29.7782 61.7843 30.2015 61.3276 30.7567 61.1312L76.1054 45.0921C76.6076 44.9145 77.1628 44.9695 77.6203 45.2423ZM76.7028 46.7812L31.3541 62.8203C30.9062 64.4776 31.4484 68.5115 32.7539 70.3789C37.177 76.7057 47.6737 78.9314 58.5651 75.362C71.0714 71.2633 77.413 58.1889 76.8934 48.6142C76.8594 47.9871 76.7959 47.3749 76.7028 46.7812Z" fill="#968960"/>
<path fill-rule="evenodd" clip-rule="evenodd" d="M31.1995 64.3297L32.8738 62.2829L31.3542 62.8203C31.2485 63.2111 31.198 63.7341 31.1995 64.3297ZM76.7028 46.7812C78.1977 56.3117 72.0541 70.6164 59.0823 75.1862C65.4374 68.0885 67.3101 58.0213 65.5639 50.7209L76.7028 46.7812Z" fill="#F4F3DB"/>
<path fill-rule="evenodd" clip-rule="evenodd" d="M64.409 72.5524C73.711 66.4714 77.9756 54.8958 76.7028 46.7812L71.0995 48.7631C72.5607 56.0122 70.5929 65.685 64.409 72.5524ZM31.6376 67.6776L37.3436 60.702L31.3542 62.8203C31.0704 63.8705 31.1841 65.8748 31.6376 67.6776Z" fill="#DEDCB1"/>
<path d="M76.3471 45.7882C78.1906 50.1226 69.6406 57.9084 57.2502 63.1782C44.8597 68.4481 33.3208 69.2065 31.4773 64.8721C29.6339 60.5377 38.1838 52.7519 50.5743 47.482C62.9647 42.2121 74.5036 41.4538 76.3471 45.7882Z" fill="#FDFCE4"/>
<path fill-rule="evenodd" clip-rule="evenodd" d="M73.3427 55.4571C69.702 58.7724 64.2814 62.1347 57.9514 64.827C51.6214 67.5192 45.4395 69.0916 40.5262 69.4145C38.0782 69.5754 35.8426 69.4334 34.0293 68.8945C32.2301 68.3598 30.582 67.3446 29.8286 65.5733C29.0752 63.8019 29.4872 61.9106 30.35 60.2438C31.2196 58.5637 32.6679 56.8548 34.4818 55.2031C38.1224 51.8878 43.5431 48.5255 49.873 45.8332C56.203 43.141 62.3849 41.5686 67.2983 41.2457C69.7462 41.0848 71.9818 41.2268 73.7952 41.7657C75.5943 42.3004 77.2425 43.3156 77.9958 45.0869C78.7492 46.8583 78.3373 48.7496 77.4745 50.4164C76.6049 52.0965 75.1565 53.8054 73.3427 55.4571ZM57.2502 63.1782C69.6406 57.9084 78.1906 50.1226 76.3471 45.7882C74.5036 41.4538 62.9647 42.2121 50.5743 47.482C38.1838 52.7518 29.6339 60.5376 31.4773 64.872C33.3208 69.2064 44.8597 68.4481 57.2502 63.1782Z" fill="#968960"/>
<path d="M61.3044 51.3253C62.726 54.4567 57.6616 59.8176 49.9926 63.2994C42.3237 66.7812 34.9543 67.0653 33.5326 63.934C32.111 60.8027 37.1754 55.4417 44.8444 51.9599C52.5134 48.4782 59.8828 48.194 61.3044 51.3253Z" fill="white"/>
<path fill-rule="evenodd" clip-rule="evenodd" d="M64.2523 43.9621C69.9555 43.0882 73.7164 44.2976 75.0191 45.166C75.4307 45.4405 75.542 45.9967 75.2675 46.4083C74.9931 46.82 74.4369 46.9312 74.0252 46.6568C73.2002 46.1068 69.9289 44.9049 64.5237 45.7331C59.7359 46.4667 57.3763 47.3033 55.8662 47.8387C55.6518 47.9148 55.4545 47.9847 55.2699 48.0474C54.8014 48.2065 54.2926 47.9557 54.1335 47.4873C53.9744 47.0188 54.2252 46.51 54.6937 46.3509C54.8746 46.2895 55.0698 46.2203 55.2832 46.1447C56.8182 45.6006 59.3002 44.7209 64.2523 43.9621Z" fill="#E6E4BC"/>
<path d="M54.848 61.2226C54.7542 60.7146 54.025 60.4233 53.2192 60.572C52.4133 60.7206 51.836 61.253 51.9298 61.761C52.0235 62.2691 52.7527 62.5604 53.5586 62.4117C54.3644 62.263 54.9417 61.7307 54.848 61.2226Z" fill="#E9E8CB"/>
<path d="M60.2467 58.4986C60.1529 57.9906 59.4237 57.6993 58.6178 57.848C57.812 57.9966 57.2347 58.529 57.3285 59.037C57.4222 59.5451 58.1514 59.8364 58.9573 59.6877C59.7631 59.539 60.3404 59.0067 60.2467 58.4986Z" fill="#E9E8CB"/>
<path d="M47.1293 59.8664C47.0356 59.3584 46.3064 59.0671 45.5005 59.2158C44.6947 59.3644 44.1174 59.8968 44.2111 60.4048C44.3049 60.9129 45.0341 61.2042 45.84 61.0555C46.6458 60.9068 47.2231 60.3745 47.1293 59.8664Z" fill="#E9E8CB"/>
<path d="M41.5329 64.4471C41.4392 63.9391 40.7099 63.6478 39.9041 63.7964C39.0983 63.9451 38.521 64.4775 38.6147 64.9855C38.7084 65.4936 39.4377 65.7849 40.2435 65.6362C41.0494 65.4875 41.6266 64.9552 41.5329 64.4471Z" fill="#E9E8CB"/>
<path d="M50.4636 62.8437C50.3987 62.4923 49.8943 62.2908 49.3369 62.3936C48.7795 62.4964 48.3801 62.8647 48.445 63.2161C48.5098 63.5675 49.0143 63.769 49.5717 63.6662C50.1291 63.5634 50.5284 63.1951 50.4636 62.8437Z" fill="#E9E8CB"/>
<path d="M43.1845 61.6004C43.1197 61.249 42.6153 61.0475 42.0578 61.1503C41.5004 61.2532 41.1011 61.6214 41.1659 61.9728C41.2308 62.3242 41.7352 62.5258 42.2926 62.4229C42.85 62.3201 43.2494 61.9518 43.1845 61.6004Z" fill="#E9E8CB"/>
<path d="M35.6419 64.5845C35.5771 64.2331 35.0727 64.0316 34.5152 64.1344C33.9578 64.2373 33.5585 64.6055 33.6233 64.957C33.6882 65.3084 34.1926 65.5099 34.75 65.407C35.3074 65.3042 35.7068 64.936 35.6419 64.5845Z" fill="#E9E8CB"/>
<path d="M50.603 60.1723C50.5382 59.8209 50.0337 59.6194 49.4763 59.7222C48.9189 59.8251 48.5195 60.1933 48.5844 60.5447C48.6492 60.8961 49.1537 61.0977 49.7111 60.9948C50.2685 60.892 50.6678 60.5237 50.603 60.1723Z" fill="#E9E8CB"/>
<path d="M56.1081 58.3754C56.0433 58.024 55.5388 57.8225 54.9814 57.9253C54.424 58.0282 54.0247 58.3964 54.0895 58.7479C54.1543 59.0993 54.6588 59.3008 55.2162 59.1979C55.7736 59.0951 56.173 58.7268 56.1081 58.3754Z" fill="#E9E8CB"/>
<path d="M47.0603 62.7413C46.9954 62.3898 46.491 62.1883 45.9336 62.2912C45.3761 62.394 44.9768 62.7623 45.0417 63.1137C45.1065 63.4651 45.6109 63.6666 46.1684 63.5638C46.7258 63.4609 47.1251 63.0927 47.0603 62.7413Z" fill="#E9E8CB"/>
<path d="M44.0468 63.8797C44.0015 63.6337 43.6483 63.4926 43.2581 63.5646C42.8679 63.6366 42.5884 63.8944 42.6338 64.1404C42.6791 64.3864 43.0323 64.5275 43.4225 64.4555C43.8127 64.3835 44.0922 64.1257 44.0468 63.8797Z" fill="#E9E8CB"/>
<path d="M38.0612 63.3571C38.0159 63.1111 37.6627 62.97 37.2725 63.042C36.8823 63.114 36.6028 63.3718 36.6482 63.6178C36.6936 63.8638 37.0467 64.0049 37.4369 63.9329C37.8271 63.8609 38.1066 63.6031 38.0612 63.3571Z" fill="#E9E8CB"/>
<path d="M52.5394 58.3294C52.494 58.0834 52.1409 57.9423 51.7507 58.0143C51.3605 58.0863 51.0809 58.3441 51.1263 58.5901C51.1717 58.8361 51.5248 58.9772 51.915 58.9052C52.3052 58.8332 52.5848 58.5754 52.5394 58.3294Z" fill="#E9E8CB"/>
<path d="M61.8487 56.3583C61.8033 56.1123 61.4502 55.9712 61.06 56.0432C60.6698 56.1152 60.3903 56.373 60.4356 56.619C60.481 56.865 60.8342 57.0061 61.2244 56.9341C61.6146 56.8621 61.8941 56.6043 61.8487 56.3583Z" fill="#E9E8CB"/>
<path d="M57.4861 56.6659C57.453 56.4863 57.1951 56.3833 56.9101 56.4358C56.6251 56.4884 56.421 56.6767 56.4541 56.8563C56.4873 57.036 56.7452 57.139 57.0302 57.0864C57.3151 57.0339 57.5193 56.8456 57.4861 56.6659Z" fill="#E9E8CB"/>
<path d="M57.9437 52.9725C58.5933 54.4998 55.649 57.2142 51.3674 59.0352C47.0859 60.8563 43.0884 61.0943 42.4388 59.567C41.7892 58.0397 44.7335 55.3253 49.015 53.5043C53.2966 51.6832 57.2941 51.4452 57.9437 52.9725Z" fill="#FFB72B"/>
<path fill-rule="evenodd" clip-rule="evenodd" d="M57.7192 57.211C56.3422 58.4804 54.3471 59.7149 52.0687 60.684C49.7902 61.653 47.5171 62.2339 45.6476 62.3452C44.7212 62.4004 43.7917 62.3469 42.9789 62.0968C42.1767 61.8499 41.2392 61.3244 40.79 60.2682C40.3408 59.2121 40.6125 58.1722 40.9912 57.4232C41.3748 56.6642 41.9809 55.9575 42.6633 55.3285C44.0402 54.059 46.0354 52.8246 48.3138 51.8555C50.5922 50.8865 52.8653 50.3056 54.7348 50.1942C55.6613 50.1391 56.5907 50.1926 57.4035 50.4427C58.2057 50.6896 59.1432 51.2151 59.5924 52.2713C60.0416 53.3274 59.7699 54.3672 59.3913 55.1163C59.0077 55.8753 58.4015 56.5819 57.7192 57.211ZM51.3674 59.0352C55.649 57.2142 58.5933 54.4998 57.9437 52.9725C57.2941 51.4452 53.2966 51.6832 49.015 53.5043C44.7335 55.3253 41.7892 58.0397 42.4388 59.567C43.0884 61.0943 47.0859 60.8562 51.3674 59.0352Z" fill="#D89A24"/>
<path fill-rule="evenodd" clip-rule="evenodd" d="M56.9594 53.6778C56.9185 54.1708 56.4857 54.5374 55.9926 54.4966C54.6837 54.3881 53.0228 54.8306 52.357 55.074C51.8923 55.2438 51.3779 55.0049 51.2081 54.5402C51.0382 54.0755 51.2772 53.5611 51.7418 53.3912C52.5058 53.1119 54.4534 52.5712 56.1406 52.711C56.6337 52.7519 57.0002 53.1847 56.9594 53.6778Z" fill="#FFE58A"/>
</g>
<defs>
<clipPath id="clip0_6_565">
<rect width="86" height="86" fill="white"/>
</clipPath>
</defs>
</svg>
