<svg width="86" height="86" viewBox="0 0 86 86" fill="none" xmlns="http://www.w3.org/2000/svg">
<path d="M44.8505 28.9465C44.8505 32.3211 42.1148 35.0568 38.7401 35.0568C35.3655 35.0568 32.6298 32.3211 32.6298 28.9465C32.6298 25.5719 35.3655 22.8362 38.7401 22.8362C42.1148 22.8362 44.8505 25.5719 44.8505 28.9465Z" fill="#E8B73B"/>
<path fill-rule="evenodd" clip-rule="evenodd" d="M46.6421 28.9465C46.6421 33.3107 43.1043 36.8485 38.7401 36.8485C34.376 36.8485 30.8381 33.3107 30.8381 28.9465C30.8381 24.5824 34.376 21.0446 38.7401 21.0446C43.1043 21.0446 46.6421 24.5824 46.6421 28.9465ZM38.7401 35.0569C42.1148 35.0569 44.8505 32.3212 44.8505 28.9465C44.8505 25.5719 42.1148 22.8362 38.7401 22.8362C35.3655 22.8362 32.6298 25.5719 32.6298 28.9465C32.6298 32.3212 35.3655 35.0569 38.7401 35.0569Z" fill="#B6860D"/>
<path d="M38.7402 26.3696C38.7402 27.248 38.0281 27.9601 37.1497 27.9601C36.2713 27.9601 35.5593 27.248 35.5593 26.3696C35.5593 25.4912 36.2713 24.7792 37.1497 24.7792C38.0281 24.7792 38.7402 25.4912 38.7402 26.3696Z" fill="#FED97A"/>
<path d="M69.6491 40.7292C69.6491 44.1039 66.9134 46.8396 63.5388 46.8396C60.1642 46.8396 57.4285 44.1039 57.4285 40.7292C57.4285 37.3546 60.1642 34.6189 63.5388 34.6189C66.9134 34.6189 69.6491 37.3546 69.6491 40.7292Z" fill="#975A2E"/>
<path fill-rule="evenodd" clip-rule="evenodd" d="M71.4408 40.7291C71.4408 45.0933 67.9029 48.6311 63.5388 48.6311C59.1746 48.6311 55.6368 45.0933 55.6368 40.7291C55.6368 36.365 59.1746 32.8271 63.5388 32.8271C67.9029 32.8271 71.4408 36.365 71.4408 40.7291ZM63.5388 46.8395C66.9134 46.8395 69.6491 44.1038 69.6491 40.7291C69.6491 37.3545 66.9134 34.6188 63.5388 34.6188C60.1641 34.6188 57.4284 37.3545 57.4284 40.7291C57.4284 44.1038 60.1641 46.8395 63.5388 46.8395Z" fill="#773F17"/>
<path d="M74.9462 53.5146C71.4876 54.1696 62.6406 50.779 58.6495 49.0018C52.4665 44.9752 49.7623 40.2201 49.183 38.3459C53.4589 32.4499 60.2511 35.7934 63.1128 38.2022C69.2774 37.3781 70.924 40.9962 70.9767 42.9082C76.2491 43.2787 77.1241 46.4833 76.9025 48.0393C78.3643 49.6014 79.2694 52.6959 74.9462 53.5146Z" fill="#A8E12D"/>
<path fill-rule="evenodd" clip-rule="evenodd" d="M77.865 53.213C77.2091 53.7762 76.2924 54.1715 75.1129 54.3948C74.0794 54.5906 72.7432 54.475 71.3399 54.2168C69.9127 53.9543 68.3198 53.525 66.7289 53.0249C63.5463 52.0245 60.3043 50.7193 58.2851 49.8202C58.2419 49.801 58.2003 49.7783 58.1606 49.7525C51.8262 45.6273 48.9761 40.7103 48.3272 38.6105C48.2439 38.3411 48.2923 38.0482 48.4578 37.82C50.8235 34.558 53.9475 33.8316 56.815 34.2744C59.4346 34.6789 61.8446 36.0492 63.3836 37.2671C66.4419 36.9365 68.5543 37.6538 69.9267 38.8551C71.0342 39.8244 71.5843 41.0441 71.7836 42.0875C74.1775 42.392 75.7457 43.3005 76.694 44.4629C77.5815 45.5507 77.8591 46.781 77.8265 47.7376C78.5418 48.6218 79.1399 49.8845 78.9829 51.1648C78.8904 51.9187 78.5371 52.6357 77.865 53.213ZM77.2046 50.9467C77.2909 50.243 76.8847 49.3314 76.2484 48.6515C76.063 48.4533 75.9773 48.1817 76.0156 47.9131C76.0955 47.3524 75.9793 46.4211 75.3057 45.5955C74.6489 44.7904 73.3686 43.9744 70.914 43.8019C70.4542 43.7696 70.094 43.3937 70.0813 42.9329C70.0606 42.1853 69.7188 41.0541 68.7467 40.2033C67.7991 39.3738 66.1266 38.7031 63.2315 39.0901C62.9815 39.1236 62.7289 39.05 62.5359 38.8876C61.1876 37.7526 58.9216 36.4126 56.5416 36.0451C54.3408 35.7053 52.0521 36.1866 50.1898 38.503C50.9514 40.4121 53.5432 44.5896 59.0791 48.2124C61.0554 49.0895 64.1969 50.3509 67.2662 51.3157C68.8183 51.8036 70.3351 52.2102 71.6641 52.4547C73.017 52.7036 74.0837 52.7662 74.7795 52.6345C75.7616 52.4485 76.3529 52.1498 76.6976 51.8538C77.026 51.5718 77.1656 51.264 77.2046 50.9467Z" fill="#5E9D0D"/>
<path d="M57.967 31.634C57.967 35.0086 55.2313 37.7443 51.8567 37.7443C48.482 37.7443 45.7463 35.0086 45.7463 31.634C45.7463 28.2594 48.482 25.5237 51.8567 25.5237C55.2313 25.5237 57.967 28.2594 57.967 31.634Z" fill="#975A2E"/>
<path fill-rule="evenodd" clip-rule="evenodd" d="M59.7586 31.634C59.7586 35.9982 56.2208 39.536 51.8566 39.536C47.4925 39.536 43.9547 35.9982 43.9547 31.634C43.9547 27.2699 47.4925 23.7321 51.8566 23.7321C56.2208 23.7321 59.7586 27.2699 59.7586 31.634ZM51.8566 37.7444C55.2313 37.7444 57.967 35.0087 57.967 31.634C57.967 28.2594 55.2313 25.5237 51.8566 25.5237C48.482 25.5237 45.7463 28.2594 45.7463 31.634C45.7463 35.0087 48.482 37.7444 51.8566 37.7444Z" fill="#773F17"/>
<path d="M51.8567 28.7138C51.8567 29.7818 50.9908 30.6476 49.9228 30.6476C48.8548 30.6476 47.989 29.7818 47.989 28.7138C47.989 27.6457 48.8548 26.7799 49.9228 26.7799C50.9908 26.7799 51.8567 27.6457 51.8567 28.7138Z" fill="#CA7A3F"/>
<path d="M26.1474 39.536C26.1474 42.9106 23.4117 45.6463 20.037 45.6463C16.6624 45.6463 13.9267 42.9106 13.9267 39.536C13.9267 36.1613 16.6624 33.4257 20.037 33.4257C23.4117 33.4257 26.1474 36.1613 26.1474 39.536Z" fill="#975A2E"/>
<path fill-rule="evenodd" clip-rule="evenodd" d="M27.939 39.536C27.939 43.9002 24.4012 47.438 20.037 47.438C15.6729 47.438 12.135 43.9002 12.135 39.536C12.135 35.1719 15.6729 31.634 20.037 31.634C24.4012 31.634 27.939 35.1719 27.939 39.536ZM20.037 45.6464C23.4116 45.6464 26.1473 42.9107 26.1473 39.536C26.1473 36.1614 23.4116 33.4257 20.037 33.4257C16.6624 33.4257 13.9267 36.1614 13.9267 39.536C13.9267 42.9107 16.6624 45.6464 20.037 45.6464Z" fill="#773F17"/>
<path d="M56.9414 43.3778C53.5719 40.9915 52.7557 36.3524 55.1186 33.016C57.4814 29.6796 62.1284 28.9095 65.4979 31.2958L56.9414 43.3778Z" fill="#FA5252"/>
<path fill-rule="evenodd" clip-rule="evenodd" d="M55.9059 44.84C56.7134 45.4119 57.8317 45.2209 58.4035 44.4133L66.9601 32.3313C67.5319 31.5238 67.3409 30.4055 66.5334 29.8337C62.37 26.8851 56.6008 27.823 53.6564 31.9805C50.7121 36.138 51.7425 41.8915 55.9059 44.84ZM55.6029 42.1678C55.9905 42.6136 56.4374 43.0209 56.9414 43.3779L65.4979 31.2958C64.9939 30.9389 64.4614 30.6526 63.9121 30.4349C60.7894 29.1973 57.128 30.1787 55.1186 33.016C53.1092 35.8534 53.3988 39.6329 55.6029 42.1678Z" fill="#BC2121"/>
<path d="M18.946 30.7566C19.9579 26.7535 23.9913 24.3206 27.9549 25.3225C31.9186 26.3244 34.3115 30.3817 33.2996 34.3848L18.946 30.7566Z" fill="#FA5252"/>
<path fill-rule="evenodd" clip-rule="evenodd" d="M17.209 30.3174C16.9665 31.2768 17.5476 32.251 18.5069 32.4935L32.8606 36.1217C33.8199 36.3642 34.7942 35.7831 35.0367 34.8238C36.2869 29.8776 33.3332 24.8339 28.394 23.5854C23.4549 22.3369 18.4592 25.3713 17.209 30.3174ZM19.5925 29.0719C19.3163 29.5941 19.0974 30.1578 18.946 30.7565L33.2996 34.3847C33.451 33.7859 33.5262 33.186 33.5313 32.5952C33.5605 29.2363 31.3258 26.1745 27.955 25.3224C24.5842 24.4704 21.1629 26.1025 19.5925 29.0719Z" fill="#BC2121"/>
<path d="M25.1879 28.9007C24.8416 29.7079 23.9064 30.0816 23.0992 29.7352C22.292 29.3889 21.9183 28.4538 22.2647 27.6466C22.611 26.8393 23.5461 26.4657 24.3533 26.812C25.1606 27.1583 25.5342 28.0935 25.1879 28.9007Z" fill="#FE9595"/>
<path d="M60.1949 33.2245C60.1949 34.1029 59.4828 34.8149 58.6044 34.8149C57.726 34.8149 57.014 34.1029 57.014 33.2245C57.014 32.3461 57.726 31.634 58.6044 31.634C59.4828 31.634 60.1949 32.3461 60.1949 33.2245Z" fill="#FE9595"/>
<path d="M12.5816 53.6199C16.9335 54.7147 28.2477 50.4085 33.3609 48.1186C41.3278 42.7846 44.9201 36.2517 45.7204 33.6521C40.5232 25.1634 31.81 29.5081 28.1031 32.7415C20.334 31.2718 18.1206 36.2635 17.9851 38.943C11.3017 39.1944 10.0795 43.6454 10.3038 45.8395C8.39823 47.9563 7.14181 52.2513 12.5816 53.6199Z" fill="#A8E12D"/>
<path fill-rule="evenodd" clip-rule="evenodd" d="M9.02393 52.7524C9.78754 53.5293 10.8924 54.1186 12.3631 54.4886C13.6353 54.8086 15.3085 54.7184 17.0893 54.4283C18.8964 54.1339 20.9205 53.6146 22.9476 52.9952C27.0028 51.756 31.1451 50.0924 33.727 48.9361C33.7731 48.9155 33.8173 48.891 33.8593 48.8629C41.9865 43.4216 45.7121 36.7237 46.5766 33.9155C46.6522 33.6698 46.6186 33.4035 46.4844 33.1842C45.1063 30.9333 43.46 29.48 41.6696 28.6595C39.8827 27.8405 38.0154 27.6807 36.237 27.9126C32.9059 28.3471 29.8076 30.1635 27.8445 31.786C23.9779 31.1506 21.3098 32.0523 19.5794 33.6229C18.115 34.9521 17.4148 36.678 17.1786 38.0962C14.0689 38.3722 12.0568 39.5706 10.8493 41.1097C9.69543 42.5802 9.34716 44.2724 9.38655 45.5349C8.44087 46.7044 7.65244 48.3937 7.79555 50.0857C7.87576 51.0339 8.25017 51.9651 9.02393 52.7524ZM9.58085 49.9347C9.48114 48.7559 10.116 47.387 10.9696 46.4387C11.1388 46.2507 11.2207 45.9999 11.195 45.7483C11.1023 44.8418 11.3122 43.4221 12.2588 42.2157C13.1799 41.0418 14.8886 39.9559 18.0188 39.8381C18.4826 39.8207 18.8563 39.4518 18.8798 38.9882C18.9384 37.8286 19.4554 36.1551 20.7836 34.9495C22.0734 33.7788 24.2646 32.927 27.9366 33.6217C28.2065 33.6727 28.485 33.5971 28.692 33.4165C30.4645 31.8705 33.4107 30.0881 36.4688 29.6892C37.9817 29.4919 39.4988 29.6354 40.9232 30.2882C42.259 30.9004 43.5691 31.9861 44.7353 33.7703C43.7793 36.3971 40.3041 42.3712 32.9253 47.332C30.3895 48.4642 26.3561 50.0801 22.424 51.2817C20.4393 51.8882 18.4994 52.3833 16.8013 52.66C15.077 52.9409 13.7039 52.9784 12.8002 52.751C11.5509 52.4367 10.773 51.9759 10.3017 51.4965C9.84067 51.0274 9.62832 50.4959 9.58085 49.9347Z" fill="#5E9D0D"/>
<path d="M43 33.1459C25.7908 33.1459 11.6262 46.1811 9.84124 62.9166C9.63135 64.8844 11.2559 66.4943 13.2349 66.4943H72.7651C74.7441 66.4943 76.3686 64.8844 76.1587 62.9166C74.3737 46.1811 60.2091 33.1459 43 33.1459Z" fill="#F7A913"/>
<path fill-rule="evenodd" clip-rule="evenodd" d="M8.05969 62.7265C9.94077 45.09 24.8651 31.3541 43 31.3541C61.1349 31.3541 76.0592 45.09 77.9403 62.7265C78.2767 65.8807 75.6761 68.2859 72.7651 68.2859H13.2349C10.3239 68.2859 7.72326 65.8807 8.05969 62.7265ZM9.84125 62.9165C11.6262 46.1811 25.7908 33.1458 43 33.1458C60.2092 33.1458 74.3738 46.1811 76.1587 62.9165C76.3686 64.8844 74.7441 66.4942 72.7651 66.4942H13.2349C11.2559 66.4942 9.63136 64.8844 9.84125 62.9165Z" fill="#AE6C08"/>
<path fill-rule="evenodd" clip-rule="evenodd" d="M67.061 66.4943C67.7888 65.8374 68.2164 64.8772 68.1126 63.8113C66.7386 49.6982 57.3233 37.9408 44.507 33.1793C61.0299 33.9141 74.4262 46.6723 76.1588 62.9166C76.3687 64.8845 74.7441 66.4943 72.7651 66.4943H67.061Z" fill="#ED9E05"/>
<path d="M24.445 58.2555C23.1895 61.6502 19.7972 63.5239 16.8679 62.4406C13.9387 61.3572 12.5819 57.7271 13.8373 54.3324C15.0928 50.9377 20.0825 43.5963 23.0117 44.6797C25.9409 45.763 25.7005 54.8608 24.445 58.2555Z" fill="#FFBB38"/>
<path d="M65.8168 60.8608C65.8168 61.6647 65.2224 62.3165 64.4892 62.3165C63.756 62.3165 63.1616 61.6647 63.1616 60.8608C63.1616 60.0568 63.756 59.405 64.4892 59.405C65.2224 59.405 65.8168 60.0568 65.8168 60.8608Z" fill="#CB8807"/>
<path d="M67.5986 55.4407C67.5986 56.2447 67.0042 56.8964 66.271 56.8964C65.5377 56.8964 64.9434 56.2447 64.9434 55.4407C64.9434 54.6367 65.5377 53.985 66.271 53.985C67.0042 53.985 67.5986 54.6367 67.5986 55.4407Z" fill="#CB8807"/>
<path d="M57.2274 62.3164C57.2274 63.1204 56.633 63.7722 55.8998 63.7722C55.1666 63.7722 54.5722 63.1204 54.5722 62.3164C54.5722 61.5125 55.1666 60.8607 55.8998 60.8607C56.633 60.8607 57.2274 61.5125 57.2274 62.3164Z" fill="#CB8807"/>
<path d="M69.4874 62.3164C69.4874 62.9581 69.013 63.4782 68.4279 63.4782C67.8427 63.4782 67.3683 62.9581 67.3683 62.3164C67.3683 61.6748 67.8427 61.1547 68.4279 61.1547C69.013 61.1547 69.4874 61.6748 69.4874 62.3164Z" fill="#CB8807"/>
<path d="M61.1554 59.2005C61.1554 59.8421 60.6811 60.3623 60.0959 60.3623C59.5107 60.3623 59.0364 59.8421 59.0364 59.2005C59.0364 58.5588 59.5107 58.0387 60.0959 58.0387C60.6811 58.0387 61.1554 58.5588 61.1554 59.2005Z" fill="#CB8807"/>
<path d="M71.6065 53.9849C71.6065 54.6265 71.1321 55.1467 70.547 55.1467C69.9618 55.1467 69.4874 54.6265 69.4874 53.9849C69.4874 53.3433 69.9618 52.8231 70.547 52.8231C71.1321 52.8231 71.6065 53.3433 71.6065 53.9849Z" fill="#CB8807"/>
<path d="M73.271 61.5885C73.271 62.2302 72.7966 62.7503 72.2114 62.7503C71.6263 62.7503 71.1519 62.2302 71.1519 61.5885C71.1519 60.9469 71.6263 60.4268 72.2114 60.4268C72.7966 60.4268 73.271 60.9469 73.271 61.5885Z" fill="#CB8807"/>
<path d="M62.6422 63.7272C62.6422 64.2667 62.2433 64.7041 61.7513 64.7041C61.2593 64.7041 60.8604 64.2667 60.8604 63.7272C60.8604 63.1877 61.2593 62.7504 61.7513 62.7504C62.2433 62.7504 62.6422 63.1877 62.6422 63.7272Z" fill="#CB8807"/>
<path d="M52.3505 63.0863C52.3505 63.6258 51.9517 64.0632 51.4597 64.0632C50.9676 64.0632 50.5688 63.6258 50.5688 63.0863C50.5688 62.5468 50.9676 62.1095 51.4597 62.1095C51.9517 62.1095 52.3505 62.5468 52.3505 63.0863Z" fill="#CB8807"/>
<path d="M57.0302 58.7753C57.0302 59.1821 56.7295 59.5118 56.3585 59.5118C55.9875 59.5118 55.6868 59.1821 55.6868 58.7753C55.6868 58.3685 55.9875 58.0387 56.3585 58.0387C56.7295 58.0387 57.0302 58.3685 57.0302 58.7753Z" fill="#CB8807"/>
<path d="M64.1992 57.6329C64.1992 58.0397 63.8985 58.3695 63.5275 58.3695C63.1565 58.3695 62.8558 58.0397 62.8558 57.6329C62.8558 57.2261 63.1565 56.8964 63.5275 56.8964C63.8985 56.8964 64.1992 57.2261 64.1992 57.6329Z" fill="#CB8807"/>
<path d="M63.9856 54.7216C63.9856 55.1283 63.6849 55.4581 63.3139 55.4581C62.9429 55.4581 62.6422 55.1283 62.6422 54.7216C62.6422 54.3148 62.9429 53.985 63.3139 53.985C63.6849 53.985 63.9856 54.3148 63.9856 54.7216Z" fill="#CB8807"/>
<path d="M61.4394 56.2135C61.4394 56.6203 61.1386 56.9501 60.7676 56.9501C60.3966 56.9501 60.0959 56.6203 60.0959 56.2135C60.0959 55.8067 60.3966 55.4769 60.7676 55.4769C61.1386 55.4769 61.4394 55.8067 61.4394 56.2135Z" fill="#CB8807"/>
<path d="M68.942 50.9785C68.942 51.3853 68.6413 51.7151 68.2703 51.7151C67.8993 51.7151 67.5986 51.3853 67.5986 50.9785C67.5986 50.5717 67.8993 50.2419 68.2703 50.2419C68.6413 50.2419 68.942 50.5717 68.942 50.9785Z" fill="#CB8807"/>
<path d="M59.3093 62.3164C59.3093 62.7232 59.0085 63.053 58.6376 63.053C58.2666 63.053 57.9658 62.7232 57.9658 62.3164C57.9658 61.9096 58.2666 61.5798 58.6376 61.5798C59.0085 61.5798 59.3093 61.9096 59.3093 62.3164Z" fill="#CB8807"/>
<path d="M48.7222 64.4882C48.7222 64.7929 48.4969 65.04 48.219 65.04C47.9411 65.04 47.7158 64.7929 47.7158 64.4882C47.7158 64.1834 47.9411 63.9364 48.219 63.9364C48.4969 63.9364 48.7222 64.1834 48.7222 64.4882Z" fill="#CB8807"/>
<path d="M54.4161 64.7041C54.4161 65.0089 54.1908 65.2559 53.9129 65.2559C53.635 65.2559 53.4097 65.0089 53.4097 64.7041C53.4097 64.3994 53.635 64.1523 53.9129 64.1523C54.1908 64.1523 54.4161 64.3994 54.4161 64.7041Z" fill="#CB8807"/>
<path d="M71.6065 64.324C71.6065 64.6288 71.3812 64.8758 71.1033 64.8758C70.8253 64.8758 70.6 64.6288 70.6 64.324C70.6 64.0193 70.8253 63.7722 71.1033 63.7722C71.3812 63.7722 71.6065 64.0193 71.6065 64.324Z" fill="#CB8807"/>
<path d="M74.5567 63.1754C74.5567 63.4802 74.3314 63.7272 74.0535 63.7272C73.7756 63.7272 73.5503 63.4802 73.5503 63.1754C73.5503 62.8707 73.7756 62.6237 74.0535 62.6237C74.3314 62.6237 74.5567 62.8707 74.5567 63.1754Z" fill="#CB8807"/>
<path d="M73.5503 58.7753C73.5503 59.08 73.325 59.3271 73.047 59.3271C72.7691 59.3271 72.5438 59.08 72.5438 58.7753C72.5438 58.4706 72.7691 58.2235 73.047 58.2235C73.325 58.2235 73.5503 58.4706 73.5503 58.7753Z" fill="#CB8807"/>
<path d="M66.2709 64.0632C66.2709 64.6027 65.8721 65.04 65.3801 65.04C64.8881 65.04 64.4892 64.6027 64.4892 64.0632C64.4892 63.5237 64.8881 63.0863 65.3801 63.0863C65.8721 63.0863 66.2709 63.5237 66.2709 64.0632Z" fill="#CB8807"/>
<path d="M71.1519 58.0388C71.1519 59.0467 70.4067 59.8639 69.4874 59.8639C68.5682 59.8639 67.8229 59.0467 67.8229 58.0388C67.8229 57.0308 68.5682 56.2136 69.4874 56.2136C70.4067 56.2136 71.1519 57.0308 71.1519 58.0388Z" fill="#CB8807"/>
<path fill-rule="evenodd" clip-rule="evenodd" d="M35.4611 61.521C34.7844 60.8681 34.3755 60.5207 33.6044 60.5782C32.8511 60.6344 32.4212 60.9807 31.8045 61.5307C31.7808 61.5519 31.7567 61.5734 31.7324 61.5952C31.13 62.1342 30.3332 62.847 29.0174 63.0352C27.3148 63.2788 26.1518 62.488 25.2602 61.8818C25.2494 61.8745 25.2386 61.8671 25.2279 61.8598C24.298 61.2278 23.6456 60.8044 22.6604 60.9114C21.716 61.0139 20.6821 61.4739 19.8381 61.9548C19.4262 62.1894 19.0796 62.4174 18.8369 62.586C18.7158 62.6701 18.6215 62.7389 18.5587 62.7857C18.5273 62.809 18.5039 62.8268 18.489 62.8382L18.4732 62.8504L18.4707 62.8524C18.0819 63.1581 17.5186 63.0912 17.2127 62.7025C16.9067 62.3137 16.9738 61.7505 17.3626 61.4445L17.9164 62.1482C17.3626 61.4445 17.3624 61.4446 17.3626 61.4445L17.3641 61.4433L17.3665 61.4414L17.3739 61.4356L17.3991 61.4162C17.4204 61.3999 17.4505 61.377 17.489 61.3484C17.5658 61.2912 17.6759 61.211 17.8144 61.1148C18.0907 60.9227 18.4831 60.6647 18.9512 60.398C19.867 59.8762 21.1566 59.2724 22.4671 59.1302C24.1365 58.949 25.2839 59.7303 26.1592 60.3264C26.1847 60.3438 26.21 60.361 26.2351 60.3781C27.154 61.0027 27.7953 61.4001 28.7637 61.2616C29.5335 61.1515 29.9727 60.7638 30.6119 60.1937C31.2455 59.6286 32.0697 58.8961 33.4711 58.7915C35.0882 58.6709 36.0168 59.5673 36.6804 60.2078L36.7052 60.2317C37.3943 60.8966 37.8163 61.2766 38.606 61.253C39.4192 61.2287 39.8481 60.8752 40.4953 60.3361C41.1573 59.7847 42.028 59.0656 43.5394 59.1256C45.0823 59.1869 45.9118 60.13 46.4844 60.781C46.5086 60.8086 46.5324 60.8356 46.5557 60.8619C47.1546 61.5395 47.4941 61.859 48.2069 61.8142C48.9383 61.7684 49.4239 61.3447 50.1741 60.654L50.2046 60.6259C50.8893 59.995 51.8337 59.125 53.302 59.125C54.1507 59.125 54.8071 59.3544 55.3433 59.7222C55.8179 60.0478 56.1705 60.4683 56.4377 60.7868C56.4534 60.8055 56.4687 60.8238 56.4838 60.8417C56.7825 61.1969 56.9917 61.4296 57.2472 61.5897C57.4707 61.7297 57.7764 61.8407 58.2945 61.8137C59.1831 61.7674 59.9407 61.3629 60.9023 60.8301L60.9593 60.7985C61.8562 60.3013 62.9495 59.6953 64.2883 59.6299C65.6381 59.5641 66.8328 60.0539 67.6511 60.5156C68.0669 60.7503 68.4044 60.9884 68.6396 61.1691C68.7576 61.2597 68.851 61.3368 68.9168 61.393C68.9497 61.4212 68.9758 61.4441 68.9948 61.4611L69.0178 61.4818L69.0252 61.4886L69.0278 61.4911L69.0289 61.4921C69.0291 61.4923 69.0298 61.4929 68.4192 62.1484L69.0298 61.4929C69.3918 61.8301 69.412 62.3969 69.0748 62.759C68.7381 63.1204 68.1726 63.1411 67.8105 62.8057C67.8105 62.8056 67.8106 62.8057 67.8105 62.8057C67.8102 62.8054 67.8098 62.805 67.8095 62.8047C67.8093 62.8046 67.8097 62.8049 67.8095 62.8047L67.8087 62.804M67.8087 62.804L67.8008 62.7969C67.7914 62.7885 67.7754 62.7744 67.7531 62.7554C67.7085 62.7173 67.6392 62.6599 67.548 62.5898C67.3648 62.4491 67.0981 62.2608 66.7705 62.076C66.102 61.6987 65.2531 61.3766 64.3757 61.4195C63.4882 61.4628 62.7311 61.8652 61.7705 62.3974L61.7062 62.433C60.8116 62.929 59.7214 63.5335 58.3877 63.6029C57.5309 63.6476 56.8551 63.4584 56.2959 63.1079C55.773 62.7803 55.4001 62.3368 55.1195 62.0032L55.1126 61.9949C54.8048 61.6289 54.5944 61.3812 54.3297 61.1996C54.0987 61.0411 53.7971 60.9166 53.302 60.9166C52.5949 60.9166 52.1224 61.2954 51.3877 61.972C51.3593 61.9981 51.3305 62.0248 51.3012 62.0519C50.636 62.6668 49.719 63.5146 48.3191 63.6024C46.6776 63.7054 45.8183 62.7331 45.2178 62.0536L45.2132 62.0485C44.5887 61.3418 44.2214 60.9458 43.4683 60.9159C42.6771 60.8845 42.2639 61.1948 41.6419 61.7128C41.6206 61.7306 41.5989 61.7487 41.577 61.767C40.947 62.2932 40.0997 63.0008 38.6595 63.0439C37.0843 63.091 36.1702 62.2068 35.521 61.5789C35.5008 61.5593 35.4808 61.54 35.4611 61.521" fill="#FFC961"/>
<path fill-rule="evenodd" clip-rule="evenodd" d="M48.5349 53.9536C49.2116 53.3008 49.6206 52.9533 50.3917 53.0109C51.1449 53.067 51.5748 53.4133 52.1915 53.9634C52.2153 53.9845 52.2393 54.0061 52.2636 54.0278C52.8661 54.5668 53.6628 55.2796 54.9786 55.4678C56.6812 55.7114 57.8442 54.9206 58.7358 54.3144C58.7466 54.3071 58.7574 54.2998 58.7681 54.2925C59.698 53.6604 60.3505 53.2371 61.3356 53.344C62.28 53.4465 63.3139 53.9065 64.158 54.3874C64.5698 54.622 64.9165 54.85 65.1592 55.0187C65.2802 55.1028 65.3745 55.1716 65.4374 55.2183C65.4687 55.2417 65.4922 55.2595 65.5071 55.2709L65.5229 55.2831L65.5254 55.285C65.9141 55.5908 66.4774 55.5238 66.7834 55.1351C67.0894 54.7463 67.0222 54.1831 66.6335 53.8771L66.0796 54.5808C66.6335 53.8771 66.6336 53.8772 66.6335 53.8771L66.6319 53.8759L66.6295 53.874L66.6221 53.8682L66.5969 53.8488C66.5757 53.8325 66.5455 53.8096 66.5071 53.781C66.4302 53.7238 66.3201 53.6436 66.1816 53.5474C65.9053 53.3553 65.5129 53.0973 65.0449 52.8306C64.129 52.3089 62.8394 51.705 61.5289 51.5628C59.8596 51.3816 58.7122 52.1629 57.8368 52.7591C57.8113 52.7764 57.786 52.7936 57.761 52.8107C56.842 53.4353 56.2007 53.8328 55.2323 53.6942C54.4625 53.5841 54.0233 53.1964 53.3841 52.6263C52.7505 52.0612 51.9263 51.3287 50.525 51.2241C48.9079 51.1035 47.9792 51.9999 47.3156 52.6404L47.2909 52.6643C46.6017 53.3292 46.1798 53.7092 45.39 53.6856C44.5768 53.6613 44.148 53.3078 43.5007 52.7687C42.8387 52.2173 41.968 51.4982 40.4566 51.5583C38.9137 51.6196 38.0843 52.5626 37.5116 53.2136C37.4874 53.2412 37.4637 53.2682 37.4403 53.2946C36.8414 53.9722 36.502 54.2916 35.7891 54.2469C35.0577 54.201 34.5721 53.7773 33.822 53.0866L33.7915 53.0585C33.1067 52.4276 32.1624 51.5576 30.694 51.5576C29.8454 51.5576 29.1889 51.787 28.6528 52.1548C28.1782 52.4804 27.8255 52.9009 27.5583 53.2194C27.5427 53.2381 27.5273 53.2564 27.5123 53.2743C27.2135 53.6295 27.0043 53.8622 26.7488 54.0223C26.5254 54.1624 26.2197 54.2733 25.7015 54.2463C24.8129 54.2 24.0554 53.7955 23.0937 53.2628L23.0367 53.2311C22.1398 52.7339 21.0466 52.1279 19.7077 52.0626C19.2136 52.0384 18.7934 52.4195 18.7693 52.9136C18.7452 53.4078 19.1262 53.828 19.6204 53.8521C20.5079 53.8954 21.2649 54.2978 22.2255 54.83L22.2899 54.8657C23.1844 55.3616 24.2746 55.9661 25.6083 56.0356C26.4652 56.0802 27.1409 55.891 27.7002 55.5405C28.223 55.2129 28.5959 54.7694 28.8765 54.4358L28.8835 54.4275C29.1912 54.0616 29.4017 53.8138 29.6664 53.6322C29.8973 53.4737 30.1989 53.3493 30.694 53.3493C31.4011 53.3493 31.8736 53.728 32.6083 54.4046C32.6367 54.4307 32.6655 54.4574 32.6949 54.4845C33.36 55.0995 34.277 55.9472 35.677 56.035C37.3184 56.138 38.1777 55.1657 38.7782 54.4863L38.7828 54.4811C39.4074 53.7744 39.7746 53.3784 40.5277 53.3485C41.319 53.3171 41.7321 53.6274 42.3541 54.1454C42.3755 54.1632 42.3971 54.1813 42.419 54.1996C43.0491 54.7258 43.8963 55.4334 45.3365 55.4765C46.9118 55.5236 47.8259 54.6394 48.475 54.0115C48.4953 53.992 48.5152 53.9727 48.5349 53.9536Z" fill="#FFC961"/>
<path fill-rule="evenodd" clip-rule="evenodd" d="M52.1046 46.5138C52.7813 47.1666 53.1903 47.5141 53.9614 47.4566C54.7146 47.4004 55.1446 47.0541 55.7612 46.504C55.785 46.4829 55.809 46.4614 55.8334 46.4396C56.4358 45.9006 57.2325 45.1878 58.5483 44.9996C60.2509 44.756 61.4139 45.5468 62.3055 46.153C62.3163 46.1603 62.3271 46.1676 62.3378 46.1749C63.2678 46.807 63.9202 47.2303 64.9053 47.1234C65.3972 47.07 65.8392 47.4255 65.8926 47.9173C65.946 48.4092 65.5905 48.8512 65.0987 48.9046C63.4293 49.0858 62.2819 48.3045 61.4065 47.7083C61.381 47.691 61.3557 47.6738 61.3307 47.6567C60.4117 47.0321 59.7704 46.6346 58.802 46.7732C58.0322 46.8833 57.593 47.271 56.9538 47.8411C56.3202 48.4062 55.496 49.1387 54.0947 49.2433C52.4776 49.3639 51.5489 48.4675 50.8853 47.827L50.8606 47.8031C50.1714 47.1382 49.7495 46.7582 48.9597 46.7818C48.1465 46.8061 47.7177 47.1596 47.0705 47.6987C46.4084 48.2501 45.5377 48.9692 44.0263 48.9091C42.4834 48.8478 41.654 47.9048 41.0813 47.2538C41.0571 47.2262 41.0334 47.1992 41.01 47.1728C40.4112 46.4952 40.0717 46.1758 39.3588 46.2205C38.6274 46.2664 38.1418 46.6901 37.3917 47.3808L37.3612 47.4089C36.6764 48.0398 35.7321 48.9098 34.2637 48.9098C33.4151 48.9098 32.7586 48.6804 32.2225 48.3126C31.7479 47.987 31.3952 47.5665 31.128 47.248C31.1124 47.2293 31.097 47.211 31.082 47.1931C30.7832 46.8379 30.574 46.6052 30.3185 46.4451C30.0951 46.3051 29.7894 46.1941 29.2712 46.2211C28.3826 46.2674 27.6251 46.6719 26.6635 47.2046L26.6064 47.2363C25.7095 47.7335 24.6163 48.3395 23.2774 48.4048C22.7833 48.429 22.3631 48.0479 22.339 47.5538C22.3149 47.0596 22.6959 46.6394 23.1901 46.6153C24.0776 46.572 24.8346 46.1696 25.7952 45.6374C25.8165 45.6256 25.838 45.6137 25.8596 45.6017C26.7541 45.1058 27.8443 44.5013 29.178 44.4318C30.0349 44.3872 30.7106 44.5764 31.2699 44.9269C31.7927 45.2545 32.1656 45.698 32.4462 46.0316L32.4532 46.0399C32.7609 46.4058 32.9714 46.6536 33.2361 46.8352C33.467 46.9937 33.7686 47.1181 34.2637 47.1181C34.9708 47.1181 35.4433 46.7394 36.178 46.0628C36.2064 46.0367 36.2352 46.01 36.2646 45.9829C36.9297 45.3679 37.8467 44.5202 39.2467 44.4324C40.8881 44.3294 41.7474 45.3017 42.3479 45.9812L42.3525 45.9863C42.9771 46.693 43.3443 47.089 44.0974 47.1189C44.8887 47.1503 45.3018 46.84 45.9238 46.322C45.9452 46.3042 45.9668 46.2861 45.9887 46.2678C46.6188 45.7416 47.466 45.034 48.9062 44.9909C50.4815 44.9438 51.3956 45.828 52.0448 46.4559C52.065 46.4755 52.0849 46.4947 52.1046 46.5138Z" fill="#FFC961"/>
<path fill-rule="evenodd" clip-rule="evenodd" d="M56.0497 39.0421C56.7264 39.695 57.1353 40.0424 57.9064 39.9849C58.3998 39.9481 58.8296 40.3182 58.8664 40.8116C58.9032 41.305 58.5331 41.7348 58.0397 41.7716C56.4226 41.8922 55.494 40.9959 54.8304 40.3553C54.8221 40.3473 54.8139 40.3394 54.8056 40.3314C54.1165 39.6665 53.6945 39.2865 52.9048 39.3101C52.0916 39.3344 51.6627 39.6879 51.0155 40.227C50.3535 40.7784 49.4828 41.4975 47.9714 41.4375C46.4285 41.3762 45.599 40.4331 45.0264 39.7821C45.0022 39.7546 44.9784 39.7276 44.9551 39.7012C44.3562 39.0236 44.0167 38.7041 43.3039 38.7489C42.5725 38.7947 42.0869 39.2184 41.3367 39.9091L41.3062 39.9372C40.6215 40.5681 39.6771 41.4381 38.2088 41.4381C37.3601 41.4381 36.7037 41.2088 36.1675 40.8409C35.6929 40.5153 35.3403 40.0948 35.0731 39.7763C35.0574 39.7576 35.0421 39.7393 35.027 39.7214C34.7283 39.3662 34.5191 39.1335 34.2636 38.9734C34.0401 38.8334 33.7344 38.7224 33.2163 38.7494C32.3277 38.7957 31.5701 39.2002 30.6085 39.733C30.5896 39.7435 30.5706 39.754 30.5515 39.7646C29.6545 40.2618 28.5613 40.8678 27.2225 40.9332C26.7283 40.9573 26.3082 40.5762 26.284 40.0821C26.2599 39.5879 26.641 39.1678 27.1351 39.1436C28.0226 39.1003 28.7797 38.6979 29.7403 38.1657C29.7616 38.1539 29.7831 38.142 29.8046 38.1301C30.6992 37.6341 31.7894 37.0296 33.1231 36.9602C33.9799 36.9155 34.6557 37.1047 35.2149 37.4552C35.7378 37.7828 36.1107 38.2263 36.3913 38.5599L36.3982 38.5682C36.706 38.9342 36.9164 39.1819 37.1811 39.3635C37.4121 39.522 37.7136 39.6465 38.2088 39.6465C38.9159 39.6465 39.3884 39.2677 40.1231 38.5911C40.1515 38.565 40.1803 38.5383 40.2096 38.5112C40.8748 37.8963 41.7918 37.0485 43.1917 36.9607C44.8332 36.8577 45.6925 37.83 46.293 38.5095L46.2976 38.5146C46.9221 39.2213 47.2894 39.6173 48.0425 39.6472C48.8337 39.6786 49.2469 39.3684 49.8689 38.8503C49.8902 38.8325 49.9119 38.8144 49.9338 38.7961C50.5638 38.2699 51.4111 37.5623 52.8513 37.5193C54.4265 37.4721 55.3406 38.3563 55.9898 38.9842C56.01 39.0038 56.03 39.0231 56.0497 39.0421Z" fill="#FFC961"/>
<path fill-rule="evenodd" clip-rule="evenodd" d="M30.1288 39.2188C30.3618 39.6552 30.1968 40.1979 29.7604 40.4309C22.5453 44.2826 17.9552 51.1958 16.299 55.9485C16.1362 56.4157 15.6255 56.6624 15.1583 56.4996C14.6911 56.3368 14.4443 55.8261 14.6071 55.3589C16.385 50.2573 21.2385 42.9492 28.9166 38.8504C29.3531 38.6174 29.8958 38.7823 30.1288 39.2188Z" fill="#FFEECE"/>
</svg>
