<svg width="86" height="86" viewBox="0 0 86 86" fill="none" xmlns="http://www.w3.org/2000/svg">
<path d="M47.5501 28.3181C30.473 33.0006 17.9253 41.8412 10.1618 54.2948C2.39833 66.7483 9.86146 74.8661 22.3242 73.815C34.787 72.7639 55.6585 65.7067 68.1212 56.3972C80.584 47.0876 79.9834 40.4807 77.8812 35.6758C75.779 30.8709 66.1692 23.2127 47.5501 28.3181Z" fill="#FAB13D"/>
<path fill-rule="evenodd" clip-rule="evenodd" d="M8.64145 53.3469C16.6845 40.4449 29.6461 31.3695 47.0764 26.5901C66.2796 21.3246 76.9609 29.102 79.5227 34.9576C80.6806 37.6043 81.4959 40.9364 80.1619 44.9166C78.8539 48.8194 75.5694 53.0698 69.1935 57.8325C62.7777 62.6251 54.2727 66.7892 45.8403 69.8849C37.41 72.9798 28.9141 75.0572 22.4749 75.6003C15.9126 76.1537 10.1639 74.3341 7.19741 70.1564C4.16003 65.8789 4.55599 59.9004 8.64145 53.3469ZM10.1619 54.2947C17.9254 41.8412 30.473 33.0006 47.5502 28.318C66.1693 23.2126 75.7791 30.8708 77.8813 35.6757C79.9834 40.4807 80.5841 47.0876 68.1213 56.3971C55.6585 65.7067 34.7871 72.7639 22.3243 73.815C9.86152 74.8661 2.3984 66.7482 10.1619 54.2947Z" fill="#B7690D"/>
<path d="M23.5602 42.6339C16.5449 46.927 12.0872 52.4909 10.2304 59.0493C8.37366 65.6078 12.7512 68.2667 18.1763 66.1894C23.6013 64.1121 24.8536 57.7526 29.2129 51.9905C33.5722 46.2283 38.2878 44.0435 38.2877 40.8839C38.2877 38.4459 31.2089 37.9531 23.5602 42.6339Z" fill="#FCC66F"/>
<path fill-rule="evenodd" clip-rule="evenodd" d="M20.9115 49.007C21.6447 49.6715 21.7004 50.8046 21.036 51.5378C18.3319 54.5216 17.1717 57.0886 16.277 59.0681C16.1679 59.3095 16.0628 59.5422 15.9592 59.7658C15.5435 60.6637 14.4786 61.0546 13.5806 60.6389C12.6827 60.2232 12.2918 59.1583 12.7075 58.2603C12.8039 58.0521 12.9045 57.8288 13.0115 57.5914C13.9192 55.5774 15.2847 52.5478 18.3808 49.1315C19.0452 48.3983 20.1783 48.3426 20.9115 49.007Z" fill="#FFDFAD"/>
<path fill-rule="evenodd" clip-rule="evenodd" d="M15.9298 73.4756C29.6848 70.7123 47.7211 63.8127 59.2804 55.178C73.1988 44.7812 72.5279 37.4026 70.1802 32.0365C69.5776 30.6591 68.4225 29.0717 66.6867 27.5693C73.044 29.2696 76.6827 32.9364 77.8812 35.6758C79.9834 40.4807 80.5841 47.0876 68.1213 56.3972C55.6585 65.7067 34.7871 72.7639 22.3243 73.815C19.9961 74.0114 17.8424 73.8877 15.9298 73.4756Z" fill="#EDA024"/>
<path d="M34.3366 56.9974C30.9731 50.3907 21.0229 46.9371 16.4683 46.0362C18.15 43.2734 21.5735 40.981 23.075 40.1802C30.4026 44.7449 33.6359 53.2936 34.3366 56.9974Z" fill="#D08814"/>
<path d="M49.462 51.0424C45.534 42.103 36.4764 35.1481 31.9218 34.2471C34.8338 31.8091 40.5109 30.5105 42.0125 29.7097C50.4101 34.2471 48.7612 47.3386 49.462 51.0424Z" fill="#A56112"/>
<path d="M64.2256 40.7486C60.5685 31.606 56.1153 29.6874 52.1935 27.2022C54.2703 26.3236 59.6241 26.528 61.3135 26.3236C64.8351 31.1996 64.8351 35.1276 64.2256 40.7486Z" fill="#9C5807"/>
<path fill-rule="evenodd" clip-rule="evenodd" d="M22.3776 40.2549C22.4819 39.7712 22.9586 39.4637 23.4422 39.5681C25.428 39.9964 27.9486 41.6119 30.2613 44.3092C32.5944 47.0305 34.7734 50.9157 36.0418 56.0066C36.1614 56.4867 35.8692 56.9728 35.3891 57.0924C34.909 57.212 34.4229 56.9198 34.3033 56.4397C33.0998 51.6092 31.0461 47.9773 28.9011 45.4754C26.7355 42.9496 24.5325 41.6361 23.0644 41.3194C22.5808 41.2151 22.2733 40.7385 22.3776 40.2549Z" fill="#FFDFAC"/>
<path fill-rule="evenodd" clip-rule="evenodd" d="M42.4943 29.5394C42.7754 29.1322 43.3334 29.0301 43.7405 29.3112C45.3688 30.4355 47.2314 32.9903 48.6828 36.541C50.1489 40.1276 51.2382 44.8309 51.2382 50.3652C51.2382 50.86 50.8371 51.2611 50.3424 51.2611C49.8476 51.2611 49.4465 50.86 49.4465 50.3652C49.4465 45.0639 48.4026 40.5908 47.0243 37.2189C45.6314 33.8111 43.9386 31.6252 42.7225 30.7856C42.3153 30.5044 42.2132 29.9465 42.4943 29.5394Z" fill="#FFDFAC"/>
<path fill-rule="evenodd" clip-rule="evenodd" d="M61.2985 26.1952C61.6125 25.8128 62.177 25.7575 62.5593 26.0715C64.1893 27.4105 65.3428 29.6859 65.9599 32.2423C66.582 34.8198 66.6879 37.7955 66.12 40.6523C66.0236 41.1375 65.552 41.4527 65.0668 41.3563C64.5815 41.2598 64.2663 40.7883 64.3628 40.303C64.8785 37.7081 64.7812 34.9951 64.2182 32.6627C63.6501 30.3092 62.6364 28.4535 61.4221 27.456C61.0398 27.142 60.9844 26.5775 61.2985 26.1952Z" fill="#FFDFAC"/>
<path d="M63.9998 52.4382C63.7697 53.3773 63.0212 54.0009 62.3281 53.8311C61.6349 53.6612 61.2596 52.7622 61.4897 51.8231C61.7198 50.884 62.4683 50.2604 63.1614 50.4302C63.8546 50.6001 64.23 51.4991 63.9998 52.4382Z" fill="#D48A15"/>
<path d="M57.7992 54.7971C57.6123 55.56 57.0043 56.0666 56.4412 55.9286C55.8781 55.7906 55.5732 55.0603 55.7601 54.2974C55.9471 53.5346 56.5551 53.028 57.1182 53.166C57.6812 53.304 57.9862 54.0342 57.7992 54.7971Z" fill="#D48A15"/>
<path d="M62.2351 57.0997C62.0482 57.8626 61.4402 58.3692 60.8771 58.2312C60.314 58.0932 60.0091 57.3629 60.1961 56.6001C60.383 55.8372 60.991 55.3306 61.5541 55.4686C62.1172 55.6066 62.4221 56.3369 62.2351 57.0997Z" fill="#D48A15"/>
<path d="M60.6531 48.5695C60.4662 49.3323 59.8581 49.8389 59.2951 49.7009C58.732 49.563 58.4271 48.8327 58.614 48.0698C58.801 47.3069 59.409 46.8003 59.9721 46.9383C60.5351 47.0763 60.84 47.8066 60.6531 48.5695Z" fill="#D48A15"/>
<path d="M68.3659 50.5182C68.1789 51.2811 67.5709 51.7876 67.0078 51.6497C66.4448 51.5117 66.1399 50.7814 66.3268 50.0185C66.5137 49.2556 67.1217 48.7491 67.6848 48.887C68.2479 49.025 68.5528 49.7553 68.3659 50.5182Z" fill="#D48A15"/>
<path d="M66.1808 47.3962C65.97 48.2565 65.2843 48.8278 64.6494 48.6721C64.0144 48.5165 63.6705 47.693 63.8813 46.8327C64.0922 45.9724 64.7778 45.4012 65.4128 45.5568C66.0478 45.7124 66.3916 46.5359 66.1808 47.3962Z" fill="#D48A15"/>
<path d="M73.0885 47.8934C72.8777 48.7537 72.1921 49.3249 71.5571 49.1693C70.9221 49.0137 70.5782 48.1902 70.7891 47.3299C70.9999 46.4696 71.6855 45.8984 72.3205 46.054C72.9555 46.2096 73.2993 47.0331 73.0885 47.8934Z" fill="#D48A15"/>
<path d="M71.3855 44.2146C71.1747 45.0748 70.489 45.6461 69.8541 45.4905C69.2191 45.3349 68.8752 44.5114 69.0861 43.6511C69.2969 42.7908 69.9825 42.2195 70.6175 42.3751C71.2525 42.5307 71.5963 43.3543 71.3855 44.2146Z" fill="#D48A15"/>
<path d="M77.3451 43.6305C77.1343 44.4907 76.4486 45.062 75.8137 44.9064C75.1787 44.7508 74.8348 43.9273 75.0457 43.067C75.2565 42.2067 75.9421 41.6354 76.5771 41.791C77.2121 41.9466 77.5559 42.7702 77.3451 43.6305Z" fill="#D48A15"/>
<path d="M71.1598 51.6566C71.0219 52.2196 70.5731 52.5935 70.1576 52.4916C69.742 52.3898 69.517 51.8508 69.655 51.2878C69.7929 50.7248 70.2417 50.351 70.6572 50.4528C71.0728 50.5546 71.2978 51.0936 71.1598 51.6566Z" fill="#D48A15"/>
<path d="M66.487 55.1782C66.349 55.7412 65.9003 56.1151 65.4847 56.0132C65.0692 55.9114 64.8442 55.3724 64.9821 54.8094C65.1201 54.2464 65.5688 53.8726 65.9844 53.9744C66.3999 54.0762 66.6249 54.6152 66.487 55.1782Z" fill="#D48A15"/>
<path d="M53.6535 62.052C53.5155 62.615 53.0668 62.9888 52.6512 62.887C52.2357 62.7852 52.0107 62.2462 52.1486 61.6832C52.2866 61.1202 52.7353 60.7464 53.1509 60.8482C53.5664 60.95 53.7914 61.489 53.6535 62.052Z" fill="#D48A15"/>
<path d="M58.5253 58.6654C58.3873 59.2284 57.9386 59.6022 57.5231 59.5004C57.1075 59.3986 56.8825 58.8596 57.0205 58.2966C57.1584 57.7336 57.6071 57.3598 58.0227 57.4616C58.4382 57.5634 58.6633 58.1024 58.5253 58.6654Z" fill="#D48A15"/>
<path d="M54.9238 57.9787C54.8116 58.4365 54.4467 58.7405 54.1088 58.6577C53.7709 58.5749 53.5879 58.1367 53.7001 57.6788C53.8122 57.221 54.1771 56.917 54.5151 56.9998C54.853 57.0826 55.036 57.5209 54.9238 57.9787Z" fill="#D48A15"/>
<path d="M56.5209 50.9702C56.3829 51.5332 55.9342 51.9071 55.5187 51.8052C55.1031 51.7034 54.8781 51.1644 55.0161 50.6014C55.154 50.0384 55.6027 49.6646 56.0183 49.7664C56.4338 49.8682 56.6589 50.4072 56.5209 50.9702Z" fill="#D48A15"/>
<path d="M63.4971 45.1216C63.3591 45.6846 62.9104 46.0584 62.4949 45.9566C62.0793 45.8548 61.8543 45.3158 61.9923 44.7528C62.1302 44.1898 62.5789 43.8159 62.9945 43.9178C63.41 44.0196 63.6351 44.5586 63.4971 45.1216Z" fill="#D48A15"/>
<path d="M68.0987 41.3955C67.9607 41.9585 67.512 42.3323 67.0964 42.2305C66.6809 42.1287 66.4559 41.5897 66.5938 41.0267C66.7318 40.4637 67.1805 40.0899 67.596 40.1917C68.0116 40.2935 68.2366 40.8325 68.0987 41.3955Z" fill="#D48A15"/>
<path d="M73.2205 40.4899C73.0825 41.0529 72.6338 41.4267 72.2183 41.3249C71.8027 41.223 71.5777 40.6841 71.7156 40.1211C71.8536 39.5581 72.3023 39.1842 72.7179 39.2861C73.1334 39.3879 73.3584 39.9268 73.2205 40.4899Z" fill="#D48A15"/>
<path d="M76.4452 40.1211C76.3073 40.6841 75.8585 41.0579 75.443 40.9561C75.0274 40.8543 74.8024 40.3153 74.9404 39.7523C75.0783 39.1893 75.5271 38.8155 75.9426 38.9173C76.3582 39.0191 76.5832 39.5581 76.4452 40.1211Z" fill="#D48A15"/>
</svg>
