<svg width="42" height="42" viewBox="0 0 42 42" fill="none" xmlns="http://www.w3.org/2000/svg">
<g id="Iconly/Light/Filter">
<g id="Filter">
<path id="Stroke 1" d="M18.0778 29.0376H7.05151" stroke="#1A5E57" stroke-width="2.625" stroke-linecap="round" stroke-linejoin="round"/>
<path id="Stroke 3" d="M22.9958 12.0757H34.0221" stroke="#1A5E57" stroke-width="2.625" stroke-linecap="round" stroke-linejoin="round"/>
<path id="Stroke 5" fill-rule="evenodd" clip-rule="evenodd" d="M15.271 11.9809C15.271 9.71355 13.4192 7.875 11.1355 7.875C8.85178 7.875 7 9.71355 7 11.9809C7 14.2483 8.85178 16.0869 11.1355 16.0869C13.4192 16.0869 15.271 14.2483 15.271 11.9809Z" stroke="#1A5E57" stroke-width="2.625" stroke-linecap="round" stroke-linejoin="round"/>
<path id="Stroke 7" fill-rule="evenodd" clip-rule="evenodd" d="M35 28.9691C35 26.7017 33.1497 24.8632 30.8659 24.8632C28.5808 24.8632 26.729 26.7017 26.729 28.9691C26.729 31.2365 28.5808 33.075 30.8659 33.075C33.1497 33.075 35 31.2365 35 28.9691Z" stroke="#1A5E57" stroke-width="2.625" stroke-linecap="round" stroke-linejoin="round"/>
</g>
</g>
</svg>
