<svg width="33" height="33" viewBox="0 0 33 33" fill="none" xmlns="http://www.w3.org/2000/svg">
<g id="Iconly/Light/Filter">
<g id="Filter">
<path id="Stroke 1" d="M14.204 22.8154H5.54053" stroke="#222734" stroke-width="2.0625" stroke-linecap="round" stroke-linejoin="round"/>
<path id="Stroke 3" d="M18.0681 9.4878H26.7316" stroke="#222734" stroke-width="2.0625" stroke-linecap="round" stroke-linejoin="round"/>
<path id="Stroke 5" fill-rule="evenodd" clip-rule="evenodd" d="M11.9986 9.4136C11.9986 7.63207 10.5437 6.1875 8.74932 6.1875C6.95497 6.1875 5.5 7.63207 5.5 9.4136C5.5 11.1951 6.95497 12.6397 8.74932 12.6397C10.5437 12.6397 11.9986 11.1951 11.9986 9.4136Z" stroke="#222734" stroke-width="2.0625" stroke-linecap="round" stroke-linejoin="round"/>
<path id="Stroke 7" fill-rule="evenodd" clip-rule="evenodd" d="M27.4999 22.7613C27.4999 20.9797 26.046 19.5352 24.2517 19.5352C22.4562 19.5352 21.0012 20.9797 21.0012 22.7613C21.0012 24.5428 22.4562 25.9874 24.2517 25.9874C26.046 25.9874 27.4999 24.5428 27.4999 22.7613Z" stroke="#222734" stroke-width="2.0625" stroke-linecap="round" stroke-linejoin="round"/>
</g>
</g>
</svg>
