<svg width="90" height="90" viewBox="0 0 90 90" fill="none" xmlns="http://www.w3.org/2000/svg">
<path d="M9.44995 45.8625C9.44995 50.531 10.3695 55.1538 12.156 59.4669C13.9426 63.78 16.5612 67.699 19.8623 71.0002C23.1634 74.3013 27.0824 76.9199 31.3956 78.7064C35.7087 80.493 40.3315 81.4125 45 81.4125C49.6684 81.4125 54.2912 80.493 58.6044 78.7064C62.9175 76.9199 66.8365 74.3013 70.1376 71.0002C73.4387 67.699 76.0573 63.78 77.8439 59.4669C79.6304 55.1538 80.5499 50.531 80.5499 45.8625C80.5499 41.194 79.6304 36.5712 77.8439 32.2581C76.0573 27.945 73.4387 24.026 70.1376 20.7249C66.8365 17.4237 62.9175 14.8051 58.6044 13.0186C54.2912 11.232 49.6684 10.3125 45 10.3125C40.3315 10.3125 35.7087 11.232 31.3956 13.0186C27.0824 14.8051 23.1634 17.4237 19.8623 20.7249C16.5612 24.026 13.9426 27.945 12.156 32.2581C10.3695 36.5712 9.44995 41.194 9.44995 45.8625Z" fill="#FFE500"/>
<path d="M45 10.3125C37.9541 10.3125 31.0663 12.4019 25.2078 16.3164C19.3493 20.2309 14.7832 25.7948 12.0868 32.3044C9.39044 38.814 8.68494 45.977 10.0595 52.8876C11.4341 59.7982 14.8271 66.1459 19.8093 71.1282C24.7916 76.1104 31.1393 79.5034 38.0499 80.878C44.9605 82.2526 52.1235 81.5471 58.6331 78.8507C65.1427 76.1543 70.7066 71.5882 74.6211 65.7297C78.5356 59.8712 80.625 52.9835 80.625 45.9375C80.625 36.4892 76.8717 27.4278 70.1907 20.7468C63.5097 14.0658 54.4484 10.3125 45 10.3125ZM45 76.0687C38.5845 76.0687 32.313 74.1663 26.9787 70.602C21.6444 67.0378 17.4868 61.9717 15.0317 56.0445C12.5766 50.1174 11.9342 43.5953 13.1858 37.303C14.4374 31.0107 17.5268 25.2309 22.0632 20.6945C26.5997 16.158 32.3795 13.0686 38.6718 11.817C44.964 10.5654 51.4861 11.2078 57.4133 13.6629C63.3405 16.118 68.4065 20.2756 71.9708 25.6099C75.5351 30.9443 77.4375 37.2157 77.4375 43.6313C77.4375 52.2342 74.02 60.4848 67.9368 66.568C61.8536 72.6512 53.603 76.0687 45 76.0687Z" fill="#EBCB00"/>
<path d="M34.3313 17.4184C34.3313 18.1245 35.4553 18.8017 37.4561 19.301C39.4569 19.8003 42.1705 20.0809 45 20.0809C47.8296 20.0809 50.5432 19.8003 52.544 19.301C54.5448 18.8017 55.6688 18.1245 55.6688 17.4184C55.6688 16.7122 54.5448 16.035 52.544 15.5357C50.5432 15.0364 47.8296 14.7559 45 14.7559C42.1705 14.7559 39.4569 15.0364 37.4561 15.5357C35.4553 16.035 34.3313 16.7122 34.3313 17.4184Z" fill="#FFF48C"/>
<path opacity="0.15" d="M16.5562 85.3125C16.5562 85.6818 17.2919 86.0476 18.7213 86.3888C20.1507 86.73 22.2459 87.0401 24.8871 87.3012C27.5284 87.5624 30.664 87.7696 34.115 87.9109C37.5659 88.0523 41.2646 88.125 44.9999 88.125C48.7352 88.125 52.4339 88.0523 55.8849 87.9109C59.3358 87.7696 62.4714 87.5624 65.1127 87.3012C67.7539 87.0401 69.8491 86.73 71.2785 86.3888C72.7079 86.0476 73.4436 85.6818 73.4436 85.3125C73.4436 84.9432 72.7079 84.5774 71.2785 84.2362C69.8491 83.895 67.7539 83.5849 65.1127 83.3238C62.4714 83.0626 59.3358 82.8554 55.8849 82.7141C52.4339 82.5727 48.7352 82.5 44.9999 82.5C41.2646 82.5 37.5659 82.5727 34.115 82.7141C30.664 82.8554 27.5284 83.0626 24.8871 83.3238C22.2459 83.5849 20.1507 83.895 18.7213 84.2362C17.2919 84.5774 16.5562 84.9432 16.5562 85.3125Z" fill="#45413C"/>
<path d="M9.44995 45.8625C9.44995 50.531 10.3695 55.1538 12.156 59.4669C13.9426 63.78 16.5612 67.699 19.8623 71.0002C23.1634 74.3013 27.0824 76.9199 31.3956 78.7064C35.7087 80.493 40.3315 81.4125 45 81.4125C49.6684 81.4125 54.2912 80.493 58.6043 78.7064C62.9175 76.9199 66.8365 74.3013 70.1376 71.0002C73.4387 67.699 76.0573 63.78 77.8439 59.4669C79.6304 55.1538 80.5499 50.531 80.5499 45.8625C80.5499 41.194 79.6304 36.5712 77.8439 32.2581C76.0573 27.945 73.4387 24.026 70.1376 20.7249C66.8365 17.4237 62.9175 14.8051 58.6043 13.0186C54.2912 11.232 49.6684 10.3125 45 10.3125C40.3315 10.3125 35.7087 11.232 31.3956 13.0186C27.0824 14.8051 23.1634 17.4237 19.8623 20.7249C16.5612 24.026 13.9426 27.945 12.156 32.2581C10.3695 36.5712 9.44995 41.194 9.44995 45.8625V45.8625Z" stroke="#45413C" stroke-width="0.5" stroke-linecap="round" stroke-linejoin="round"/>
<path d="M35.2313 43.1254C35.2313 44.3566 34.8662 45.5601 34.1822 46.5838C33.4981 47.6075 32.5259 48.4054 31.3885 48.8765C30.251 49.3477 28.9993 49.471 27.7918 49.2308C26.5843 48.9906 25.4751 48.3977 24.6045 47.5271C23.7339 46.6565 23.1411 45.5474 22.9009 44.3398C22.6607 43.1323 22.7839 41.8807 23.2551 40.7432C23.7263 39.6057 24.5241 38.6335 25.5478 37.9495C26.5715 37.2655 27.7751 36.9004 29.0063 36.9004C30.6572 36.9004 32.2406 37.5562 33.408 38.7236C34.5754 39.8911 35.2313 41.4744 35.2313 43.1254Z" fill="white" stroke="#45413C" stroke-width="0.5" stroke-linecap="round" stroke-linejoin="round"/>
<path d="M70.7625 54.7504C70.7625 56.2129 68.775 57.4129 66.3187 57.4129C63.8625 57.4129 61.875 56.2504 61.875 54.7504C61.875 53.2504 63.8812 52.0879 66.3187 52.0879C68.7562 52.0879 70.7625 53.2691 70.7625 54.7504Z" fill="#FFAA54"/>
<path d="M19.2375 54.7504C19.2375 56.2129 21.225 57.4129 23.6813 57.4129C26.1375 57.4129 28.125 56.2504 28.125 54.7504C28.125 53.2504 26.1188 52.0879 23.6813 52.0879C21.2438 52.0879 19.2375 53.2691 19.2375 54.7504Z" fill="#FFAA54"/>
<path d="M53.0063 0.9375V32.925" stroke="#45413C" stroke-width="0.5" stroke-linecap="round" stroke-linejoin="round"/>
<path d="M60.9937 4.08789V33.4129" stroke="#45413C" stroke-width="0.5" stroke-linecap="round" stroke-linejoin="round"/>
<path d="M69 9.43164V36.9754" stroke="#45413C" stroke-width="0.5" stroke-linecap="round" stroke-linejoin="round"/>
<path d="M67.2188 43.1254C67.2188 44.3566 66.8537 45.5601 66.1697 46.5838C65.4857 47.6075 64.5135 48.4054 63.376 48.8765C62.2385 49.3477 60.9869 49.471 59.7794 49.2308C58.5718 48.9906 57.4626 48.3977 56.5921 47.5271C55.7215 46.6565 55.1286 45.5474 54.8884 44.3398C54.6482 43.1323 54.7715 41.8807 55.2427 40.7432C55.7138 39.6057 56.5117 38.6335 57.5354 37.9495C58.5591 37.2655 59.7626 36.9004 60.9938 36.9004C62.6448 36.9004 64.2281 37.5562 65.3955 38.7236C66.563 39.8911 67.2188 41.4744 67.2188 43.1254Z" fill="white" stroke="#45413C" stroke-width="0.5" stroke-linecap="round" stroke-linejoin="round"/>
<path d="M45.0001 68.6254C48.7263 68.6262 52.4112 69.4054 55.8188 70.9129C59.4563 72.5441 63.6563 71.4941 64.5563 66.6754C65.7938 60.0004 56.5501 50.3066 45.0001 50.3066C33.4501 50.3066 24.2063 60.0004 25.4438 66.6754C26.3438 71.4941 30.5438 72.5441 34.1813 70.9129C37.589 69.4054 41.2739 68.6262 45.0001 68.6254Z" fill="#FFB0CA" stroke="#45413C" stroke-width="0.5" stroke-linecap="round" stroke-linejoin="round"/>
<path d="M45.0001 68.6249C48.7263 68.6258 52.4112 69.4049 55.8188 70.9124C56.8655 71.4643 58.0461 71.7112 59.2262 71.625C60.4063 71.5388 61.5385 71.123 62.4939 70.4249C60.424 67.7578 57.7716 65.5992 54.7396 64.1143C51.7076 62.6294 48.3762 61.8574 45.0001 61.8574C41.624 61.8574 38.2926 62.6294 35.2606 64.1143C32.2286 65.5992 29.5762 67.7578 27.5063 70.4249C28.4617 71.123 29.5939 71.5388 30.774 71.625C31.9541 71.7112 33.1347 71.4643 34.1813 70.9124C37.589 69.4049 41.2739 68.6258 45.0001 68.6249Z" fill="#FF87AF" stroke="#45413C" stroke-width="0.5" stroke-linecap="round" stroke-linejoin="round"/>
</svg>
