<svg width="90" height="90" viewBox="0 0 90 90" fill="none" xmlns="http://www.w3.org/2000/svg">
<path d="M0.937492 40.3125C0.937492 50.2581 4.88837 59.7964 11.921 66.829C18.9536 73.8616 28.4919 77.8125 38.4375 77.8125C48.3831 77.8125 57.9214 73.8616 64.954 66.829C71.9866 59.7964 75.9375 50.2581 75.9375 40.3125C75.9375 30.3669 71.9866 20.8286 64.954 13.796C57.9214 6.76338 48.3831 2.8125 38.4375 2.8125C28.4919 2.8125 18.9536 6.76338 11.921 13.796C4.88837 20.8286 0.937492 30.3669 0.937492 40.3125Z" fill="#FFE500"/>
<path d="M38.4375 2.8125C31.0207 2.8125 23.7705 5.01184 17.6036 9.13239C11.4368 13.2529 6.63031 19.1096 3.79202 25.9619C0.953733 32.8141 0.211108 40.3541 1.65805 47.6284C3.105 54.9027 6.67653 61.5845 11.921 66.829C17.1655 72.0735 23.8473 75.645 31.1216 77.0919C38.3959 78.5389 45.9359 77.7963 52.7881 74.958C59.6404 72.1197 65.4971 67.3132 69.6176 61.1464C73.7382 54.9795 75.9375 47.7293 75.9375 40.3125C75.9375 30.3669 71.9866 20.8286 64.954 13.796C57.9214 6.76338 48.3831 2.8125 38.4375 2.8125ZM38.4375 72.1875C31.6697 72.1875 25.0538 70.1806 19.4266 66.4206C13.7993 62.6606 9.41343 57.3164 6.8235 51.0637C4.23356 44.811 3.55592 37.9308 4.87626 31.293C6.19659 24.6552 9.45561 18.558 14.2412 13.7724C19.0268 8.98686 25.124 5.72784 31.7618 4.4075C38.3995 3.08717 45.2798 3.76481 51.5325 6.35475C57.7851 8.94468 63.1293 13.3306 66.8894 18.9578C70.6494 24.5851 72.6562 31.2009 72.6562 37.9688C72.6562 47.0441 69.0511 55.7478 62.6338 62.1651C56.2165 68.5823 47.5129 72.1875 38.4375 72.1875Z" fill="#EBCB00"/>
<path d="M27.1875 10.3125C27.1875 10.6818 27.4785 11.0476 28.0439 11.3888C28.6092 11.73 29.4379 12.0401 30.4825 12.3012C31.5272 12.5624 32.7674 12.7696 34.1323 12.9109C35.4972 13.0523 36.9601 13.125 38.4375 13.125C39.9149 13.125 41.3778 13.0523 42.7427 12.9109C44.1076 12.7696 45.3478 12.5624 46.3925 12.3012C47.4371 12.0401 48.2658 11.73 48.8311 11.3888C49.3965 11.0476 49.6875 10.6818 49.6875 10.3125C49.6875 9.94316 49.3965 9.57743 48.8311 9.2362C48.2658 8.89497 47.4371 8.58493 46.3925 8.32376C45.3478 8.0626 44.1076 7.85543 42.7427 7.71409C41.3778 7.57275 39.9149 7.5 38.4375 7.5C36.9601 7.5 35.4972 7.57275 34.1323 7.71409C32.7674 7.85543 31.5272 8.0626 30.4825 8.32376C29.4379 8.58493 28.6092 8.89497 28.0439 9.2362C27.4785 9.57743 27.1875 9.94316 27.1875 10.3125Z" fill="#FFF48C"/>
<path opacity="0.15" d="M8.4375 85.3125C8.4375 86.0584 11.5982 86.7738 17.2243 87.3012C22.8504 87.8287 30.481 88.125 38.4375 88.125C46.394 88.125 54.0246 87.8287 59.6507 87.3012C65.2768 86.7738 68.4375 86.0584 68.4375 85.3125C68.4375 84.5666 65.2768 83.8512 59.6507 83.3238C54.0246 82.7963 46.394 82.5 38.4375 82.5C30.481 82.5 22.8504 82.7963 17.2243 83.3238C11.5982 83.8512 8.4375 84.5666 8.4375 85.3125Z" fill="#45413C"/>
<path d="M0.937492 40.3125C0.937492 50.2581 4.88837 59.7964 11.921 66.829C18.9536 73.8616 28.4919 77.8125 38.4375 77.8125C48.3831 77.8125 57.9214 73.8616 64.954 66.829C71.9866 59.7964 75.9375 50.2581 75.9375 40.3125C75.9375 30.3669 71.9866 20.8286 64.954 13.796C57.9214 6.76338 48.3831 2.8125 38.4375 2.8125C28.4919 2.8125 18.9536 6.76338 11.921 13.796C4.88837 20.8286 0.937492 30.3669 0.937492 40.3125V40.3125Z" stroke="#45413C" stroke-width="0.5" stroke-linecap="round" stroke-linejoin="round"/>
<path d="M65.625 49.6875C65.625 51.2438 63.525 52.5 60.9375 52.5C58.35 52.5 56.25 51.2438 56.25 49.6875C56.25 48.1313 58.35 46.875 60.9375 46.875C63.525 46.875 65.625 48.1313 65.625 49.6875Z" fill="#FFAA54"/>
<path d="M11.25 49.6875C11.25 51.2438 13.35 52.5 15.9375 52.5C18.525 52.5 20.625 51.2438 20.625 49.6875C20.625 48.1313 18.525 46.875 15.9375 46.875C13.35 46.875 11.25 48.1313 11.25 49.6875Z" fill="#FFAA54"/>
<path d="M12.1875 42.6562C12.1875 41.786 12.5332 40.9514 13.1486 40.3361C13.7639 39.7207 14.5985 39.375 15.4688 39.375C16.339 39.375 17.1736 39.7207 17.7889 40.3361C18.4043 40.9514 18.75 41.786 18.75 42.6562" stroke="#45413C" stroke-width="0.5" stroke-linecap="round" stroke-linejoin="round"/>
<path d="M58.125 42.6562C58.125 41.786 58.4707 40.9514 59.0861 40.3361C59.7014 39.7207 60.536 39.375 61.4063 39.375C62.2765 39.375 63.1111 39.7207 63.7265 40.3361C64.3418 40.9514 64.6875 41.786 64.6875 42.6562" stroke="#45413C" stroke-width="0.5" stroke-linecap="round" stroke-linejoin="round"/>
<path d="M80.0062 57.5062L88.5187 54.6562C88.6754 54.6003 88.811 54.4973 88.9068 54.3613C89.0026 54.2254 89.0541 54.0631 89.0541 53.8968C89.0541 53.7304 89.0026 53.5682 88.9068 53.4322C88.811 53.2963 88.6754 53.1933 88.5187 53.1374L81.525 50.8124C81.0496 50.6512 80.6186 50.3805 80.2669 50.0223C79.9152 49.664 79.6525 49.2282 79.5 48.7499L77.175 41.7562C77.1176 41.5979 77.0132 41.461 76.8758 41.3638C76.7384 41.2666 76.5746 41.2138 76.4062 41.2124C76.2398 41.2122 76.0776 41.2646 75.9428 41.3623C75.8081 41.46 75.7078 41.5979 75.6562 41.7562L73.3125 48.7499C73.1563 49.2323 72.8879 49.6707 72.5294 50.0293C72.1708 50.3878 71.7324 50.6562 71.25 50.8124L64.2562 53.1374C64.0996 53.1933 63.964 53.2963 63.8682 53.4322C63.7724 53.5682 63.7209 53.7304 63.7209 53.8968C63.7209 54.0631 63.7724 54.2254 63.8682 54.3613C63.964 54.4973 64.0996 54.6003 64.2562 54.6562L71.25 56.9999C71.7214 57.1574 72.1497 57.4223 72.5011 57.7738C72.8526 58.1252 73.1175 58.5535 73.275 59.0249L75.6188 66.0187C75.6703 66.1769 75.7706 66.3148 75.9053 66.4125C76.0401 66.5102 76.2023 66.5627 76.3687 66.5624C76.5371 66.561 76.7009 66.5082 76.8383 66.411C76.9757 66.3138 77.0801 66.1769 77.1375 66.0187L80.0062 57.5062Z" fill="white" stroke="#45413C" stroke-width="0.5" stroke-linecap="round" stroke-linejoin="round"/>
<path d="M38.4375 68.5315C55.6875 68.5315 57.9938 61.3315 56.9813 55.4065C56.7638 54.521 56.3595 53.6923 55.7954 52.9759C55.2313 52.2595 54.5206 51.6721 53.7108 51.253C52.901 50.8339 52.011 50.5929 51.1004 50.546C50.1898 50.4992 49.2797 50.6477 48.4313 50.9815C45.2096 52.054 41.8328 52.5862 38.4375 52.5565C35.0422 52.5862 31.6654 52.054 28.4438 50.9815C27.5953 50.6477 26.6852 50.4992 25.7746 50.546C24.864 50.5929 23.974 50.8339 23.1642 51.253C22.3544 51.6721 21.6437 52.2595 21.0796 52.9759C20.5155 53.6923 20.1112 54.521 19.8938 55.4065C18.8813 61.3315 21.1875 68.5315 38.4375 68.5315Z" fill="white" stroke="#45413C" stroke-width="0.5" stroke-linecap="round" stroke-linejoin="round"/>
<path d="M57.15 56.7749C54.4093 58.0264 51.5056 58.8849 48.525 59.3249C45.1898 59.862 41.8156 60.1192 38.4375 60.0936C35.0594 60.1192 31.6852 59.862 28.35 59.3249C25.3694 58.8849 22.4657 58.0264 19.725 56.7749" stroke="#45413C" stroke-width="0.5" stroke-linecap="round" stroke-linejoin="round"/>
<path d="M29.5875 51.3564L28.35 59.3252L27.1687 66.9939" stroke="#45413C" stroke-width="0.5" stroke-linecap="round" stroke-linejoin="round"/>
<path d="M38.4375 68.5312V52.5938" stroke="#45413C" stroke-width="0.5" stroke-linecap="round" stroke-linejoin="round"/>
<path d="M47.3063 51.3564L48.525 59.3252L49.7063 66.9939" stroke="#45413C" stroke-width="0.5" stroke-linecap="round" stroke-linejoin="round"/>
</svg>
