<svg width="90" height="90" viewBox="0 0 90 90" fill="none" xmlns="http://www.w3.org/2000/svg">
<path opacity="0.15" d="M15 85.3125C15 86.0584 18.1607 86.7738 23.7868 87.3012C29.4129 87.8287 37.0435 88.125 45 88.125C52.9565 88.125 60.5871 87.8287 66.2132 87.3012C71.8393 86.7738 75 86.0584 75 85.3125C75 84.5666 71.8393 83.8512 66.2132 83.3238C60.5871 82.7963 52.9565 82.5 45 82.5C37.0435 82.5 29.4129 82.7963 23.7868 83.3238C18.1607 83.8512 15 84.5666 15 85.3125Z" fill="#45413C"/>
<path d="M7.5 40.3125C7.5 50.2581 11.4509 59.7964 18.4835 66.829C25.5161 73.8616 35.0544 77.8125 45 77.8125C54.9456 77.8125 64.4839 73.8616 71.5165 66.829C78.5491 59.7964 82.5 50.2581 82.5 40.3125C82.5 30.3669 78.5491 20.8286 71.5165 13.796C64.4839 6.76338 54.9456 2.8125 45 2.8125C35.0544 2.8125 25.5161 6.76338 18.4835 13.796C11.4509 20.8286 7.5 30.3669 7.5 40.3125Z" fill="#FFE500"/>
<path d="M45 2.8125C37.5832 2.8125 30.333 5.01184 24.1661 9.13239C17.9993 13.2529 13.1928 19.1096 10.3545 25.9619C7.51625 32.8141 6.77362 40.3541 8.22057 47.6284C9.66751 54.9027 13.239 61.5845 18.4835 66.829C23.728 72.0735 30.4098 75.645 37.6841 77.0919C44.9584 78.5389 52.4984 77.7963 59.3506 74.958C66.2029 72.1197 72.0596 67.3132 76.1801 61.1464C80.3007 54.9795 82.5 47.7293 82.5 40.3125C82.5 30.3669 78.5491 20.8286 71.5165 13.796C64.4839 6.76338 54.9456 2.8125 45 2.8125ZM45 72.1875C38.2322 72.1875 31.6163 70.1806 25.9891 66.4206C20.3619 62.6606 15.9759 57.3164 13.386 51.0637C10.7961 44.811 10.1184 37.9308 11.4388 31.293C12.7591 24.6552 16.0181 18.558 20.8037 13.7724C25.5893 8.98686 31.6865 5.72784 38.3243 4.4075C44.9621 3.08717 51.8423 3.76481 58.095 6.35475C64.3476 8.94468 69.6919 13.3306 73.4519 18.9578C77.2119 24.5851 79.2188 31.2009 79.2188 37.9688C79.2188 47.0441 75.6136 55.7478 69.1963 62.1651C62.7791 68.5823 54.0754 72.1875 45 72.1875Z" fill="#EBCB00"/>
<path d="M33.75 10.3125C33.75 11.0584 34.9353 11.7738 37.0451 12.3012C39.1549 12.8287 42.0163 13.125 45 13.125C47.9837 13.125 50.8452 12.8287 52.955 12.3012C55.0648 11.7738 56.25 11.0584 56.25 10.3125C56.25 9.56658 55.0648 8.85121 52.955 8.32376C50.8452 7.79632 47.9837 7.5 45 7.5C42.0163 7.5 39.1549 7.79632 37.0451 8.32376C34.9353 8.85121 33.75 9.56658 33.75 10.3125Z" fill="#FFF48C"/>
<path d="M7.5 40.3125C7.5 50.2581 11.4509 59.7964 18.4835 66.829C25.5161 73.8616 35.0544 77.8125 45 77.8125C54.9456 77.8125 64.4839 73.8616 71.5165 66.829C78.5491 59.7964 82.5 50.2581 82.5 40.3125C82.5 30.3669 78.5491 20.8286 71.5165 13.796C64.4839 6.76338 54.9456 2.8125 45 2.8125C35.0544 2.8125 25.5161 6.76338 18.4835 13.796C11.4509 20.8286 7.5 30.3669 7.5 40.3125V40.3125Z" stroke="#45413C" stroke-width="0.5" stroke-linecap="round" stroke-linejoin="round"/>
<path d="M72.1875 49.6875C72.1875 51.2438 70.0875 52.5 67.5 52.5C64.9125 52.5 62.8125 51.2438 62.8125 49.6875C62.8125 48.1313 64.9125 46.875 67.5 46.875C70.0875 46.875 72.1875 48.1313 72.1875 49.6875Z" fill="#FFAA54"/>
<path d="M17.8125 49.6875C17.8125 51.2438 19.9125 52.5 22.5 52.5C25.0875 52.5 27.1875 51.2438 27.1875 49.6875C27.1875 48.1313 25.0875 46.875 22.5 46.875C19.9125 46.875 17.8125 48.1313 17.8125 49.6875Z" fill="#FFAA54"/>
<path d="M27.1875 32.8125C27.1875 33.1833 27.0775 33.5459 26.8715 33.8542C26.6655 34.1625 26.3726 34.4029 26.03 34.5448C25.6874 34.6867 25.3104 34.7238 24.9467 34.6515C24.583 34.5791 24.2489 34.4006 23.9867 34.1383C23.7245 33.8761 23.5459 33.542 23.4735 33.1783C23.4012 32.8146 23.4383 32.4376 23.5802 32.095C23.7221 31.7524 23.9625 31.4595 24.2708 31.2535C24.5791 31.0475 24.9417 30.9375 25.3125 30.9375C25.8098 30.9375 26.2867 31.135 26.6383 31.4867C26.99 31.8383 27.1875 32.3152 27.1875 32.8125Z" fill="#45413C" stroke="#45413C" stroke-width="0.5" stroke-linecap="round" stroke-linejoin="round"/>
<path d="M62.8125 38.4375C62.8125 38.8083 62.9225 39.1709 63.1285 39.4792C63.3346 39.7875 63.6274 40.0279 63.97 40.1698C64.3126 40.3117 64.6896 40.3488 65.0533 40.2765C65.417 40.2041 65.7511 40.0256 66.0134 39.7633C66.2756 39.5011 66.4542 39.167 66.5265 38.8033C66.5989 38.4396 66.5617 38.0626 66.4198 37.72C66.2779 37.3774 66.0376 37.0845 65.7292 36.8785C65.4209 36.6725 65.0584 36.5625 64.6875 36.5625C64.1902 36.5625 63.7133 36.76 63.3617 37.1117C63.0101 37.4633 62.8125 37.9402 62.8125 38.4375Z" fill="#45413C" stroke="#45413C" stroke-width="0.5" stroke-linecap="round" stroke-linejoin="round"/>
<path d="M79.6875 26.25H82.5C83.2459 26.25 83.9613 26.5463 84.4887 27.0738C85.0162 27.6012 85.3125 28.3166 85.3125 29.0625V31.875C85.3125 32.6209 85.0162 33.3363 84.4887 33.8637C83.9613 34.3912 83.2459 34.6875 82.5 34.6875H79.6875V26.25Z" fill="#87898C"/>
<path d="M82.5 26.25H79.6875V29.0625H82.5C83.2459 29.0625 83.9613 29.3588 84.4887 29.8863C85.0162 30.4137 85.3125 31.1291 85.3125 31.875V29.0625C85.3125 28.3166 85.0162 27.6012 84.4887 27.0738C83.9613 26.5463 83.2459 26.25 82.5 26.25Z" fill="#BDBEC0"/>
<path d="M79.6875 26.25H82.5C83.2459 26.25 83.9613 26.5463 84.4887 27.0738C85.0162 27.6012 85.3125 28.3166 85.3125 29.0625V31.875C85.3125 32.6209 85.0162 33.3363 84.4887 33.8637C83.9613 34.3912 83.2459 34.6875 82.5 34.6875H79.6875V26.25Z" stroke="#45413C" stroke-width="0.5" stroke-linecap="round" stroke-linejoin="round"/>
<path d="M49.6875 30.9375C49.6875 33.0304 50.0998 35.1029 50.9007 37.0365C51.7016 38.9701 52.8756 40.7271 54.3555 42.207C55.8354 43.6869 57.5924 44.8609 59.526 45.6618C61.4596 46.4628 63.5321 46.875 65.625 46.875C67.718 46.875 69.7904 46.4628 71.724 45.6618C73.6577 44.8609 75.4146 43.6869 76.8945 42.207C78.3745 40.7271 79.5484 38.9701 80.3494 37.0365C81.1503 35.1029 81.5625 33.0304 81.5625 30.9375C81.5625 28.8446 81.1503 26.7721 80.3494 24.8385C79.5484 22.9049 78.3745 21.1479 76.8945 19.668C75.4146 18.1881 73.6577 17.0141 71.724 16.2132C69.7904 15.4122 67.718 15 65.625 15C63.5321 15 61.4596 15.4122 59.526 16.2132C57.5924 17.0141 55.8354 18.1881 54.3555 19.668C52.8756 21.1479 51.7016 22.9049 50.9007 24.8385C50.0998 26.7721 49.6875 28.8446 49.6875 30.9375Z" fill="#87898C"/>
<path d="M65.625 18.75C69.5269 18.7504 73.2931 20.1823 76.2098 22.7741C79.1264 25.3659 80.991 28.9377 81.45 32.8125C81.45 32.1938 81.5625 31.575 81.5625 30.9375C81.5625 26.7106 79.8834 22.6568 76.8945 19.668C73.9057 16.6791 69.8519 15 65.625 15C61.3981 15 57.3444 16.6791 54.3555 19.668C51.3667 22.6568 49.6875 26.7106 49.6875 30.9375C49.6875 31.575 49.6875 32.1938 49.8 32.8125C50.2591 28.9377 52.1236 25.3659 55.0403 22.7741C57.957 20.1823 61.7231 18.7504 65.625 18.75Z" fill="#BDBEC0"/>
<path d="M49.6875 30.9375C49.6875 33.0304 50.0998 35.1029 50.9007 37.0365C51.7016 38.9701 52.8756 40.7271 54.3555 42.207C55.8354 43.6869 57.5924 44.8609 59.526 45.6618C61.4596 46.4628 63.5321 46.875 65.625 46.875C67.718 46.875 69.7904 46.4628 71.724 45.6618C73.6577 44.8609 75.4146 43.6869 76.8945 42.207C78.3745 40.7271 79.5484 38.9701 80.3494 37.0365C81.1503 35.1029 81.5625 33.0304 81.5625 30.9375C81.5625 28.8446 81.1503 26.7721 80.3494 24.8385C79.5484 22.9049 78.3745 21.1479 76.8945 19.668C75.4146 18.1881 73.6577 17.0141 71.724 16.2132C69.7904 15.4122 67.718 15 65.625 15C63.5321 15 61.4596 15.4122 59.526 16.2132C57.5924 17.0141 55.8354 18.1881 54.3555 19.668C52.8756 21.1479 51.7016 22.9049 50.9007 24.8385C50.0998 26.7721 49.6875 28.8446 49.6875 30.9375Z" stroke="#45413C" stroke-width="0.5" stroke-linecap="round" stroke-linejoin="round"/>
<path d="M53.4375 30.9375C53.4375 34.1698 54.7216 37.2698 57.0072 39.5554C59.2928 41.841 62.3927 43.125 65.625 43.125C68.8574 43.125 71.9573 41.841 74.2429 39.5554C76.5285 37.2698 77.8125 34.1698 77.8125 30.9375C77.8125 27.7052 76.5285 24.6052 74.2429 22.3196C71.9573 20.034 68.8574 18.75 65.625 18.75C62.3927 18.75 59.2928 20.034 57.0072 22.3196C54.7216 24.6052 53.4375 27.7052 53.4375 30.9375Z" fill="#00B8F0"/>
<path d="M65.625 18.75C63.4933 18.7507 61.3991 19.3105 59.5514 20.3735C57.7036 21.4365 56.167 22.9656 55.0949 24.808C54.0228 26.6505 53.4527 28.742 53.4416 30.8736C53.4304 33.0053 53.9785 35.1026 55.0313 36.9562L69.6938 19.4625C68.3878 18.9956 67.0119 18.7546 65.625 18.75Z" fill="#4ACFFF"/>
<path d="M53.4375 30.9375C53.4375 34.1698 54.7216 37.2698 57.0072 39.5554C59.2928 41.841 62.3927 43.125 65.625 43.125C68.8574 43.125 71.9573 41.841 74.2429 39.5554C76.5285 37.2698 77.8125 34.1698 77.8125 30.9375C77.8125 27.7052 76.5285 24.6052 74.2429 22.3196C71.9573 20.034 68.8574 18.75 65.625 18.75C62.3927 18.75 59.2928 20.034 57.0072 22.3196C54.7216 24.6052 53.4375 27.7052 53.4375 30.9375Z" stroke="#45413C" stroke-width="0.5" stroke-linecap="round" stroke-linejoin="round"/>
<path d="M85.3125 30C85.3125 30 88.125 30.1125 88.125 33.75V65.625C88.204 66.63 88.0642 67.6402 87.7152 68.586C87.3662 69.5318 86.8164 70.3907 86.1035 71.1035C85.3907 71.8163 84.5318 72.3662 83.586 72.7152C82.6402 73.0642 81.63 73.204 80.625 73.125C79.617 73.2172 78.6011 73.0866 77.6493 72.7423C76.6974 72.398 75.833 71.8485 75.1173 71.1327C74.4015 70.417 73.8521 69.5526 73.5078 68.6007C73.1635 67.6489 73.0328 66.633 73.125 65.625V65.1187" stroke="#45413C" stroke-width="0.5" stroke-linecap="round" stroke-linejoin="round"/>
<path d="M39.375 53.6627C41.1331 52.8401 43.0599 52.4419 45 52.5002C46.9402 52.4419 48.8669 52.8401 50.625 53.6627" stroke="#45413C" stroke-width="0.5" stroke-linecap="round" stroke-linejoin="round"/>
<path d="M20.625 28.125C20.625 28.125 21.4125 23.4375 25.3125 23.4375C29.2125 23.4375 30 28.125 30 28.125" stroke="#45413C" stroke-width="0.5" stroke-linecap="round" stroke-linejoin="round"/>
</svg>
