<svg width="90" height="90" viewBox="0 0 90 90" fill="none" xmlns="http://www.w3.org/2000/svg">
<path d="M7.5 40.3125C7.5 50.2581 11.4509 59.7964 18.4835 66.829C25.5161 73.8616 35.0544 77.8125 45 77.8125C54.9456 77.8125 64.4839 73.8616 71.5165 66.829C78.5491 59.7964 82.5 50.2581 82.5 40.3125C82.5 30.3669 78.5491 20.8286 71.5165 13.796C64.4839 6.76338 54.9456 2.8125 45 2.8125C35.0544 2.8125 25.5161 6.76338 18.4835 13.796C11.4509 20.8286 7.5 30.3669 7.5 40.3125Z" fill="#FFE500"/>
<path d="M45 2.8125C37.5832 2.8125 30.333 5.01184 24.1661 9.13239C17.9993 13.2529 13.1928 19.1096 10.3545 25.9619C7.51625 32.8141 6.77362 40.3541 8.22057 47.6284C9.66751 54.9027 13.239 61.5845 18.4835 66.829C23.728 72.0735 30.4098 75.645 37.6841 77.0919C44.9584 78.5389 52.4984 77.7963 59.3506 74.958C66.2029 72.1197 72.0596 67.3132 76.1801 61.1464C80.3007 54.9795 82.5 47.7293 82.5 40.3125C82.5 30.3669 78.5491 20.8286 71.5165 13.796C64.4839 6.76338 54.9456 2.8125 45 2.8125ZM45 72.1875C38.2322 72.1875 31.6163 70.1806 25.9891 66.4206C20.3619 62.6606 15.9759 57.3164 13.386 51.0637C10.7961 44.811 10.1184 37.9308 11.4388 31.293C12.7591 24.6552 16.0181 18.558 20.8037 13.7724C25.5893 8.98686 31.6865 5.72784 38.3243 4.4075C44.9621 3.08717 51.8423 3.76481 58.095 6.35475C64.3476 8.94468 69.6919 13.3306 73.4519 18.9578C77.2119 24.5851 79.2188 31.2009 79.2188 37.9688C79.2188 47.0441 75.6136 55.7478 69.1963 62.1651C62.7791 68.5823 54.0754 72.1875 45 72.1875Z" fill="#EBCB00"/>
<path d="M33.75 10.3125C33.75 11.0584 34.9353 11.7738 37.045 12.3012C39.1548 12.8287 42.0163 13.125 45 13.125C47.9837 13.125 50.8452 12.8287 52.955 12.3012C55.0647 11.7738 56.25 11.0584 56.25 10.3125C56.25 9.56658 55.0647 8.85121 52.955 8.32376C50.8452 7.79632 47.9837 7.5 45 7.5C42.0163 7.5 39.1548 7.79632 37.045 8.32376C34.9353 8.85121 33.75 9.56658 33.75 10.3125Z" fill="#FFF48C"/>
<path opacity="0.15" d="M15 85.3125C15 86.0584 18.1607 86.7738 23.7868 87.3012C29.4129 87.8287 37.0435 88.125 45 88.125C52.9565 88.125 60.5871 87.8287 66.2132 87.3012C71.8393 86.7738 75 86.0584 75 85.3125C75 84.5666 71.8393 83.8512 66.2132 83.3238C60.5871 82.7963 52.9565 82.5 45 82.5C37.0435 82.5 29.4129 82.7963 23.7868 83.3238C18.1607 83.8512 15 84.5666 15 85.3125Z" fill="#45413C"/>
<path d="M7.5 40.3125C7.5 50.2581 11.4509 59.7964 18.4835 66.829C25.5161 73.8616 35.0544 77.8125 45 77.8125C54.9456 77.8125 64.4839 73.8616 71.5165 66.829C78.5491 59.7964 82.5 50.2581 82.5 40.3125C82.5 30.3669 78.5491 20.8286 71.5165 13.796C64.4839 6.76338 54.9456 2.8125 45 2.8125C35.0544 2.8125 25.5161 6.76338 18.4835 13.796C11.4509 20.8286 7.5 30.3669 7.5 40.3125V40.3125Z" stroke="#45413C" stroke-width="0.5" stroke-linecap="round" stroke-linejoin="round"/>
<path d="M17.8125 49.6875C17.8125 51.2438 19.9125 52.5 22.5 52.5C25.0875 52.5 27.1875 51.2438 27.1875 49.6875C27.1875 48.1313 25.0875 46.875 22.5 46.875C19.9125 46.875 17.8125 48.1313 17.8125 49.6875Z" fill="#FFAA54"/>
<path d="M29.0625 36.5625C29.0625 36.9333 28.9525 37.2959 28.7465 37.6042C28.5405 37.9125 28.2476 38.1529 27.905 38.2948C27.5624 38.4367 27.1854 38.4738 26.8217 38.4015C26.458 38.3291 26.1239 38.1506 25.8617 37.8883C25.5995 37.6261 25.4209 37.292 25.3485 36.9283C25.2762 36.5646 25.3133 36.1876 25.4552 35.845C25.5971 35.5024 25.8375 35.2095 26.1458 35.0035C26.4541 34.7975 26.8167 34.6875 27.1875 34.6875C27.6848 34.6875 28.1617 34.885 28.5133 35.2367C28.865 35.5883 29.0625 36.0652 29.0625 36.5625Z" fill="#45413C" stroke="#45413C" stroke-width="0.5" stroke-linecap="round" stroke-linejoin="round"/>
<path d="M60.9375 36.5625C60.9375 36.9333 61.0475 37.2959 61.2535 37.6042C61.4595 37.9125 61.7524 38.1529 62.095 38.2948C62.4376 38.4367 62.8146 38.4738 63.1783 38.4015C63.542 38.3291 63.8761 38.1506 64.1383 37.8883C64.4006 37.6261 64.5791 37.292 64.6515 36.9283C64.7238 36.5646 64.6867 36.1876 64.5448 35.845C64.4029 35.5024 64.1625 35.2095 63.8542 35.0035C63.5458 34.7975 63.1833 34.6875 62.8125 34.6875C62.3152 34.6875 61.8383 34.885 61.4867 35.2367C61.135 35.5883 60.9375 36.0652 60.9375 36.5625Z" fill="#45413C" stroke="#45413C" stroke-width="0.5" stroke-linecap="round" stroke-linejoin="round"/>
<path d="M36.5625 64.6875C39.253 63.6035 42.1036 62.9701 45 62.8125C47.8964 62.9701 50.747 63.6035 53.4375 64.6875" fill="#FFE500"/>
<path d="M36.5625 64.6875C39.253 63.6035 42.1036 62.9701 45 62.8125C47.8964 62.9701 50.747 63.6035 53.4375 64.6875" stroke="#45413C" stroke-width="0.5" stroke-linecap="round" stroke-linejoin="round"/>
<path d="M47.8125 46.875H84.375C85.3696 46.875 86.3234 47.2701 87.0267 47.9734C87.7299 48.6766 88.125 49.6304 88.125 50.625C88.125 51.6196 87.7299 52.5734 87.0267 53.2766C86.3234 53.9799 85.3696 54.375 84.375 54.375H47.8125" fill="#FFE500"/>
<path d="M47.8125 46.875H84.375C85.3696 46.875 86.3234 47.2701 87.0267 47.9734C87.7299 48.6766 88.125 49.6304 88.125 50.625C88.125 51.6196 87.7299 52.5734 87.0267 53.2766C86.3234 53.9799 85.3696 54.375 84.375 54.375H47.8125" stroke="#45413C" stroke-width="0.5" stroke-linecap="round" stroke-linejoin="round"/>
</svg>
