<svg width="90" height="90" viewBox="0 0 90 90" fill="none" xmlns="http://www.w3.org/2000/svg">
<path d="M7.5 40.3125C7.5 50.2581 11.4509 59.7964 18.4835 66.829C25.5161 73.8616 35.0544 77.8125 45 77.8125C54.9456 77.8125 64.4839 73.8616 71.5165 66.829C78.5491 59.7964 82.5 50.2581 82.5 40.3125C82.5 30.3669 78.5491 20.8286 71.5165 13.796C64.4839 6.76338 54.9456 2.8125 45 2.8125C35.0544 2.8125 25.5161 6.76338 18.4835 13.796C11.4509 20.8286 7.5 30.3669 7.5 40.3125Z" fill="#FFE500"/>
<path d="M45 2.8125C37.5832 2.8125 30.333 5.01184 24.1661 9.13239C17.9993 13.2529 13.1928 19.1096 10.3545 25.9619C7.51625 32.8141 6.77362 40.3541 8.22057 47.6284C9.66751 54.9027 13.239 61.5845 18.4835 66.829C23.728 72.0735 30.4098 75.645 37.6841 77.0919C44.9584 78.5389 52.4984 77.7963 59.3506 74.958C66.2029 72.1197 72.0596 67.3132 76.1801 61.1464C80.3007 54.9795 82.5 47.7293 82.5 40.3125C82.5 30.3669 78.5491 20.8286 71.5165 13.796C64.4839 6.76338 54.9456 2.8125 45 2.8125ZM45 72.1875C38.2322 72.1875 31.6163 70.1806 25.9891 66.4206C20.3619 62.6606 15.9759 57.3164 13.386 51.0637C10.7961 44.811 10.1184 37.9308 11.4388 31.293C12.7591 24.6552 16.0181 18.558 20.8037 13.7724C25.5893 8.98686 31.6865 5.72784 38.3243 4.4075C44.9621 3.08717 51.8423 3.76481 58.095 6.35475C64.3476 8.94468 69.6919 13.3306 73.4519 18.9578C77.2119 24.5851 79.2188 31.2009 79.2188 37.9688C79.2188 47.0441 75.6136 55.7478 69.1963 62.1651C62.7791 68.5823 54.0754 72.1875 45 72.1875Z" fill="#EBCB00"/>
<path d="M33.75 10.3125C33.75 11.0584 34.9353 11.7738 37.045 12.3012C39.1548 12.8287 42.0163 13.125 45 13.125C47.9837 13.125 50.8452 12.8287 52.955 12.3012C55.0647 11.7738 56.25 11.0584 56.25 10.3125C56.25 9.56658 55.0647 8.85121 52.955 8.32376C50.8452 7.79632 47.9837 7.5 45 7.5C42.0163 7.5 39.1548 7.79632 37.045 8.32376C34.9353 8.85121 33.75 9.56658 33.75 10.3125Z" fill="#FFF48C"/>
<path opacity="0.15" d="M15 85.3125C15 86.0584 18.1607 86.7738 23.7868 87.3012C29.4129 87.8287 37.0435 88.125 45 88.125C52.9565 88.125 60.5871 87.8287 66.2132 87.3012C71.8393 86.7738 75 86.0584 75 85.3125C75 84.5666 71.8393 83.8512 66.2132 83.3238C60.5871 82.7963 52.9565 82.5 45 82.5C37.0435 82.5 29.4129 82.7963 23.7868 83.3238C18.1607 83.8512 15 84.5666 15 85.3125Z" fill="#45413C"/>
<path d="M7.5 40.3125C7.5 50.2581 11.4509 59.7964 18.4835 66.829C25.5161 73.8616 35.0544 77.8125 45 77.8125C54.9456 77.8125 64.4839 73.8616 71.5165 66.829C78.5491 59.7964 82.5 50.2581 82.5 40.3125C82.5 30.3669 78.5491 20.8286 71.5165 13.796C64.4839 6.76338 54.9456 2.8125 45 2.8125C35.0544 2.8125 25.5161 6.76338 18.4835 13.796C11.4509 20.8286 7.5 30.3669 7.5 40.3125V40.3125Z" stroke="#45413C" stroke-width="0.5" stroke-linecap="round" stroke-linejoin="round"/>
<path d="M35.625 25.3501C38.4 23.496 41.6625 22.5063 45 22.5063C48.3375 22.5063 51.6 23.496 54.375 25.3501" stroke="#45413C" stroke-width="0.5" stroke-linecap="round"/>
<path d="M62.8125 41.7188C62.8125 41.3479 62.9225 40.9854 63.1285 40.6771C63.3345 40.3687 63.6274 40.1284 63.97 39.9865C64.3126 39.8446 64.6896 39.8074 65.0533 39.8798C65.417 39.9521 65.7511 40.1307 66.0133 40.3929C66.2756 40.6551 66.4541 40.9892 66.5265 41.353C66.5988 41.7167 66.5617 42.0937 66.4198 42.4363C66.2779 42.7789 66.0375 43.0717 65.7292 43.2778C65.4208 43.4838 65.0583 43.5938 64.6875 43.5938C64.1902 43.5938 63.7133 43.3962 63.3617 43.0446C63.01 42.6929 62.8125 42.216 62.8125 41.7188Z" fill="#45413C" stroke="#45413C" stroke-width="0.5" stroke-linecap="round" stroke-linejoin="round"/>
<path d="M27.1875 41.7188C27.1875 41.3479 27.0775 40.9854 26.8715 40.6771C26.6655 40.3687 26.3726 40.1284 26.03 39.9865C25.6874 39.8446 25.3104 39.8074 24.9467 39.8798C24.583 39.9521 24.2489 40.1307 23.9867 40.3929C23.7245 40.6551 23.5459 40.9892 23.4735 41.353C23.4012 41.7167 23.4383 42.0937 23.5802 42.4363C23.7221 42.7789 23.9625 43.0717 24.2708 43.2778C24.5791 43.4838 24.9417 43.5938 25.3125 43.5938C25.8098 43.5938 26.2867 43.3962 26.6383 43.0446C26.99 42.6929 27.1875 42.216 27.1875 41.7188Z" fill="#45413C" stroke="#45413C" stroke-width="0.5" stroke-linecap="round" stroke-linejoin="round"/>
<path d="M17.8125 30.4688C17.8125 28.9125 19.9125 27.6562 22.5 27.6562C25.0875 27.6562 27.1875 28.9125 27.1875 30.4688C27.1875 32.025 25.0875 33.2812 22.5 33.2812C19.9125 33.2812 17.8125 32.025 17.8125 30.4688Z" fill="#FFAA54"/>
<path d="M72.1875 30.4688C72.1875 28.9125 70.0875 27.6562 67.5 27.6562C64.9125 27.6562 62.8125 28.9125 62.8125 30.4688C62.8125 32.025 64.9125 33.2812 67.5 33.2812C70.0875 33.2812 72.1875 32.025 72.1875 30.4688Z" fill="#FFAA54"/>
</svg>
