<svg width="20" height="27" viewBox="0 0 20 27" fill="none" xmlns="http://www.w3.org/2000/svg">
<path fill-rule="evenodd" clip-rule="evenodd" d="M0 7.86614C0.721829 4.38896 3.27015 1.58085 6.59667 0.490107V3.2285C4.6822 4.11649 3.21512 5.80599 2.62629 7.86614L0 7.86614ZM0.216582 12.7559C1.14969 15.8365 3.54592 18.2812 6.59667 19.2815V16.5431C4.95288 15.7807 3.63892 14.4274 2.9275 12.7559H0.216582ZM8.51012 2.64387L8.51005 2.64388V0.0684274C8.89353 0.0232394 9.28372 0 9.67935 0C15.1391 0 19.5652 4.42604 19.5652 9.88583C19.5652 14.8049 15.9724 18.8849 11.2677 19.6447V17.048C14.5549 16.3223 17.014 13.3912 17.014 9.88583C17.014 6.30743 14.4514 3.32755 11.0613 2.68118V17.0079H8.51012V2.64387ZM11.0613 19.7717H8.51012V24.7677L11.0613 27V19.7717Z" fill="#222734"/>
</svg>
