<svg width="194" height="194" viewBox="0 0 194 194" fill="none" xmlns="http://www.w3.org/2000/svg">
<circle cx="97" cy="97" r="97" fill="#1A5D57" fill-opacity="0.2"/>
<circle cx="97" cy="97" r="65" fill="#1A5D57" fill-opacity="0.3"/>
<g clip-path="url(#clip0_101_991)">
<g filter="url(#filter0_dd_101_991)">
<path d="M60.25 91.9687C60.25 101.583 64.0692 110.803 70.8674 117.601C77.6656 124.4 86.8859 128.219 96.5 128.219C106.114 128.219 115.334 124.4 122.133 117.601C128.931 110.803 132.75 101.583 132.75 91.9687C132.75 82.3546 128.931 73.1343 122.133 66.3361C115.334 59.5379 106.114 55.7188 96.5 55.7188C86.8859 55.7188 77.6656 59.5379 70.8674 66.3361C64.0692 73.1343 60.25 82.3546 60.25 91.9687Z" fill="#FFE500"/>
</g>
<path d="M96.5 55.7188C89.3304 55.7188 82.3219 57.8448 76.3606 61.828C70.3993 65.8112 65.7531 71.4727 63.0094 78.0965C60.2657 84.7203 59.5478 92.009 60.9465 99.0408C62.3453 106.073 65.7977 112.532 70.8674 117.601C75.937 122.671 82.3962 126.124 89.428 127.522C96.4598 128.921 103.748 128.203 110.372 125.459C116.996 122.716 122.658 118.069 126.641 112.108C130.624 106.147 132.75 99.1383 132.75 91.9688C132.75 82.3547 128.931 73.1343 122.133 66.3361C115.334 59.5379 106.114 55.7188 96.5 55.7188ZM96.5 122.781C89.9578 122.781 83.5625 120.841 78.1228 117.207C72.6831 113.572 68.4434 108.406 65.9398 102.362C63.4362 96.3173 62.7812 89.6664 64.0575 83.2499C65.3338 76.8334 68.4842 70.9394 73.1103 66.3134C77.7363 61.6873 83.6303 58.5369 90.0468 57.2606C96.4633 55.9843 103.114 56.6393 109.158 59.1429C115.203 61.6465 120.369 65.8862 124.003 71.3259C127.638 76.7656 129.578 83.1609 129.578 89.7031C129.578 98.476 126.093 106.89 119.89 113.093C113.686 119.296 105.273 122.781 96.5 122.781Z" fill="#EBCB00"/>
<path d="M85.625 62.9688C85.625 63.6898 86.7708 64.3813 88.8102 64.8912C90.8497 65.4011 93.6158 65.6875 96.5 65.6875C99.3842 65.6875 102.15 65.4011 104.19 64.8912C106.229 64.3813 107.375 63.6898 107.375 62.9688C107.375 62.2477 106.229 61.5562 104.19 61.0463C102.15 60.5364 99.3842 60.25 96.5 60.25C93.6158 60.25 90.8497 60.5364 88.8102 61.0463C86.7708 61.5562 85.625 62.2477 85.625 62.9688Z" fill="#FFF48C"/>
<path opacity="0.15" d="M67.5 135.469C67.5 136.19 70.5553 136.881 75.9939 137.391C81.4325 137.901 88.8087 138.188 96.5 138.188C104.191 138.188 111.568 137.901 117.006 137.391C122.445 136.881 125.5 136.19 125.5 135.469C125.5 134.748 122.445 134.056 117.006 133.546C111.568 133.036 104.191 132.75 96.5 132.75C88.8087 132.75 81.4325 133.036 75.9939 133.546C70.5553 134.056 67.5 134.748 67.5 135.469Z" fill="#45413C"/>
<path d="M60.25 91.9688C60.25 101.583 64.0692 110.803 70.8674 117.601C77.6656 124.4 86.8859 128.219 96.5 128.219C106.114 128.219 115.334 124.4 122.133 117.601C128.931 110.803 132.75 101.583 132.75 91.9688C132.75 82.3547 128.931 73.1343 122.133 66.3361C115.334 59.5379 106.114 55.7188 96.5 55.7188C86.8859 55.7188 77.6656 59.5379 70.8674 66.3361C64.0692 73.1343 60.25 82.3547 60.25 91.9688V91.9688Z" stroke="#45413C" stroke-width="0.5" stroke-linecap="round" stroke-linejoin="round"/>
<path d="M86.5313 89.25C86.5313 90.5047 86.1592 91.7312 85.4621 92.7744C84.7651 93.8176 83.7743 94.6307 82.6152 95.1109C81.456 95.591 80.1805 95.7166 78.9499 95.4719C77.7193 95.2271 76.589 94.6229 75.7018 93.7357C74.8146 92.8485 74.2104 91.7182 73.9656 90.4876C73.7209 89.257 73.8465 87.9815 74.3266 86.8224C74.8068 85.6632 75.6199 84.6724 76.6631 83.9754C77.7063 83.2783 78.9328 82.9062 80.1875 82.9062C81.87 82.9062 83.4835 83.5746 84.6732 84.7643C85.8629 85.954 86.5313 87.5675 86.5313 89.25Z" fill="white" stroke="#45413C" stroke-width="0.5" stroke-linecap="round" stroke-linejoin="round"/>
<path d="M119.156 89.25C119.156 90.5047 118.784 91.7312 118.087 92.7744C117.39 93.8176 116.399 94.6307 115.24 95.1109C114.081 95.591 112.805 95.7166 111.575 95.4719C110.344 95.2271 109.214 94.6229 108.327 93.7357C107.44 92.8485 106.835 91.7182 106.591 90.4876C106.346 89.257 106.471 87.9815 106.952 86.8224C107.432 85.6632 108.245 84.6724 109.288 83.9754C110.331 83.2783 111.558 82.9062 112.813 82.9062C114.495 82.9062 116.109 83.5746 117.298 84.7643C118.488 85.954 119.156 87.5675 119.156 89.25Z" fill="white" stroke="#45413C" stroke-width="0.5" stroke-linecap="round" stroke-linejoin="round"/>
<path d="M99.2188 111.906C99.2188 112.444 99.0593 112.97 98.7606 113.417C98.4618 113.864 98.0372 114.212 97.5404 114.418C97.0436 114.624 96.497 114.678 95.9696 114.573C95.4422 114.468 94.9578 114.209 94.5776 113.829C94.1973 113.448 93.9384 112.964 93.8335 112.437C93.7286 111.909 93.7824 111.363 93.9882 110.866C94.194 110.369 94.5424 109.944 94.9895 109.646C95.4366 109.347 95.9623 109.188 96.5 109.188C97.2211 109.188 97.9126 109.474 98.4224 109.984C98.9323 110.494 99.2188 111.185 99.2188 111.906Z" fill="#FFB0CA" stroke="#45413C" stroke-width="0.5" stroke-linecap="round" stroke-linejoin="round"/>
<path d="M123.688 101.031C123.688 102.536 121.657 103.75 119.156 103.75C116.655 103.75 114.625 102.536 114.625 101.031C114.625 99.5269 116.655 98.3125 119.156 98.3125C121.657 98.3125 123.688 99.5269 123.688 101.031Z" fill="#FFAA54"/>
<path d="M71.125 101.031C71.125 102.536 73.155 103.75 75.6562 103.75C78.1575 103.75 80.1875 102.536 80.1875 101.031C80.1875 99.5269 78.1575 98.3125 75.6562 98.3125C73.155 98.3125 71.125 99.5269 71.125 101.031Z" fill="#FFAA54"/>
</g>
<defs>
<filter id="filter0_dd_101_991" x="-106.75" y="-32.2812" width="406.5" height="406.5" filterUnits="userSpaceOnUse" color-interpolation-filters="sRGB">
<feFlood flood-opacity="0" result="BackgroundImageFix"/>
<feColorMatrix in="SourceAlpha" type="matrix" values="0 0 0 0 0 0 0 0 0 0 0 0 0 0 0 0 0 0 127 0" result="hardAlpha"/>
<feOffset dy="9.89203"/>
<feGaussianBlur stdDeviation="10.4555"/>
<feColorMatrix type="matrix" values="0 0 0 0 1 0 0 0 0 0.898039 0 0 0 0 0 0 0 0 0.0375267 0"/>
<feBlend mode="normal" in2="BackgroundImageFix" result="effect1_dropShadow_101_991"/>
<feColorMatrix in="SourceAlpha" type="matrix" values="0 0 0 0 0 0 0 0 0 0 0 0 0 0 0 0 0 0 127 0" result="hardAlpha"/>
<feOffset dy="79"/>
<feGaussianBlur stdDeviation="83.5"/>
<feColorMatrix type="matrix" values="0 0 0 0 1 0 0 0 0 0.898039 0 0 0 0 0 0 0 0 0.1 0"/>
<feBlend mode="normal" in2="effect1_dropShadow_101_991" result="effect2_dropShadow_101_991"/>
<feBlend mode="normal" in="SourceGraphic" in2="effect2_dropShadow_101_991" result="shape"/>
</filter>
<clipPath id="clip0_101_991">
<rect width="87" height="87" fill="white" transform="translate(53 53)"/>
</clipPath>
</defs>
</svg>
