<svg width="37" height="37" viewBox="0 0 37 37" fill="none" xmlns="http://www.w3.org/2000/svg">
<path fill-rule="evenodd" clip-rule="evenodd" d="M33.9166 16.3031C33.9166 16.9546 33.3884 17.4827 32.7369 17.4827H32.7234C32.4094 17.4828 32.1086 17.3563 31.8891 17.1317C31.6696 16.9071 31.55 16.6035 31.5573 16.2895V12.7235C31.5573 8.03207 28.9675 5.44229 24.2761 5.44229H12.7238C8.01876 5.44229 5.44253 8.03207 5.44253 12.7235V24.2894C5.44253 28.9808 8.03231 31.5571 12.7238 31.5571H24.2761C28.9811 31.5571 31.5573 28.9673 31.5573 24.2894C31.5573 23.6379 32.0855 23.1098 32.7369 23.1098C33.3884 23.1098 33.9166 23.6379 33.9166 24.2894C33.9166 30.2283 30.2285 33.9163 24.2896 33.9163H12.7238C6.77132 33.9163 3.08325 30.2283 3.08325 24.2894V12.7235C3.08325 6.77108 6.77132 3.08301 12.7238 3.08301H24.2761C30.2014 3.08301 33.9166 6.77108 33.9166 12.7235V16.3031ZM10.7306 25.7267V15.9506V15.8557C10.7411 15.5439 10.8761 15.2493 11.1055 15.0378C11.3348 14.8263 11.6393 14.7156 11.9509 14.7303C12.2638 14.7409 12.5597 14.8754 12.7733 15.1043C12.987 15.3332 13.1008 15.6377 13.0898 15.9506V25.808C13.0674 26.4595 12.521 26.9694 11.8695 26.947C11.218 26.9245 10.7081 26.3782 10.7306 25.7267ZM17.3745 11.2862V25.7402C17.3745 26.3917 17.9027 26.9199 18.5542 26.9199C19.2057 26.9199 19.7338 26.3917 19.7338 25.7402V11.2862C19.7338 10.6348 19.2057 10.1066 18.5542 10.1066C17.9027 10.1066 17.3745 10.6348 17.3745 11.2862ZM23.91 25.7267V21.1166C23.91 20.4651 24.4381 19.9369 25.0896 19.9369C25.7411 19.9369 26.2693 20.4651 26.2693 21.1166V25.7267C26.2693 26.3782 25.7411 26.9063 25.0896 26.9063C24.4381 26.9063 23.91 26.3782 23.91 25.7267Z" fill="#130F26"/>
</svg>
