<svg width="34" height="34" viewBox="0 0 34 34" fill="none" xmlns="http://www.w3.org/2000/svg">
<path fill-rule="evenodd" clip-rule="evenodd" d="M11.1919 10.2146C11.1919 7.21468 13.6476 4.77447 16.6664 4.77447C19.6853 4.77447 22.1409 7.21468 22.1409 10.2146C22.1409 13.2131 19.6853 15.6534 16.6664 15.6534C13.6476 15.6534 11.1919 13.2131 11.1919 10.2146ZM9.18354 10.2152C9.18354 14.3137 12.5406 17.6498 16.6664 17.6498C20.7922 17.6498 24.1479 14.3137 24.1479 10.2152C24.1479 6.11532 20.7922 2.7793 16.6664 2.7793C12.5406 2.7793 9.18354 6.11532 9.18354 10.2152ZM15.2465 30.5365C15.712 30.5503 16.1857 30.5573 16.6665 30.5573C21.4366 30.5573 27.7776 30.0281 27.7776 25.4602C27.7776 20.3339 19.4143 20.3339 16.6665 20.3339C11.8964 20.3339 5.55542 20.8631 5.55542 25.4324C5.55542 26.8004 6.19553 28.6462 9.24515 29.6726C9.77205 29.8531 10.3395 29.5684 10.5184 29.0476C10.6959 28.5268 10.415 27.9615 9.88945 27.7851C7.8028 27.0824 7.56241 26.106 7.56241 25.4324C7.56241 23.3727 10.626 22.3283 16.6665 22.3283C22.7071 22.3283 25.7707 23.3825 25.7707 25.4602C25.7707 27.5185 22.7071 28.5615 16.6665 28.5615C16.2053 28.5615 15.7511 28.5559 15.3038 28.5434C14.7672 28.5476 14.2892 28.9615 14.2738 29.5115C14.257 30.0629 14.6931 30.5226 15.2465 30.5365Z" fill="#130F26"/>
</svg>
