<svg width="34" height="34" viewBox="0 0 34 34" fill="none" xmlns="http://www.w3.org/2000/svg">
<path d="M24.3001 30.4404C24.1293 30.4445 23.9598 30.4015 23.8112 30.3154L16.6759 26.5574L10.3931 29.9404C9.36825 30.4959 8.08504 30.1154 7.52954 29.0891C7.5226 29.0766 7.51566 29.0641 7.50871 29.0502C7.29068 28.6211 7.2143 28.1364 7.28929 27.6615L8.51139 20.4483L3.40357 15.2766C2.56893 14.4156 2.56893 13.0463 3.40357 12.1839C3.72853 11.8422 4.15905 11.6214 4.62567 11.5575L11.6291 10.4938L14.7441 4.00413C15.2288 2.94868 16.4773 2.48484 17.5341 2.96952C17.9924 3.17922 18.359 3.54724 18.5687 4.00413L21.6976 10.516L28.7246 11.5923C29.2926 11.677 29.8023 11.9908 30.1356 12.4588C30.7578 13.3532 30.6633 14.5614 29.9106 15.3488L24.8264 20.4594L25.5347 24.3465C25.6333 24.9298 25.2486 25.4867 24.6667 25.5964C24.0946 25.6992 23.5474 25.3187 23.4446 24.7451L22.7239 20.858C22.603 20.1456 22.8294 19.4179 23.3349 18.9026L28.4316 13.7559L21.4045 12.6658C20.6921 12.5505 20.088 12.0783 19.8033 11.4159L16.6759 4.93182L13.5095 11.5187C13.2248 12.1825 12.6207 12.6533 11.9083 12.7685L4.90481 13.8323L9.96402 18.9707C10.4681 19.4776 10.6945 20.1956 10.5751 20.8997L9.35297 28.1128L15.6343 24.7437C16.2564 24.3938 17.0161 24.3938 17.6383 24.7437L24.7639 28.5017C25.1986 28.7392 25.4194 29.2405 25.3014 29.7224C25.1931 30.2043 24.7681 30.5473 24.2751 30.5556L24.3001 30.4404Z" fill="#130F26"/>
</svg>
