<svg width="34" height="34" viewBox="0 0 34 34" fill="none" xmlns="http://www.w3.org/2000/svg">
<path fill-rule="evenodd" clip-rule="evenodd" d="M24.3319 3.89206C26.5736 4.5892 28.4376 6.1905 29.4907 8.32373C30.722 10.9092 30.8896 13.8884 29.9563 16.6003C29.0973 19.0969 27.6889 21.36 25.8391 23.2166C24.6262 24.4633 23.3192 25.6111 21.9301 26.6496L21.8566 26.712C21.3951 27.0227 20.7745 26.9007 20.4597 26.4374C20.2996 26.2136 20.2353 25.9334 20.2815 25.6605C20.3277 25.3877 20.4804 25.1455 20.7047 24.9893C22.0081 24.0072 23.237 22.9264 24.3809 21.7561C26.0282 20.1349 27.2862 18.1485 28.057 15.9512C28.7984 13.7617 28.6483 11.361 27.6404 9.28496C26.8293 7.65182 25.4001 6.42576 23.6824 5.88943C21.4914 5.19148 19.1045 5.61459 17.2737 7.02544C16.9097 7.30011 16.4123 7.30011 16.0483 7.02544C14.2184 5.61263 11.8304 5.18934 9.63961 5.88943C7.91035 6.41391 6.46699 7.63627 5.64489 9.27248C4.6597 11.347 4.51877 13.7339 5.25277 15.9137C6.0268 18.1057 7.28448 20.0874 8.92889 21.7061C11.3587 24.0796 14.038 26.1729 16.9183 27.9479C17.2847 28.2068 17.4458 28.6765 17.3174 29.1115C17.189 29.5464 16.8004 29.8478 16.3547 29.8579C16.1537 29.8591 15.9572 29.7982 15.791 29.6831C12.7906 27.8344 10.0002 25.6532 7.4707 23.1792C5.61054 21.3287 4.197 19.0639 3.34118 16.5629C2.44014 13.8547 2.6251 10.8937 3.85584 8.32373C4.9089 6.1905 6.77295 4.5892 9.01467 3.89206C11.5921 3.08103 14.3885 3.4548 16.6733 4.91571C18.9581 3.4548 21.7545 3.08103 24.3319 3.89206ZM23.3271 13.4545C23.2759 12.3008 22.5217 11.303 21.44 10.9578C21.0378 10.702 20.8592 10.1994 21.0073 9.74053C21.1555 9.2817 21.5922 8.98535 22.0649 9.02281C23.8921 9.61041 25.1926 11.2604 25.3612 13.2048C25.3957 13.4767 25.3218 13.7513 25.156 13.9672C24.9901 14.183 24.7462 14.3221 24.4789 14.3533C23.9177 14.4272 23.4032 14.0257 23.3271 13.4545Z" fill="#130F26"/>
</svg>
