<svg width="141" height="141" viewBox="0 0 141 141" fill="none" xmlns="http://www.w3.org/2000/svg">
<circle cx="70.5" cy="70.5" r="70.5" fill="#222734" fill-opacity="0.1"/>
<circle cx="70.5" cy="70.5" r="70.5" fill="#222734" fill-opacity="0.1"/>
<circle cx="70.5" cy="70.5" r="48.5" fill="#222734" fill-opacity="0.1"/>
<circle cx="70.5" cy="70.5" r="48.5" fill="#1A5D57" fill-opacity="0.2"/>
<path d="M52.8078 40.0394C60.3296 41.2326 64.7736 49.204 62.9926 56.4319C62.1903 59.9886 60.0163 63.0848 56.9433 65.0471C53.8703 67.0094 50.1469 67.6791 46.5828 66.9107L44.6461 63.4524C44.6461 63.4524 42.2426 68.4497 40.4615 66.9107C38.6805 65.3717 38.1098 58.6453 38.1098 58.6453C38.1098 58.6453 35.7409 64.853 34.2884 61.5849C32.8359 58.3167 33.5621 51.9361 35.7409 48.0974C37.31 45.07 39.83 42.6418 42.9134 41.186C45.9969 39.7302 49.4731 39.3273 52.8078 40.0394Z" fill="#BDBEC0"/>
<path d="M52.8075 45.4178C49.471 44.7072 45.9933 45.1126 42.9096 46.5716C39.8259 48.0306 37.3071 50.4625 35.7407 53.4931C34.7198 55.4163 34.0521 57.5072 33.7694 59.6662C33.2025 55.6933 33.8918 51.6426 35.7407 48.0808C37.3098 45.0534 39.8298 42.6252 42.9132 41.1694C45.9966 39.7136 49.4729 39.3107 52.8075 40.0228C60.1392 41.1814 64.514 48.7724 63.1825 55.8274C62.7348 53.2355 61.4981 50.8449 59.6413 48.9818C57.7845 47.1188 55.398 45.8742 52.8075 45.4178Z" fill="#E0E0E0"/>
<path d="M52.8078 40.0394C60.3296 41.2326 64.7736 49.204 62.9926 56.4319C62.1903 59.9886 60.0163 63.0848 56.9433 65.0471C53.8703 67.0094 50.1469 67.6791 46.5828 66.9107L44.6461 63.4524C44.6461 63.4524 42.2426 68.4497 40.4615 66.9107C38.6805 65.3717 38.1098 58.6453 38.1098 58.6453C38.1098 58.6453 35.7409 64.853 34.2884 61.5849C32.8359 58.3167 33.5621 51.9361 35.7409 48.0974C37.31 45.07 39.83 42.6418 42.9134 41.186C45.9969 39.7302 49.4731 39.3273 52.8078 40.0394V40.0394Z" stroke="#222734" stroke-width="1.72917" stroke-linecap="round" stroke-linejoin="round"/>
<path d="M55.9374 48.5993C54.1575 47.5759 52.1257 47.0737 50.074 47.1502C48.0223 47.2266 46.0335 47.8786 44.3347 49.0315" stroke="#222734" stroke-width="1.72917" stroke-linecap="round" stroke-linejoin="round"/>
<path d="M60.675 98.6413C59.5835 99.8754 58.7885 101.343 58.351 102.931C57.9134 104.519 57.8448 106.187 58.1504 107.806C59.8039 107.842 61.4436 107.497 62.9427 106.799C64.4418 106.1 65.7603 105.066 66.7963 103.777C67.8908 102.544 68.6889 101.078 69.1295 99.4892C69.5701 97.9008 69.6414 96.2326 69.3381 94.6123C67.6817 94.5737 66.0387 94.917 64.5363 95.6157C63.034 96.3144 61.7127 97.3497 60.675 98.6413Z" fill="#6DD627"/>
<path d="M69.2867 94.6129C67.6332 94.5769 65.9936 94.9215 64.4944 95.6201C62.9953 96.3187 61.6768 97.3526 60.6409 98.6419C60.0862 99.3024 59.6049 100.021 59.2057 100.786C61.185 102.636 63.7071 103.8 66.399 104.106L66.7103 103.777C67.8109 102.548 68.6154 101.083 69.062 99.4942C69.5086 97.9056 69.5855 96.2358 69.2867 94.6129Z" fill="#46B000"/>
<path d="M60.675 98.6413C59.5835 99.8754 58.7885 101.343 58.351 102.931C57.9134 104.519 57.8448 106.187 58.1504 107.806C59.8039 107.842 61.4436 107.497 62.9427 106.799C64.4418 106.1 65.7603 105.066 66.7963 103.777C67.8908 102.544 68.6889 101.078 69.1295 99.4892C69.5701 97.9008 69.6414 96.2326 69.3381 94.6123C67.6817 94.5737 66.0387 94.917 64.5363 95.6157C63.034 96.3144 61.7127 97.3497 60.675 98.6413V98.6413Z" stroke="#222734" stroke-width="1.72917" stroke-linecap="round" stroke-linejoin="round"/>
<path d="M90.1922 40.0399C82.6703 41.2331 78.2264 49.2045 80.0074 56.4324C80.8097 59.9891 82.9837 63.0853 86.0567 65.0476C89.1296 67.0099 92.853 67.6796 96.4172 66.9112L98.3539 63.4528C98.3539 63.4528 100.757 68.4501 102.538 66.9112C104.319 65.3722 104.89 58.6458 104.89 58.6458C104.89 58.6458 107.259 64.9572 108.712 61.6199C110.164 58.2826 109.438 51.9712 107.259 48.1324C105.695 45.0987 103.178 42.6632 100.094 41.2009C97.0098 39.7386 93.5307 39.3307 90.1922 40.0399Z" fill="#BDBEC0"/>
<path d="M90.1917 45.4178C93.5283 44.7072 97.0059 45.1126 100.09 46.5716C103.173 48.0306 105.692 50.4625 107.259 53.4931C108.279 55.4163 108.947 57.5072 109.23 59.6662C109.797 55.6933 109.107 51.6426 107.259 48.0808C105.689 45.0534 103.169 42.6252 100.086 41.1694C97.0026 39.7136 93.5263 39.3107 90.1917 40.0228C82.86 41.1814 78.4852 48.7724 79.8167 55.8274C80.2644 53.2355 81.5011 50.8449 83.3579 48.9818C85.2147 47.1188 87.6012 45.8742 90.1917 45.4178Z" fill="#E0E0E0"/>
<path d="M90.1922 40.0399C82.6703 41.2331 78.2264 49.2045 80.0074 56.4324C80.8097 59.9891 82.9837 63.0853 86.0567 65.0476C89.1296 67.0099 92.853 67.6796 96.4172 66.9112L98.3539 63.4528C98.3539 63.4528 100.757 68.4501 102.538 66.9112C104.319 65.3722 104.89 58.6458 104.89 58.6458C104.89 58.6458 107.259 64.9572 108.712 61.6199C110.164 58.2826 109.438 51.9712 107.259 48.1324C105.695 45.0987 103.178 42.6632 100.094 41.2009C97.0098 39.7386 93.5307 39.3307 90.1922 40.0399V40.0399Z" stroke="#222734" stroke-width="1.72917" stroke-linecap="round" stroke-linejoin="round"/>
<path opacity="0.15" d="M49.3146 110.383C49.3146 110.762 49.8884 111.138 51.0033 111.488C52.1182 111.838 53.7524 112.157 55.8125 112.425C57.8726 112.693 60.3182 112.906 63.0099 113.051C65.7015 113.196 68.5864 113.271 71.4998 113.271C74.4132 113.271 77.2981 113.196 79.9897 113.051C82.6813 112.906 85.127 112.693 87.1871 112.425C89.2472 112.157 90.8813 111.838 91.9962 111.488C93.1112 111.138 93.685 110.762 93.685 110.383C93.685 110.004 93.1112 109.628 91.9962 109.278C90.8813 108.927 89.2472 108.609 87.1871 108.341C85.127 108.073 82.6813 107.86 79.9897 107.715C77.2981 107.57 74.4132 107.495 71.4998 107.495C68.5864 107.495 65.7015 107.57 63.0099 107.715C60.3182 107.86 57.8726 108.073 55.8125 108.341C53.7524 108.609 52.1182 108.927 51.0033 109.278C49.8884 109.628 49.3146 110.004 49.3146 110.383Z" fill="#222734"/>
<path d="M96.3649 70.9926V66.0126C96.3649 53.7009 85.2291 43.7236 71.4995 43.7236C57.7699 43.7236 46.6341 53.7009 46.6341 66.0126V70.9926C44.6263 73.5407 43.5304 76.6883 43.5216 79.9324C43.5216 88.5782 50.4383 95.7197 60.1043 95.7197H60.5885C62.0244 95.7494 63.4244 96.1742 64.6347 96.9474C66.7409 98.1402 69.1317 98.7379 71.5514 98.6766C73.9711 98.7379 76.3619 98.1402 78.4681 96.9474C79.6784 96.1742 81.0784 95.7494 82.5143 95.7197H82.9985C92.7337 95.7197 99.5812 88.6474 99.5812 79.9324C99.5429 76.6759 98.41 73.5271 96.3649 70.9926Z" fill="#BDBEC0"/>
<path d="M96.3655 70.9926V66.0126C96.3655 53.7009 85.2296 43.7236 71.5001 43.7236C57.7705 43.7236 46.6346 53.7009 46.6346 66.0126V70.9926C46.6346 58.6809 57.7705 50.0005 71.5001 50.0005C85.2296 50.0005 96.3655 58.6809 96.3655 70.9926Z" fill="#E0E0E0"/>
<path d="M96.3649 70.9926V66.0126C96.3649 53.7009 85.2291 43.7236 71.4995 43.7236C57.7699 43.7236 46.6341 53.7009 46.6341 66.0126V70.9926C44.6263 73.5407 43.5304 76.6883 43.5216 79.9324C43.5216 88.5782 50.4383 95.7197 60.1043 95.7197H60.5885C62.0244 95.7494 63.4244 96.1742 64.6347 96.9474C66.7409 98.1402 69.1317 98.7379 71.5514 98.6766C73.9711 98.7379 76.3619 98.1402 78.4681 96.9474C79.6784 96.1742 81.0784 95.7494 82.5143 95.7197H82.9985C92.7337 95.7197 99.5812 88.6474 99.5812 79.9324C99.5429 76.6759 98.41 73.5271 96.3649 70.9926V70.9926Z" stroke="#222734" stroke-width="1.72917" stroke-linecap="round" stroke-linejoin="round"/>
<path d="M78.2606 81.5403C78.2606 87.4367 75.2346 89.0621 71.4996 89.0621C67.7646 89.0621 64.7385 87.4367 64.7385 81.5403C64.7385 75.6438 67.7646 69.7646 71.4996 69.7646C75.2346 69.7646 78.2606 75.6265 78.2606 81.5403Z" fill="#656769" stroke="#222734" stroke-width="1.72917" stroke-linecap="round" stroke-linejoin="round"/>
<path d="M82.1172 69.7647C82.1172 70.1439 82.1919 70.5194 82.337 70.8697C82.4821 71.2201 82.6948 71.5384 82.963 71.8066C83.2311 72.0747 83.5495 72.2874 83.8998 72.4326C84.2502 72.5777 84.6257 72.6524 85.0049 72.6524C85.3841 72.6524 85.7596 72.5777 86.11 72.4326C86.4603 72.2874 86.7787 72.0747 87.0468 71.8066C87.315 71.5384 87.5277 71.2201 87.6728 70.8697C87.8179 70.5194 87.8926 70.1439 87.8926 69.7647C87.8926 69.3854 87.8179 69.0099 87.6728 68.6596C87.5277 68.3092 87.315 67.9909 87.0468 67.7227C86.7787 67.4546 86.4603 67.2419 86.11 67.0968C85.7596 66.9516 85.3841 66.877 85.0049 66.877C84.6257 66.877 84.2502 66.9516 83.8998 67.0968C83.5495 67.2419 83.2311 67.4546 82.963 67.7227C82.6948 67.9909 82.4821 68.3092 82.337 68.6596C82.1919 69.0099 82.1172 69.3854 82.1172 69.7647Z" fill="#222734" stroke="#222734" stroke-width="1.72917" stroke-linecap="round" stroke-linejoin="round"/>
<path d="M55.1073 69.7647C55.1073 70.5305 55.4115 71.265 55.9531 71.8066C56.4946 72.3481 57.2291 72.6524 57.995 72.6524C58.7609 72.6524 59.4954 72.3481 60.0369 71.8066C60.5785 71.265 60.8827 70.5305 60.8827 69.7647C60.8827 68.9988 60.5785 68.2643 60.0369 67.7227C59.4954 67.1812 58.7609 66.877 57.995 66.877C57.2291 66.877 56.4946 67.1812 55.9531 67.7227C55.4115 68.2643 55.1073 68.9988 55.1073 69.7647Z" fill="#222734" stroke="#222734" stroke-width="1.72917" stroke-linecap="round" stroke-linejoin="round"/>
<path d="M95.7082 82.6637C95.7082 83.6148 94.1346 84.3929 92.2498 84.3929C90.365 84.3929 88.7915 83.6148 88.7915 82.6637C88.7915 81.7127 90.365 80.9346 92.2498 80.9346C94.1346 80.9346 95.7082 81.7127 95.7082 82.6637Z" fill="#FFCCDD"/>
<path d="M54.3981 82.6637C54.3981 83.6148 52.8246 84.3929 50.9398 84.3929C49.055 84.3929 47.4814 83.6148 47.4814 82.6637C47.4814 81.7127 49.055 80.9346 50.9398 80.9346C52.8246 80.9346 54.3981 81.7127 54.3981 82.6637Z" fill="#FFCCDD"/>
<path d="M82.8948 95.7197C80.9694 95.5107 79.0659 95.1346 77.2058 94.5957" stroke="#222734" stroke-width="1.72917" stroke-linecap="round" stroke-linejoin="round"/>
<path d="M60.105 95.7197C62.0303 95.5107 63.9338 95.1346 65.7939 94.5957" stroke="#222734" stroke-width="1.72917" stroke-linecap="round" stroke-linejoin="round"/>
<path d="M87.0624 48.5993C88.8423 47.5759 90.8741 47.0737 92.9258 47.1502C94.9775 47.2266 96.9663 47.8786 98.6651 49.0315" stroke="#222734" stroke-width="1.72917" stroke-linecap="round" stroke-linejoin="round"/>
</svg>
